<?xml version="1.0" standalone="no"?>
<!DOCTYPE svg PUBLIC "-//W3C//DTD SVG 1.1//EN" "http://www.w3.org/Graphics/SVG/1.1/DTD/svg11.dtd" >
<svg xmlns="http://www.w3.org/2000/svg">
<metadata></metadata>
<defs>
<font id="melight" horiz-adv-x="0" >
<font-face units-per-em="2048" ascent="1681" descent="-367" />
<missing-glyph horiz-adv-x="491" />
<glyph unicode="&#xe2f;&#xe2f;" horiz-adv-x="972" />
<glyph unicode="&#xe4f;&#x22;" horiz-adv-x="1052" d="M121 406q0 82 30.5 152.5t84 123.5t124 84t152.5 31q80 0 151.5 -31t125 -84t84 -124t30.5 -152q0 -84 -30.5 -156t-84 -125t-125 -84t-151.5 -31q-82 0 -152.5 31t-124 84t-84 125t-30.5 156zM180 406q0 -70 25.5 -130.5t71 -106.5t105.5 -72.5t130 -26.5q68 0 128 26.5 t105.5 72.5t72 106.5t26.5 130.5q0 68 -26.5 128t-72 105t-105.5 71.5t-128 26.5q-70 0 -130 -26.5t-105.5 -71.5t-71 -105.5t-25.5 -127.5zM283 403q0 47 18 89.5t49 73t72 48t88 17.5t89 -18.5t72.5 -49.5t48 -71.5t17.5 -85.5q0 -49 -18.5 -91.5t-49 -73t-71.5 -48 t-86 -17.5q-47 0 -89 18.5t-73 49t-49 71.5t-18 88z" />
<glyph unicode="&#xe24;&#xe32;" horiz-adv-x="2031" d="M115 967v39q0 20 16 20q86 6 146.5 9t107.5 5t87 3t85 1q219 0 323.5 -103t104.5 -306v-985q0 -18 -20 -19h-58q-20 0 -20 19v985q0 160 -75 240.5t-251 80.5q-35 0 -69.5 -1t-63.5 -3q-35 -2 -66 -4q-29 -31 -52 -60.5t-40.5 -62t-27 -73.5t-9.5 -97v-569h170 q18 0 19 -20v-46q0 -20 -19 -20h-245q-23 0 -23 25v630q0 80 27.5 151t93.5 138l-125 6q-16 0 -16 17zM1128 725v27q0 57 21.5 109t61.5 93t99.5 65.5t133.5 24.5h86q182 0 265 -94t83 -272v-1030q0 -18 -20 -19h-58q-20 0 -20 19v1030q0 152 -65.5 216t-221.5 64 q-80 0 -131 -16t-81 -44t-42 -65.5t-12 -80.5v-27q0 -18 -21 -18h-57q-20 0 -21 18z" />
<glyph unicode="&#xe26;&#xe32;" horiz-adv-x="2031" d="M31 20v46q0 20 18 20h129v569q0 53 5 94.5t15.5 75t27 62t40.5 57.5l-135 6q-16 0 -16 17v39q0 20 16 20q86 6 146.5 9t107.5 5t87 3t85 1q219 0 323.5 -103t104.5 -306v-985q0 -18 -20 -19h-58q-20 0 -20 19v985q0 160 -75 240.5t-251 80.5q-35 0 -66.5 -1t-60.5 -3 q-33 -2 -61 -4q-29 -31 -47.5 -60.5t-29.5 -62t-15.5 -73.5t-4.5 -97v-630q0 -25 -22 -25h-205q-18 0 -18 20zM1128 725v27q0 57 21.5 109t61.5 93t99.5 65.5t133.5 24.5h86q182 0 265 -94t83 -272v-1030q0 -18 -20 -19h-58q-20 0 -20 19v1030q0 152 -65.5 216t-221.5 64 q-80 0 -131 -16t-81 -44t-42 -65.5t-12 -80.5v-27q0 -18 -21 -18h-57q-20 0 -21 18z" />
<glyph unicode="&#xfb00;" horiz-adv-x="1331" d="M82 942v31q0 18 18 18h179v139q0 88 28.5 148.5t73.5 97.5t102.5 52.5t114.5 15.5h68q18 0 18 -21v-45q0 -20 -18 -20h-68q-47 0 -87 -11.5t-69.5 -38t-47 -70.5t-17.5 -110v-137h536v139q0 88 29 148.5t74 97.5t102.5 52.5t114.5 15.5h67q18 0 19 -21v-45q0 -20 -19 -20 h-67q-47 0 -87 -11.5t-69.5 -38t-47 -70.5t-17.5 -110v-137h258q18 0 18 -20v-45q0 -20 -18 -21h-258v-1255q0 -18 -21 -19h-57q-20 0 -21 19v1255h-536v-1255q0 -18 -21 -19h-57q-20 0 -20 19v1255l-179 17q-10 2 -14 5t-4 15z" />
<glyph unicode="fi" horiz-adv-x="1288" d="M82 942v31q0 18 18 18h179v139q0 88 28.5 148.5t73.5 97.5t102.5 52.5t114.5 15.5h68q18 0 18 -21v-45q0 -20 -18 -20h-68q-47 0 -87 -11.5t-69.5 -38t-47 -70.5t-17.5 -110v-137h688q20 0 20 -20v-953q0 -18 -20 -18h-57q-20 0 -21 18v887h-610v-1255q0 -18 -21 -19h-57 q-20 0 -20 19v1255l-179 17q-10 2 -14 5t-4 15zM963 1266v96q0 25 22 24h100q23 0 23 -24v-96q0 -25 -23 -25h-100q-23 0 -22 25z" />
<glyph unicode="fl" horiz-adv-x="1333" d="M82 942v31q0 18 18 18h179v139q0 88 28.5 148.5t73.5 97.5t102.5 52.5t114.5 15.5h383q20 0 20 -19v-1171q0 -90 34 -129t106 -39h108q18 0 19 -20v-46q0 -20 -19 -20h-108q-117 0 -177.5 58.5t-60.5 193.5v1106h-305q-47 0 -87 -11.5t-69.5 -38t-47 -70.5t-17.5 -110 v-137h258q18 0 18 -20v-45q0 -20 -18 -21h-258v-1255q0 -18 -21 -19h-57q-20 0 -20 19v1255l-179 17q-10 2 -14 5t-4 15z" />
<glyph unicode="&#xfb03;" horiz-adv-x="1832" d="M82 942v31q0 18 18 18h179v139q0 88 28.5 148.5t73.5 97.5t102.5 52.5t114.5 15.5h68q18 0 18 -21v-45q0 -20 -18 -20h-68q-47 0 -87 -11.5t-69.5 -38t-47 -70.5t-17.5 -110v-137h536v139q0 88 29 148.5t74 97.5t102.5 52.5t114.5 15.5h67q18 0 19 -21v-45q0 -20 -19 -20 h-67q-47 0 -87 -11.5t-69.5 -38t-47 -70.5t-17.5 -110v-137h612q20 0 21 -20v-953q0 -18 -21 -18h-57q-20 0 -21 18v887h-534v-1255q0 -18 -21 -19h-57q-20 0 -21 19v1255h-536v-1255q0 -18 -21 -19h-57q-20 0 -20 19v1255l-179 17q-10 2 -14 5t-4 15zM1522 1266v96 q0 25 22 24h101q23 0 22 -24v-96q0 -25 -22 -25h-101q-23 0 -22 25z" />
<glyph unicode="&#xfb04;" horiz-adv-x="1923" d="M82 942v31q0 18 18 18h179v139q0 88 28.5 148.5t73.5 97.5t102.5 52.5t114.5 15.5h68q18 0 18 -21v-45q0 -20 -18 -20h-68q-47 0 -87 -11.5t-69.5 -38t-47 -70.5t-17.5 -110v-137h536v139q0 88 29 148.5t74 97.5t102.5 52.5t114.5 15.5h338q20 0 20 -19v-1171 q0 -90 34 -129t106 -39h108q18 0 19 -20v-46q0 -20 -19 -20h-108q-117 0 -177.5 58.5t-60.5 193.5v1106h-260q-47 0 -87 -11.5t-69.5 -38t-47 -70.5t-17.5 -110v-137h258q18 0 18 -20v-45q0 -20 -18 -21h-258v-1255q0 -18 -21 -19h-57q-20 0 -21 19v1255h-536v-1255 q0 -18 -21 -19h-57q-20 0 -20 19v1255l-179 17q-10 2 -14 5t-4 15z" />
<glyph unicode="&#xd;" horiz-adv-x="491" />
<glyph unicode=" "  horiz-adv-x="491" />
<glyph unicode="&#x09;" horiz-adv-x="491" />
<glyph unicode="&#xa0;" horiz-adv-x="491" />
<glyph unicode="!" horiz-adv-x="688" d="M285 23v100q0 25 24 24h82q25 0 25 -24v-100q0 -23 -23 -23h-82q-27 0 -26 23zM299 395v953q0 10 7 16t18 6h53q10 0 17 -6t7 -16v-953q0 -10 -7 -16t-17 -6h-53q-25 0 -25 22z" />
<glyph unicode="&#x22;" horiz-adv-x="808" d="M145 1368q0 23 23 23h84q25 0 24 -23l-24 -434q0 -25 -23 -25h-36q-25 0 -25 25zM492 1368q0 23 22 23h84q25 0 25 -23l-25 -434q0 -25 -23 -25h-36q-25 0 -25 25z" />
<glyph unicode="#" horiz-adv-x="1509" d="M205 408v47q0 23 22 22h203v500h-203q-18 0 -22 22v48q0 23 22 22h203v352q0 23 23 23h57q8 0 15 -5t7 -20v-350h392v352q0 23 22 23h58q8 0 15 -5t7 -20v-350h221q20 0 25 -22v-48q0 -10 -7.5 -16t-17.5 -6h-221v-500h221q10 0 17.5 -6t7.5 -16v-47q0 -10 -7.5 -16.5 t-17.5 -6.5h-221v-362q0 -23 -22 -23h-58q-23 0 -22 23v362h-392v-362q0 -23 -22 -23h-57q-23 0 -23 23v362h-203q-23 0 -22 23zM532 477h392v500h-392v-500z" />
<glyph unicode="$" horiz-adv-x="1202" d="M123 1042v50q0 147 85 229t277 82h62v266q0 23 22 23h58q8 0 15 -6.5t7 -16.5v-266h324q18 0 18 -21v-51q0 -20 -18 -20h-481q-154 0 -210.5 -54.5t-56.5 -166.5v-50q0 -92 52.5 -149t179.5 -90l299 -76q76 -18 135 -44t100 -64.5t61.5 -92t20.5 -127.5v-67 q0 -156 -93 -243t-296 -87h-35v-266q0 -23 -22 -23h-60q-20 0 -20 19v270h-367q-18 0 -18 20v52q0 20 18 20h496q145 0 220 53.5t75 186.5v53q0 45 -9.5 82t-36 67.5t-72.5 56t-120 44.5l-311 78q-61 14 -115.5 40.5t-95.5 66.5t-64.5 94.5t-23.5 127.5z" />
<glyph unicode="%" horiz-adv-x="2109" d="M164 936v164q2 164 87 243.5t238 79.5h58q154 0 239.5 -79.5t85.5 -243.5v-164q-2 -164 -88 -244t-239 -80h-53q-154 0 -240 80t-88 244zM262 938q0 -240 230 -240h53q229 0 229 240v160q0 240 -227 239h-58q-227 0 -227 -239v-160zM709 -88q0 4 2 14.5t6 20.5 q4 12 10 26l586 1516q6 20 26 20h74q18 0 19 -18q0 -12 -10.5 -38t-20.5 -50l-582 -1487q-4 -10 -10 -16t-21 -6h-61q-18 0 -18 18zM1237 311v164q2 164 87 244t239 80h57q154 0 240 -80t86 -244v-164q-2 -164 -88 -243.5t-240 -79.5h-53q-154 0 -240 79.5t-88 243.5z M1335 313q0 -240 230 -239h53q229 0 229 239v160q0 240 -227 240h-57q-227 0 -228 -240v-160z" />
<glyph unicode="&#x26;" horiz-adv-x="1384" d="M117 385v100q0 141 66.5 226.5t178.5 113.5q-49 59 -78.5 124t-29.5 138v52q0 135 86 199.5t240 64.5h233q18 0 18 -19v-55q0 -20 -20 -20h-225q-66 0 -109 -11.5t-67.5 -34t-34.5 -54t-10 -70.5v-31q0 -84 32.5 -146.5t81.5 -132.5l287 -407q53 -78 96 -133.5t84 -91.5 q41 49 64.5 116.5t23.5 157.5v315q0 23 25 23h55q23 0 23 -21v-319q0 -100 -26 -184t-79 -148q51 -25 110.5 -32t145.5 -7h58q25 0 24 -22v-53q0 -23 -24 -23h-56q-115 0 -194.5 15.5t-143.5 50.5q-119 -78 -311 -78h-98q-92 0 -170 26.5t-135.5 77.5t-89 125t-31.5 168z M219 391q0 -137 84 -224t256 -87h82q66 0 122 12t103 39q-47 43 -90 100.5t-96 130.5l-266 381q-35 -10 -70 -24t-62.5 -43t-45 -76t-17.5 -121v-88z" />
<glyph unicode="'" horiz-adv-x="530" d="M197 1368q0 23 22 23h90q25 0 25 -23l-25 -434q0 -25 -22 -25h-43q-25 0 -25 25z" />
<glyph unicode="(" horiz-adv-x="733" d="M188 37v1100q0 197 81 292t268 95h30q20 0 21 -23v-45q0 -25 -21 -24h-41q-55 0 -99 -14.5t-73.5 -48.5t-46 -90t-16.5 -142v-1100q0 -86 16.5 -143.5t46 -91t73.5 -47t99 -13.5h41q20 0 21 -25v-45q0 -23 -21 -22h-30q-186 0 -267.5 95t-81.5 292z" />
<glyph unicode=")" horiz-adv-x="731" d="M143 -283q0 25 21 25h41q55 0 99 13.5t74 47t46 91t16 143.5v1100q0 86 -16 142t-46 90t-74 48.5t-99 14.5h-41q-20 0 -21 24v45q0 23 21 23h31q186 0 267 -95.5t81 -291.5v-1100q0 -197 -81 -292t-267 -95h-31q-20 0 -21 22v45z" />
<glyph unicode="*" horiz-adv-x="1011" d="M104 1178l15 45q10 29 41 16l274 -96v305q0 14 10.5 22.5t22.5 8.5h53q29 0 29 -27v-309l274 96q31 12 41 -16l15 -45q8 -27 -19 -37l-274 -97l192 -274q8 -10 7 -22.5t-13 -20.5l-43 -31q-10 -6 -21.5 -5t-19.5 11l-196 273l-197 -273q-8 -10 -19.5 -11t-21.5 5l-43 31 q-12 8 -13 20.5t7 22.5l192 274l-274 97q-27 10 -19 37z" />
<glyph unicode="+" horiz-adv-x="1228" d="M299 684v45q0 23 25 23h294v307q0 25 25 24h53q25 0 25 -24v-307h293q25 0 24 -23v-45q0 -25 -24 -25h-293v-309q0 -25 -25 -24h-53q-25 0 -25 24v309h-294q-25 0 -25 25z" />
<glyph unicode="," horiz-adv-x="536" d="M166 -211l20 334q0 25 25 24h92q23 0 23 -24l-11 -111q-2 -16 -5 -27.5t-7 -27.5l-59 -168q-6 -18 -25 -18h-33q-20 0 -20 18z" />
<glyph unicode="-" horiz-adv-x="919" d="M178 567v51q0 20 19 21h499q18 0 19 -21v-51q0 -20 -19 -20h-499q-18 0 -19 20z" />
<glyph unicode="." horiz-adv-x="542" d="M193 25v110q0 25 22 25h111q23 0 22 -25v-110q0 -25 -22 -25h-111q-23 0 -22 25z" />
<glyph unicode="/" horiz-adv-x="845" d="M104 -223q0 2 1 8t4 10l610 1809q8 23 24 22h66q10 0 14 -7t0 -15l-616 -1817q-8 -23 -25 -23h-61q-16 0 -17 13z" />
<glyph unicode="0" horiz-adv-x="1314" d="M160 473v414q0 113 25.5 204t81 153.5t140.5 96t203 33.5h97q236 0 343 -130t107 -357v-414q0 -227 -107.5 -356t-342.5 -129h-97q-119 0 -203.5 32.5t-140 96t-81 152.5t-25.5 204zM262 473q0 -180 83 -286.5t263 -106.5h101q180 0 263 106.5t83 286.5v414 q0 180 -83 287.5t-263 107.5h-101q-180 0 -263 -107.5t-83 -287.5v-414z" />
<glyph unicode="1" horiz-adv-x="774" d="M78 1290v51q0 20 18 21h342q25 0 25 -25v-1245h227q18 0 19 -20v-52q0 -20 -19 -20h-569q-18 0 -19 20v52q0 20 19 20h239v1178h-264q-18 0 -18 20z" />
<glyph unicode="2" horiz-adv-x="1196" d="M152 53v158q0 102 33.5 175t93 124t141.5 86t178 63q86 27 153.5 51.5t114.5 56.5t73 77t26 110v62q0 125 -77 188.5t-249 65.5h-410q-18 0 -18 20v51q0 20 18 21h408q92 0 171 -19.5t136 -60.5t90 -107.5t33 -158.5v-70q0 -82 -30.5 -138t-85 -96t-129 -70t-160.5 -58 q-104 -35 -181.5 -65t-127.5 -69.5t-74.5 -97t-24.5 -145.5v-115h784q18 0 19 -20v-52q0 -20 -19 -20h-837q-29 0 -39 16.5t-10 36.5z" />
<glyph unicode="3" horiz-adv-x="1116" d="M141 20v52q0 20 19 20h401q178 0 254 58.5t76 193.5v70q0 127 -90 181t-240 54h-211q-18 0 -18 21v51q0 20 18 20h211q61 0 114.5 14.5t94.5 42t64.5 70.5t23.5 103v53q0 49 -12 94t-42 79t-78 53.5t-122 19.5h-440q-18 0 -19 20v51q0 20 19 21h438q190 0 274.5 -91 t84.5 -247v-53q0 -96 -40 -164t-149 -107q96 -18 158.5 -84.5t62.5 -201.5v-64q0 -80 -22.5 -144.5t-72.5 -110.5t-133 -70.5t-204 -24.5h-401q-18 0 -19 20z" />
<glyph unicode="4" horiz-adv-x="1198" d="M106 358v74q0 10 3.5 15.5t7.5 15.5l489 880q8 18 31 19h72q20 0 10 -19l-510 -923q39 2 64.5 4t46 3l41 2t51.5 1h385v328q0 18 20 18h62q20 0 20 -18v-328h207q18 0 18 -20v-52q0 -20 -18 -20h-207v-320q0 -18 -20 -18h-62q-20 0 -20 18v320h-672q-18 0 -19 20z" />
<glyph unicode="5" horiz-adv-x="1234" d="M186 20v52q0 20 19 20h452q174 0 251 64.5t77 218.5v162q0 117 -62.5 178t-177.5 61h-127q-59 0 -96 -14t-86 -51l-123 -93q-25 -18 -49 -2l-28 17q-16 10 -18.5 15t-2.5 26v653q0 35 39 35h758q18 0 18 -21v-51q0 -20 -18 -20h-672q-23 0 -23 -21v-514l119 84 q41 29 80 39t109 10h141q154 0 237.5 -87t83.5 -244v-158q0 -92 -21.5 -164t-71.5 -119t-130 -71.5t-196 -24.5h-463q-18 0 -19 20z" />
<glyph unicode="6" horiz-adv-x="1232" d="M182 408v466q0 229 126 358.5t368 129.5h336q18 0 18 -21v-51q0 -20 -18 -20h-340q-186 0 -286.5 -102.5t-100.5 -293.5v-266l139 164q16 18 37.5 36.5t51.5 33t71 22.5t96 8h121q152 0 231.5 -79.5t79.5 -202.5v-240q0 -182 -105.5 -272t-295.5 -90h-121 q-199 0 -303.5 109.5t-104.5 310.5zM285 414q0 -168 72.5 -251t242.5 -83h107q139 0 221 62.5t82 207.5v225q0 92 -53.5 148.5t-159.5 56.5h-111q-47 0 -76.5 -5t-52 -16t-41 -28.5t-39.5 -42.5l-192 -223v-51z" />
<glyph unicode="7" horiz-adv-x="1040" d="M98 1290v51q0 20 19 21h860q18 0 18 -21v-67q0 -16 -6 -23l-219 -258q-82 -96 -138.5 -178t-92 -175t-51 -209t-15.5 -277v-136q0 -18 -20 -18h-62q-20 0 -20 18v134q0 141 16 258.5t53 222t95.5 201t142.5 192.5l213 244h-774q-18 0 -19 20z" />
<glyph unicode="8" horiz-adv-x="1191" d="M143 340v76q0 104 59.5 182t182.5 109q-113 35 -156 115.5t-43 170.5v72q0 139 100.5 223t293.5 84h82q193 0 293 -84t100 -223v-72q0 -90 -43 -171t-156 -115q123 -31 182.5 -109t59.5 -182v-76q0 -164 -105.5 -258t-304.5 -94h-135q-199 0 -304.5 94t-105.5 258z M246 346q0 -129 87 -199.5t228 -70.5h119q141 0 228 70.5t87 199.5v66q0 115 -94 181t-246 66h-69q-152 0 -246 -66.5t-94 -180.5v-66zM289 995q2 -129 76.5 -187t228.5 -58h53q154 0 228.5 58t76.5 187v64q0 104 -66.5 165.5t-219.5 61.5h-91q-154 0 -220 -61.5t-66 -165.5 v-64z" />
<glyph unicode="9" horiz-adv-x="1204" d="M131 741v271q0 182 105.5 272t295.5 90h121q199 0 303.5 -109.5t104.5 -310.5v-467q0 -229 -126 -358t-368 -129h-336q-18 0 -18 20v52q0 20 18 20h340q186 0 286.5 102.5t100.5 292.5v236l-139 -164q-16 -18 -37.5 -36.5t-51.5 -33t-71 -22.5t-96 -8h-121 q-152 0 -231.5 79.5t-79.5 202.5zM233 756q0 -92 53.5 -148.5t159.5 -56.5h111q45 0 76 5t53.5 16.5t39.5 28.5t40 42l192 223v82q0 168 -72.5 251t-242.5 83h-106q-139 0 -221.5 -62.5t-82.5 -207.5v-256z" />
<glyph unicode=":" horiz-adv-x="542" d="M213 23v100q0 25 27 24h88q25 0 24 -24v-100q0 -23 -24 -23h-88q-27 0 -27 23zM215 797v100q0 25 25 25h90q25 0 24 -25v-100q0 -23 -24 -23h-92q-23 0 -23 23z" />
<glyph unicode=";" horiz-adv-x="532" d="M166 123q0 25 24 24h93q23 0 22 -24v-111q0 -29 -8 -55l-53 -168q-6 -18 -25 -18h-33q-20 0 -20 18v334zM166 797v100q4 25 24 25h93q23 0 22 -25v-100q0 -23 -22 -23h-93q-25 0 -24 23z" />
<glyph unicode="&#x3c;" horiz-adv-x="1228" d="M336 674v69q0 10 16 19l623 377q4 4 10 4q16 0 16 -25v-57q0 -10 -6 -14.5t-16 -8.5l-535 -331l535 -328q10 -4 16 -9t6 -16v-57q0 -27 -16 -27q-6 0 -10 4l-623 379q-16 8 -16 21z" />
<glyph unicode="=" horiz-adv-x="1228" d="M299 477v51q0 20 18 21h705q18 0 18 -21v-51q0 -20 -18 -20h-705q-18 0 -18 20zM299 872v52q0 20 18 20h705q18 0 18 -20v-52q0 -20 -18 -20h-705q-18 0 -18 20z" />
<glyph unicode="&#x3e;" horiz-adv-x="1228" d="M336 297v57q0 10 6 15.5t16 9.5l535 328l-535 331q-10 4 -16 8.5t-6 14.5v57q0 25 16 25q6 0 10 -4l623 -377q16 -8 16 -19v-69q0 -12 -16 -21l-623 -379q-4 -4 -10 -4q-16 0 -16 27z" />
<glyph unicode="?" horiz-adv-x="954" d="M145 1309v39q0 23 25 22h238q90 0 158.5 -16.5t114.5 -53t69.5 -98t23.5 -151.5q0 -106 -47 -180t-139 -130l-117 -69q-41 -25 -53 -52.5t-12 -80.5v-144q0 -23 -23 -22h-57q-23 0 -23 22v144q0 55 4 89t16.5 57.5t37 40.5t65.5 42l131 76q61 29 88 78t27 129 q0 74 -13.5 118.5t-45 70.5t-85 35t-131.5 9h-227q-25 0 -25 25zM291 25v88q0 25 22 24h84q23 0 23 -24v-88q0 -25 -23 -25h-84q-23 0 -22 25z" />
<glyph unicode="@" horiz-adv-x="1943" d="M117 201v655q0 117 36.5 217.5t108.5 174t175.5 114.5t238.5 41h561q135 0 236.5 -36t168 -101.5t100.5 -155.5t34 -201v-602q0 -66 -16.5 -123t-52.5 -100t-91 -68.5t-135 -25.5h-54q-92 0 -141 51t-49 137v168l-119 -184q-27 -41 -53.5 -73t-61 -54.5t-78.5 -34.5 t-106 -12h-57q-117 0 -181.5 79.5t-64.5 198.5v330q0 104 32 181t87 127t131 75t162 25q82 0 162.5 -21.5t146.5 -58.5v45q0 23 23 22h55q23 0 22 -22v-791q0 -47 19.5 -75.5t73.5 -28.5h45q102 0 150 55t48 172v596q0 92 -24.5 168t-77.5 130t-135 84t-199 30h-557 q-236 0 -348.5 -124t-112.5 -339v-651q0 -106 28.5 -192.5t89 -148t154 -94t224.5 -32.5h598q10 0 17 -6.5t7 -16.5v-53q0 -10 -7 -16.5t-17 -6.5h-600q-141 0 -252 33t-187.5 102.5t-116.5 177t-40 259.5zM614 266q0 -82 46.5 -137t119.5 -55h41q43 0 76 9t59.5 28.5 t51 50.5t53.5 74l176 264v327q-59 37 -127 65t-172 28q-147 0 -235.5 -78t-88.5 -246v-330z" />
<glyph unicode="A" horiz-adv-x="1288" d="M72 7q-2 4 -2 8.5t2 9.5l489 1353q6 25 31 25h86q25 0 31 -25l489 -1353q2 -5 2 -9t-2 -8q-4 -8 -14 -8h-80q-16 0 -23 20l-129 373h-635l-129 -373q-6 -20 -22 -20h-80q-10 0 -14 7zM348 485h572l-285 826z" />
<glyph unicode="B" horiz-adv-x="1308" d="M215 23v1355q0 25 23 25h567q80 0 143.5 -24.5t107.5 -65.5t67.5 -97.5t23.5 -119.5v-78q0 -104 -53.5 -182t-167.5 -105q129 -18 191.5 -100t62.5 -199v-88q0 -76 -25 -138.5t-74 -108.5t-124.5 -71.5t-178.5 -25.5h-538q-25 0 -25 23zM317 92h447q150 0 231.5 54.5 t81.5 191.5v98q0 117 -78.5 181.5t-216.5 64.5h-465v-590zM317 774h435q147 0 219.5 65.5t72.5 184.5v57q0 104 -62 167t-171 63h-494v-537z" />
<glyph unicode="C" horiz-adv-x="1269" d="M154 416v530q0 233 113.5 345t314.5 112h149q207 0 311.5 -93t104.5 -276v-65q0 -18 -21 -19h-61q-20 0 -21 19v65q0 78 -23.5 131.5t-65.5 85t-102 46t-134 14.5h-141q-170 0 -246 -92.5t-76 -272.5v-530q0 -158 83 -241t228 -83h520q18 0 19 -20v-52q0 -20 -19 -20 h-518q-201 0 -308 101.5t-107 314.5z" />
<glyph unicode="D" horiz-adv-x="1396" d="M213 23v1355q0 25 23 25h520q223 0 340.5 -119t117.5 -328v-467q0 -229 -124.5 -359t-372.5 -130h-479q-20 0 -25 23zM315 92h404q193 0 293 98.5t100 296.5v469q0 176 -94 265.5t-275 89.5h-428v-1219z" />
<glyph unicode="E" horiz-adv-x="1247" d="M213 23v1355q0 25 23 25h813q18 0 18 -21v-51q0 -20 -18 -20h-734v-539h713q18 0 19 -20v-52q0 -20 -19 -20h-713v-588h734q18 0 18 -20v-52q0 -20 -18 -20h-811q-20 0 -25 23z" />
<glyph unicode="F" horiz-adv-x="1165" d="M213 18v1360q0 25 23 25h813q18 0 18 -21v-51q0 -20 -18 -20h-734v-598h693q18 0 18 -21v-51q0 -20 -18 -20h-693v-603q0 -18 -20 -18h-62q-20 0 -20 18z" />
<glyph unicode="G" horiz-adv-x="1372" d="M174 446v469q0 227 112.5 357.5t358.5 130.5h504q18 0 18 -21v-51q0 -20 -18 -20h-508q-195 0 -280 -98.5t-85 -297.5v-454q0 -176 75 -272.5t245 -96.5h469v545h-330q-18 0 -18 20v52q0 20 18 20h410q23 0 22 -24v-682q0 -23 -20 -23h-561q-207 0 -309.5 122t-102.5 324 z" />
<glyph unicode="H" horiz-adv-x="1441" d="M225 18v1366q0 18 21 19h61q20 0 21 -19v-612h790v612q0 18 21 19h61q20 0 21 -19v-1366q0 -18 -21 -18h-61q-20 0 -21 18v662h-790v-662q0 -18 -21 -18h-61q-20 0 -21 18z" />
<glyph unicode="I" horiz-adv-x="577" d="M225 18v1366q0 18 21 19h61q20 0 21 -19v-1366q0 -18 -21 -18h-61q-20 0 -21 18z" />
<glyph unicode="J" horiz-adv-x="811" d="M41 20v52q0 20 18 20h166q37 0 62.5 2t47 11.5t44 28t55.5 48.5l53 49q27 25 44.5 46.5t26.5 45t12 54.5t3 76v858h-432q-18 0 -18 20v51q0 20 18 21h512q23 0 23 -25v-925q0 -59 -3 -98.5t-14.5 -69t-32 -57t-57.5 -60.5l-77 -74q-31 -29 -53.5 -46t-49.5 -28.5 t-61.5 -15.5t-89.5 -4h-179q-18 0 -18 20z" />
<glyph unicode="K" horiz-adv-x="1263" d="M225 18v1366q0 18 21 19h61q20 0 21 -19v-614h256l440 614q8 10 13 14.5t18 4.5h73q14 0 15 -10q0 -8 -8 -21l-459 -639l450 -706q8 -14 2 -20.5t-16 -6.5h-59q-16 0 -22.5 5t-16.5 24l-418 649h-268v-660q0 -18 -21 -18h-61q-20 0 -21 18z" />
<glyph unicode="L" horiz-adv-x="1048" d="M227 23v1361q0 18 21 19h61q20 0 21 -19v-1292h610q18 0 18 -20v-52q0 -20 -18 -20h-688q-25 0 -25 23z" />
<glyph unicode="M" horiz-adv-x="1710" d="M240 18v1366q0 18 20 19h98q25 0 34 -9.5t14 -19.5l460 -885l461 885q4 10 13.5 19.5t33.5 9.5h99q20 0 20 -19v-1366q0 -18 -20 -18h-62q-20 0 -20 18v1280q-27 -66 -49.5 -110.5t-49.5 -95.5l-352 -664q-16 -29 -41 -29h-65q-29 0 -41 29l-353 664q-27 51 -49 96 t-49 110v-1280q0 -18 -20 -18h-62q-20 0 -20 18z" />
<glyph unicode="N" horiz-adv-x="1439" d="M225 18v1366q0 18 21 19h59q12 0 17.5 -9.5t13.5 -19.5l670 -1012q20 -31 35.5 -55t28.5 -47.5t25.5 -49.5t28.5 -58q-2 55 -4 112q-2 49 -3 110.5t-1 121.5v888q0 18 21 19h61q20 0 21 -19v-1366q0 -18 -21 -18h-47q-25 0 -37 20l-674 1020q-27 39 -45 67t-31.5 50.5 t-25.5 43t-25 48.5q2 -76 6 -155q4 -68 6.5 -150t2.5 -160v-766q0 -18 -21 -18h-61q-20 0 -21 18z" />
<glyph unicode="O" horiz-adv-x="1388" d="M152 465v473q0 111 33.5 200t96 150.5t152.5 94t201 32.5h137q111 0 201 -32.5t152.5 -94t96 -150.5t33.5 -200v-473q0 -111 -33.5 -200t-96 -150.5t-152.5 -94t-201 -32.5h-137q-111 0 -201 32.5t-152.5 94t-96 150.5t-33.5 200zM254 465q0 -178 97.5 -281.5 t281.5 -103.5h141q184 0 281.5 103.5t97.5 281.5v473q0 178 -97.5 281.5t-281.5 103.5h-141q-184 0 -281.5 -103.5t-97.5 -281.5v-473z" />
<glyph unicode="P" horiz-adv-x="1269" d="M215 18v1366q0 18 21 19h573q82 0 149.5 -22.5t116.5 -65.5t76 -106.5t27 -143.5v-174q0 -76 -25 -142.5t-76 -115.5t-127 -78t-178 -29h-455v-508q0 -18 -20 -18h-61q-20 0 -21 18zM317 618h449q147 0 228 63.5t81 203.5v180q0 109 -70.5 177.5t-189.5 68.5h-498v-693z " />
<glyph unicode="Q" horiz-adv-x="1388" d="M152 465v473q0 111 33.5 200t96 150.5t152.5 94t201 32.5h137q111 0 201 -32.5t152.5 -94t96 -150.5t33.5 -200v-473q0 -111 -33.5 -200t-96 -150.5t-152.5 -94t-201 -32.5h-8l43 -86q29 -59 51.5 -94t46 -53.5t52 -23.5t69.5 -5h139q18 0 19 -21v-51q0 -20 -19 -21h-147 q-68 0 -114 14.5t-79.5 44t-59.5 72.5t-52 99l-62 125h-16q-111 0 -201 32.5t-152.5 94t-96 150.5t-33.5 200zM254 465q0 -178 97.5 -281.5t281.5 -103.5h141q184 0 281.5 103.5t97.5 281.5v473q0 178 -97.5 281.5t-281.5 103.5h-141q-184 0 -281.5 -103.5t-97.5 -281.5 v-473z" />
<glyph unicode="R" horiz-adv-x="1370" d="M213 18v1366q0 18 20 19h558q98 0 171.5 -25.5t120.5 -71.5t72 -107.5t25 -133.5v-100q0 -162 -95.5 -254.5t-289.5 -104.5l163 -338q29 -59 51.5 -94t46 -53.5t52.5 -23.5t70 -5h57q18 0 18 -20v-52q0 -20 -18 -20h-66q-68 0 -112.5 14.5t-78.5 42t-59.5 69.5t-52.5 99 l-174 377h-377v-584q0 -18 -20 -18h-62q-20 0 -20 18zM315 694h424q182 0 260 65.5t78 201.5v96q0 117 -71.5 185.5t-219.5 68.5h-471v-617z" />
<glyph unicode="S" horiz-adv-x="1232" d="M143 1042v50q0 147 85 229t278 82h487q18 0 19 -21v-51q0 -20 -19 -20h-481q-154 0 -210 -54.5t-56 -166.5v-50q0 -92 52 -149t179 -90l299 -76q76 -18 135.5 -44t100.5 -64.5t61.5 -92t20.5 -127.5v-67q0 -156 -93.5 -243t-295.5 -87h-504q-18 0 -19 20v52q0 20 19 20 h495q145 0 220 53.5t75 186.5v53q0 45 -9 82t-35.5 67.5t-73 56t-119.5 44.5l-312 78q-61 14 -115.5 40.5t-95.5 66.5t-64.5 94.5t-23.5 127.5z" />
<glyph unicode="T" horiz-adv-x="1118" d="M27 1331v51q0 20 18 21h1008q18 0 18 -21v-51q0 -20 -18 -20h-455v-1293q0 -18 -20 -18h-62q-20 0 -20 18v1293h-451q-18 0 -18 20z" />
<glyph unicode="U" horiz-adv-x="1382" d="M182 475v909q0 18 21 19h61q20 0 21 -19v-909q0 -203 93 -299t290 -96h63q197 0 290 96t93 299v909q0 18 21 19h61q20 0 21 -19v-909q0 -229 -119 -358t-357 -129h-84q-238 0 -356.5 129t-118.5 358z" />
<glyph unicode="V" horiz-adv-x="1228" d="M51 1380q-1 5 -1 9q0 14 18 14h65q18 0 25 -23l417 -1290h33q53 0 88 27.5t54 99.5l311 1163q6 23 24 23h76q18 0 18 -14q0 -4 -1 -9l-336 -1190q-29 -102 -84.5 -146t-161.5 -44h-59q-16 0 -26.5 3t-16.5 22z" />
<glyph unicode="W" horiz-adv-x="1945" d="M49 1382q-1 3 -1 6q0 14 26 15h55q16 0 22.5 -3t10.5 -18l385 -1290h43q47 0 76.5 26.5t52.5 92.5l215 678l-148 495q-6 18 19 19h67q20 0 27 -19l397 -1292h52q39 0 68.5 22.5t49.5 96.5l312 1169q4 23 32 23h62q10 0 20 -3q6 -2 6 -8q0 -3 -2 -8l-321 -1194 q-14 -51 -32.5 -86.5t-46.5 -59.5t-65.5 -34t-91.5 -10h-94q-16 0 -26.5 3t-16.5 22l-217 692l-162 -529q-16 -49 -33.5 -84.5t-43 -59.5t-62.5 -34t-90 -10h-102q-18 0 -26.5 10t-12.5 27z" />
<glyph unicode="X" horiz-adv-x="1177" d="M58 9q-1 3 -1 5q0 6 4 13l471 698l-436 651q-2 4 -4 6t-2 7q0 14 16 14h91q10 0 15 -4t9 -13l365 -573l368 567q8 12 12.5 17.5t20.5 5.5h88q16 0 17 -12q0 -6 -9 -19l-436 -651l469 -694q4 -6 4 -13v-4q-2 -10 -14 -10h-80q-16 0 -25.5 8t-17.5 21l-389 610l-397 -610 q-8 -12 -15.5 -20.5t-23.5 -8.5h-86q-12 0 -14 9z" />
<glyph unicode="Y" horiz-adv-x="1089" d="M20 1384q0 18 27 19h62q14 0 20 -6t12 -17l404 -743l399 743q6 10 12.5 16.5t20.5 6.5h61q27 0 27 -19q0 -8 -6 -20l-465 -832v-514q0 -18 -21 -18h-61q-20 0 -20 18v514l-465 832q-6 12 -7 20z" />
<glyph unicode="Z" horiz-adv-x="1050" d="M72 37v39q0 16 7 31.5t19 33.5l721 1170h-704q-18 0 -19 20v51q0 20 19 21h811q10 0 18 -5t8 -20v-37q0 -14 -6 -27.5t-16 -29.5l-742 -1192h770q18 0 19 -20v-52q0 -20 -19 -20h-849q-37 0 -37 37z" />
<glyph unicode="[" horiz-adv-x="686" d="M266 -326v1827q0 23 23 23h241q18 0 19 -21v-51q0 -20 -19 -20h-161v-1688h161q18 0 19 -20v-52q0 -20 -19 -20h-239q-25 0 -25 22z" />
<glyph unicode="\" horiz-adv-x="921" d="M209 1618q0 20 27 20h49q18 0 22 -22l428 -1749q6 -29 12.5 -51.5t6.5 -32.5q0 -16 -21 -16h-55q-16 0 -21 22l-438 1784q-4 12 -7 26.5t-3 18.5z" />
<glyph unicode="]" horiz-adv-x="684" d="M172 -276q0 20 18 20h162v1688h-162q-18 0 -18 20v51q0 20 18 21h242q23 0 23 -23v-1827q0 -23 -25 -22h-240q-18 0 -18 20v52z" />
<glyph unicode="^" horiz-adv-x="1261" d="M281 877q0 4 4 12l338 608q8 18 26 19h74q16 0 27 -19l337 -608q4 -8 5 -12q0 -16 -19 -17h-72q-23 0 -32 23l-281 530l-285 -530q-10 -23 -32 -23h-72q-18 0 -18 17z" />
<glyph unicode="_" horiz-adv-x="1228" d="M102 -330q4 25 27 25h975q23 0 22 -21v-49q0 -23 -22 -22h-975q-27 0 -27 22v45z" />
<glyph unicode="`" horiz-adv-x="585" d="M254 1505q2 10 16 11h80q10 0 16.5 -6.5t10.5 -16.5l149 -299q4 -8 2 -14t-16 -6h-47q-12 0 -17.5 1t-11.5 11l-178 307q-4 8 -4 12z" />
<glyph unicode="a" horiz-adv-x="1146" d="M133 244v346q0 102 30 180t82 130t123.5 78t155.5 26q98 0 181 -28t159 -71v68q0 18 21 18h57q20 0 21 -18v-955q0 -18 -21 -18h-57q-20 0 -21 18v396l-168 -262q-25 -39 -49 -70t-55 -51.5t-70 -31.5t-94 -11h-51q-111 0 -177.5 70.5t-66.5 185.5zM231 244 q0 -74 42 -122t114 -48h33q43 0 76.5 14t62.5 40t54.5 61.5t54.5 76.5l196 291v246q-80 51 -158.5 83t-170.5 32q-162 0 -233 -89.5t-71 -238.5v-346z" />
<glyph unicode="b" horiz-adv-x="1155" d="M188 25v1400q0 18 21 19h57q20 0 21 -19v-739l141 164q31 37 58.5 64.5t60.5 48t72.5 31t99.5 10.5h49q129 0 187.5 -68t58.5 -197v-340q0 -197 -106.5 -298t-278.5 -101h-414q-10 0 -18.5 6t-8.5 19zM287 86h305q166 0 244.5 70.5t78.5 242.5v320q0 102 -36.5 150.5 t-128.5 48.5h-33q-70 0 -116 -28t-103 -95l-211 -244v-465z" />
<glyph unicode="c" horiz-adv-x="1030" d="M147 373v211q0 215 100.5 317.5t284.5 102.5h60q90 0 152.5 -23t101.5 -61.5t56.5 -89t17.5 -105.5v-55q0 -18 -21 -19h-57q-20 0 -21 19v57q0 104 -58 147.5t-204 43.5q-160 0 -236.5 -75t-76.5 -259v-209q0 -150 57 -219.5t199 -69.5h364q18 0 19 -20v-46 q0 -20 -19 -20h-370q-172 0 -260.5 95t-88.5 278z" />
<glyph unicode="d" horiz-adv-x="1148" d="M133 244v346q0 102 30 180t82 130t123.5 78t155.5 26q98 0 181 -29t159 -72v522q0 18 21 19h57q20 0 21 -19v-1407q0 -18 -21 -18h-57q-20 0 -21 18v396l-168 -262q-25 -39 -49 -70t-55 -51.5t-70 -31.5t-94 -11h-51q-111 0 -177.5 70.5t-66.5 185.5zM231 244 q0 -74 42 -122t114 -48h33q43 0 76.5 14t62.5 40t54.5 61.5t54.5 76.5l196 291v248q-80 51 -158.5 82t-170.5 31q-162 0 -233 -89.5t-71 -238.5v-346z" />
<glyph unicode="e" horiz-adv-x="1083" d="M143 311v291q0 195 102.5 298.5t268.5 103.5h154q66 0 117 -19.5t85.5 -53.5t52 -78t17.5 -95v-74q0 -104 -58.5 -152.5t-181.5 -68.5l-458 -76v-65q0 -109 48 -172.5t165 -63.5h426q10 0 14 -7t4 -18v-41q0 -20 -18 -20h-439q-78 0 -134 23.5t-93 65.5t-54.5 99.5 t-17.5 122.5zM242 469l438 74q94 14 128 43.5t34 107.5v54q0 80 -42 125t-136 45h-129q-152 0 -222.5 -81t-70.5 -235v-133z" />
<glyph unicode="f" horiz-adv-x="716" d="M82 942v31q0 18 18 18h179v139q0 88 28.5 148.5t73.5 97.5t102.5 52.5t114.5 15.5h68q18 0 18 -21v-45q0 -20 -18 -20h-68q-47 0 -87 -11.5t-69.5 -38t-47 -70.5t-17.5 -110v-137h258q18 0 18 -20v-45q0 -20 -18 -21h-258v-1255q0 -18 -21 -19h-57q-20 0 -20 19v1255 l-179 17q-10 2 -14 5t-4 15z" />
<glyph unicode="g" horiz-adv-x="1146" d="M94 -162q0 88 42 140.5t143 87.5q-47 16 -61.5 53t-14.5 78q0 45 27.5 86t93.5 84q-74 25 -120 96.5t-46 175.5v49q0 80 28.5 139.5t77.5 98.5t115.5 58.5t142.5 19.5h43q51 0 104.5 -11.5t88.5 -29.5l211 51h45q23 0 22 -23v-53q0 -25 -22 -25l-172 -10 q33 -18 59.5 -74.5t26.5 -140.5v-49q0 -80 -29 -139.5t-78 -98.5t-114.5 -58t-141.5 -19h-43q-23 0 -49.5 2t-64.5 10q-53 -29 -82 -57.5t-29 -71.5q0 -35 20.5 -58.5t96.5 -27.5l325 -23q121 -8 191.5 -78.5t70.5 -185.5v-20q0 -123 -83.5 -195t-237.5 -72h-277 q-80 0 -138 20.5t-96 57.5t-56.5 86t-18.5 105v22zM190 -176q0 -88 54.5 -137t171.5 -49h252q117 0 179 46t62 144q0 31 -12 62.5t-36.5 58t-62.5 43t-87 20.5l-322 19q-104 -23 -151.5 -72t-47.5 -135zM252 651q0 -123 77 -182t214 -59q139 0 215 59t76 182v25 q0 123 -76 182.5t-215 59.5q-137 0 -214 -59.5t-77 -182.5v-25z" />
<glyph unicode="h" horiz-adv-x="1181" d="M168 18v1407q0 18 20 19h58q20 0 20 -19v-882l170 268q31 49 59.5 86t59.5 60.5t65.5 35t81.5 11.5h58q68 0 114 -24t73.5 -63.5t39.5 -92t12 -111.5v-695q0 -18 -20 -18h-57q-20 0 -21 18v695q0 37 -6 73.5t-23.5 65.5t-48 47.5t-82.5 18.5h-28q-70 0 -112 -39t-89 -113 l-246 -389v-359q0 -18 -20 -18h-58q-20 0 -20 18z" />
<glyph unicode="i" horiz-adv-x="593" d="M143 934v39q0 18 19 18h205q20 0 20 -20v-953q0 -18 -20 -18h-58q-20 0 -20 18v875l-127 20q-10 2 -14.5 5.5t-4.5 15.5zM264 1266v96q0 24 21 24h2h100q23 0 23 -24v-96q0 -25 -23 -25h-100q-23 0 -23 25z" />
<glyph unicode="j" horiz-adv-x="593" d="M0 -262q0 20 18 20h109q80 0 121 38t41 149v948l-127 20q-10 2 -14.5 5.5t-4.5 15.5v39q0 18 19 18h205q20 0 20 -20v-1026q0 -135 -58.5 -204t-201.5 -69h-109q-18 0 -18 21v45zM264 1266v96q0 24 21 24h2h100q23 0 23 -24v-96q0 -25 -23 -25h-100q-23 0 -23 25z" />
<glyph unicode="k" horiz-adv-x="1155" d="M164 18v1407q0 18 20 19h58q20 0 20 -19v-882l172 268q53 84 116.5 138.5t170.5 54.5h98q123 0 176.5 -56.5t53.5 -144.5v-90q0 -55 -12.5 -93t-38 -65t-64.5 -45t-94 -35l-144 -43l330 -405q6 -8 4 -17.5t-14 -9.5h-64q-12 0 -19 3t-18 17l-307 371q-4 4 -7 9.5t-5 15.5 q-2 4 -2 13v20v22q0 12 12 16l166 56q53 18 88 31.5t54.5 32t27.5 45t8 69.5v65q0 53 -27.5 92.5t-105.5 39.5h-76q-49 0 -83.5 -13.5t-64.5 -39t-56.5 -63.5t-57.5 -85l-217 -340v-359q0 -18 -20 -18h-58q-20 0 -20 18z" />
<glyph unicode="l" horiz-adv-x="593" d="M164 252v1173q0 18 20 19h58q20 0 20 -19v-1171q0 -90 34 -129t105 -39h109q18 0 18 -20v-46q0 -20 -18 -20h-109q-117 0 -177 58.5t-60 193.5z" />
<glyph unicode="m" horiz-adv-x="1792" d="M188 18v955q0 18 21 18h57q20 0 21 -18v-389l149 227q33 49 57.5 85t51 60.5t58.5 36t79 11.5h57q109 0 164 -76t55 -195v-168l148 246q31 51 55.5 87t52 59.5t59.5 35t79 11.5h57q109 0 164 -76t55 -195v-715q0 -18 -20 -18h-58q-20 0 -20 18v715q0 74 -33 129.5 t-106 55.5h-29q-33 0 -56.5 -10.5t-43 -29t-39 -47t-41.5 -65.5l-224 -367v-381q0 -18 -20 -18h-57q-20 0 -21 18v715q0 74 -32.5 129.5t-106.5 55.5h-29q-59 0 -96 -39t-84 -113l-225 -348v-400q0 -18 -21 -18h-57q-20 0 -21 18z" />
<glyph unicode="n" horiz-adv-x="1163" d="M168 18v955q0 18 20 18h58q20 0 20 -18v-430l170 268q31 49 59.5 86t59.5 60.5t65.5 35t81.5 11.5h58q68 0 114 -24t73.5 -63.5t39.5 -92t12 -111.5v-695q0 -18 -20 -18h-57q-20 0 -21 18v695q0 37 -6 73.5t-23.5 65.5t-48 47.5t-82.5 18.5h-28q-70 0 -112 -39t-89 -113 l-246 -389v-359q0 -18 -20 -18h-58q-20 0 -20 18z" />
<glyph unicode="o" horiz-adv-x="1114" d="M143 358v275q0 92 29 161.5t80 115.5t119.5 70t148.5 24h74q80 0 148.5 -24t119.5 -70t80 -115.5t29 -161.5v-275q0 -92 -28 -161.5t-78 -115.5t-119.5 -69.5t-151.5 -23.5h-74q-82 0 -151.5 23.5t-119.5 69.5t-78 115.5t-28 161.5zM242 358q0 -150 76.5 -217t238.5 -67 t238.5 67.5t76.5 216.5v275q0 82 -19 136t-59 87t-99.5 47.5t-137.5 14.5q-158 0 -236.5 -61.5t-78.5 -223.5v-275z" />
<glyph unicode="p" horiz-adv-x="1157" d="M168 -348v1321q0 18 20 18h58q20 0 20 -18v-287l142 164q31 37 58.5 64.5t60 48t72.5 31t99 10.5h50q129 0 187 -68t58 -197v-340q0 -197 -106.5 -298t-278.5 -101h-342v-348q0 -18 -20 -19h-58q-20 0 -20 19zM266 86h305q166 0 245 70.5t79 242.5v320q0 102 -37 150.5 t-129 48.5h-33q-70 0 -115.5 -28t-103.5 -95l-211 -244v-465z" />
<glyph unicode="q" horiz-adv-x="1128" d="M113 244v346q0 102 29.5 180t81.5 130t124 78t156 26q98 0 181 -29t159 -72v70q0 18 20 18h58q20 0 20 -18v-1321q0 -18 -20 -19h-58q-20 0 -20 19v762l-168 -262q-25 -39 -49.5 -70t-55 -51.5t-69.5 -31.5t-94 -11h-52q-111 0 -177 70.5t-66 185.5zM211 244 q0 -74 42 -122t114 -48h32q43 0 77 14t62.5 40t54 61.5t54.5 76.5l197 291v248q-80 51 -159 82t-171 31q-162 0 -232.5 -89.5t-70.5 -238.5v-346z" />
<glyph unicode="r" horiz-adv-x="931" d="M168 18v955q0 18 20 18h58q20 0 20 -18v-328l150 227q25 37 46 63t45.5 41t53.5 21.5t68 6.5h45q76 0 124 -39t48 -117v-135q0 -18 -21 -19h-57q-20 0 -20 19v137q0 33 -24 50.5t-52 17.5h-29q-59 0 -87 -19.5t-60 -71.5l-230 -348v-461q0 -18 -20 -18h-58q-20 0 -20 18z " />
<glyph unicode="s" horiz-adv-x="942" d="M92 709v55q0 111 75 169t208 58h397q18 0 19 -20v-51q0 -20 -19 -21h-399q-98 0 -140.5 -41t-42.5 -115q0 -70 27 -107.5t113 -53.5l237 -47q145 -29 209 -86.5t64 -167.5v-41q0 -104 -76 -172t-209 -68h-430q-18 0 -19 20v52q0 20 19 20h426q92 0 141 44t49 122 q0 49 -12 81t-37.5 52.5t-65.5 32.5t-96 22l-217 39q-221 39 -221 224z" />
<glyph unicode="t" horiz-adv-x="706" d="M41 926v47q0 18 16 18h181v183q0 18 16 22l61 18q5 1 8 1q12 0 13 -15v-209h285q14 0 14 -10q0 -4 -2 -10l-17 -51q-6 -14 -20 -15h-260v-651q0 -90 33.5 -129t105.5 -39h129q18 0 19 -20v-46q0 -20 -19 -20h-129q-117 0 -177 58.5t-60 193.5v653h-181q-16 0 -16 21z" />
<glyph unicode="u" horiz-adv-x="1179" d="M164 279v694q0 18 20 18h58q20 0 20 -18v-694q0 -37 6 -74t23.5 -65.5t48.5 -47t82 -18.5h29q70 0 111.5 39t88.5 112l246 389v359q0 18 21 18h57q20 0 20 -18v-955q0 -18 -20 -18h-57q-20 0 -21 18v431l-170 -269q-31 -49 -59.5 -86t-59 -60.5t-66.5 -34.5t-81 -11h-58 q-68 0 -113.5 23.5t-73.5 63.5t-40 92t-12 112z" />
<glyph unicode="v" horiz-adv-x="1099" d="M123 807v166q0 18 22 18h54q23 0 22 -22v-162q0 -90 13.5 -170t39 -155.5t62.5 -150.5t84 -157q20 -35 36.5 -55.5t30 -30.5t25.5 -13t23 -3h10q10 0 22.5 2t25.5 12t29.5 30.5t36.5 55.5q47 82 84 158t62.5 151.5t39 155.5t13.5 170v162q0 22 21 22h2h53q23 0 22 -18 v-166q0 -41 -5 -109.5t-25.5 -157.5t-63.5 -193.5t-117 -217.5q-35 -51 -58 -80t-42.5 -42t-37 -16t-38.5 -3h-61q-20 0 -37.5 3t-36 16t-43 42t-57.5 80q-74 113 -116 217.5t-63.5 193.5t-26.5 157.5t-5 109.5z" />
<glyph unicode="w" horiz-adv-x="1609" d="M123 807v166q0 18 22 18h54q23 0 22 -22v-162q0 -111 10.5 -199t32 -163.5t52 -142t71.5 -136.5q20 -35 38.5 -54.5t33 -28.5t25 -10t14.5 -1h10q14 0 42 13t66 79q37 63 61.5 119.5t40 116t21.5 125t6 145.5v303q0 18 23 18h53q23 0 23 -18v-301q0 -80 6 -145.5 t21.5 -125t40 -117t61.5 -118.5q20 -35 36.5 -54.5t30 -28.5t23.5 -10t18 -1h11q18 0 44.5 13t65.5 79q39 70 71 137.5t52.5 143t31.5 163.5t11 199v162q0 22 21 22h2h53q23 0 22 -18v-166q0 -37 -3 -110.5t-20.5 -166t-53 -197t-101.5 -204.5q-35 -51 -60.5 -80t-48 -42 t-43 -16t-40.5 -3h-41q-41 0 -83 33.5t-83 107.5q-29 49 -53.5 103.5t-40.5 113.5q-18 -59 -44 -114.5t-51 -102.5q-39 -76 -83 -108.5t-85 -32.5h-40q-20 0 -40 3t-42.5 16t-49 42t-59.5 80q-66 100 -101.5 204.5t-52 197t-20.5 166t-4 110.5z" />
<glyph unicode="x" horiz-adv-x="976" d="M47 9q-1 3 -1 5q0 7 5 13l344 477l-329 461q-2 4 -4.5 6t-2.5 6q0 14 17 14h90q10 0 15 -4t9 -12l267 -389l268 383q8 12 12 17t21 5h82q16 0 16 -12q0 -6 -8 -18l-330 -461l342 -473q4 -6 4 -13v-4q-2 -10 -14 -10h-80q-16 0 -25.5 8t-17.5 21l-270 395l-277 -395 q-8 -12 -15 -20.5t-24 -8.5h-80q-12 0 -14 9z" />
<glyph unicode="y" horiz-adv-x="1179" d="M164 279v694q0 18 20 18h58q20 0 20 -18v-694q0 -37 6 -74t23.5 -65.5t48.5 -47t82 -18.5h29q70 0 111.5 39t88.5 112l246 389v359q0 18 21 18h57q20 0 20 -18v-946q0 -88 -20.5 -161t-68.5 -125t-124.5 -81t-189.5 -29h-348q-18 0 -19 21v45q0 20 19 20h348 q164 0 234.5 78t70.5 232v422l-170 -269q-31 -49 -59.5 -86t-59 -60.5t-66.5 -34.5t-81 -11h-58q-68 0 -113.5 23.5t-73.5 63.5t-40 92t-12 112z" />
<glyph unicode="z" horiz-adv-x="925" d="M92 25v36q0 25 23 58l581 780h-581q-18 0 -19 21v51q0 20 19 20h669q10 0 18.5 -5t8.5 -19v-37q0 -25 -23 -58l-581 -780h588q18 0 18 -20v-52q0 -20 -18 -20h-676q-10 0 -18.5 5t-8.5 20z" />
<glyph unicode="{" horiz-adv-x="800" d="M141 598l121 143q14 16 14 39v404q0 76 16.5 139t55.5 107.5t100.5 69t153.5 24.5h53q18 0 19 -25v-47q0 -23 -19 -22h-63q-104 0 -158.5 -58.5t-54.5 -187.5v-441q0 -20 -14 -38l-111 -130l108 -114q10 -10 13.5 -16.5t3.5 -22.5v-393q0 -147 51 -217t162 -70h63 q18 0 19 -18v-54q0 -23 -17 -22h-55q-88 0 -149.5 26.5t-100.5 75.5t-57.5 120t-18.5 157v370q0 25 -12 37l-121 137q-12 12 -2 27z" />
<glyph unicode="|" horiz-adv-x="622" d="M289 -213v1827q0 25 22 24h58q23 0 22 -24v-1827q0 -23 -22 -23h-58q-23 0 -22 23z" />
<glyph unicode="}" horiz-adv-x="821" d="M111 -276q0 18 18 18h64q111 0 162 69.5t51 217.5v393q0 16 3 22.5t13 16.5l108 114l-110 130q-14 18 -14 38v441q0 129 -54.5 187.5t-158.5 58.5h-64q-18 0 -18 22v47q0 25 18 25h53q92 0 153.5 -24.5t100.5 -69t55.5 -107.5t16.5 -139v-404q0 -23 14 -39l121 -143 q10 -14 -2 -27l-121 -137q-12 -12 -12 -37v-370q0 -174 -76 -276.5t-250 -102.5h-55q-16 0 -16 22v54z" />
<glyph unicode="~" horiz-adv-x="1097" d="M250 668v45q0 16 5 22t13 10q31 20 68 33t76 13q53 0 95 -7.5t97 -27.5q53 -18 98.5 -39t92.5 -21q39 0 67.5 11.5t61.5 25.5q4 2 9 4t9 2q16 0 16 -18v-41q0 -14 -5 -21.5t-13 -13.5q-25 -16 -62.5 -30.5t-89.5 -14.5q-51 0 -98 11.5t-90 29.5q-55 25 -102 39t-101 14 q-29 0 -46 -5t-48 -21q-12 -6 -20.5 -11.5t-16.5 -5.5q-16 0 -16 17z" />
<glyph unicode="&#xa1;" horiz-adv-x="669" d="M285 868v101q0 23 26 22h82q23 0 23 -22v-101q0 -25 -25 -24h-82q-25 0 -24 24zM299 -356v952q0 23 25 22h53q10 0 17 -6t7 -16v-952q0 -10 -7 -16.5t-17 -6.5h-53q-10 0 -17.5 6t-7.5 17z" />
<glyph unicode="&#xa2;" horiz-adv-x="1032" d="M127 373v211q0 106 28.5 184t82 130t127 79t165.5 27v213q0 23 23 22h53q8 0 15.5 -6t7.5 -16v-216q80 -4 135 -28.5t90 -62.5t50.5 -86t15.5 -99v-55q0 -18 -21 -19h-57q-20 0 -21 19v57q0 104 -58 149.5t-204 45.5q-160 0 -250 -77t-90 -261v-209q0 -150 70.5 -219.5 t212.5 -69.5h364q18 0 19 -20v-46q0 -20 -19 -20h-237v-266q0 -23 -23 -23h-53q-23 0 -23 23v266h-34q-172 0 -270.5 95t-98.5 278z" />
<glyph unicode="&#xa3;" horiz-adv-x="1271" d="M143 20v46q0 20 19 20h182v584h-182q-18 0 -19 20v45q0 20 19 21h182v180q0 229 109.5 348t351.5 119h268q18 0 19 -21v-47q0 -20 -19 -20h-272q-190 0 -272.5 -91t-82.5 -288v-180h420q18 0 19 -21v-45q0 -20 -19 -20h-420v-584h627q18 0 19 -20v-46q0 -20 -19 -20h-911 q-18 0 -19 20z" />
<glyph unicode="&#xa4;" horiz-adv-x="1468" d="M172 236q0 6 8 12l123 125q-47 66 -73.5 146.5t-26.5 174.5q0 92 26.5 174t73.5 148l-123 125q-8 6 -8 12q0 10 4 12l51 54q8 6 15 6q6 0 12 -6l121 -123q72 63 162 98t198 35q98 0 183.5 -30t152.5 -83l123 123q2 6 10 6q6 0 17 -6l51 -53q4 -4 4 -12q0 -6 -8 -13 l-119 -121q57 -70 89 -156.5t32 -189.5q0 -94 -28 -176t-75 -147l121 -123q8 -6 8 -12q0 -8 -4 -13l-51 -53q-10 -6 -16 -6q-8 0 -11 6l-122 119q-70 -59 -161 -93t-196 -34q-109 0 -199 33.5t-161 95.5l-121 -121q-6 -6 -12 -6t-15 6l-51 53q-4 2 -4 13zM297 694 q0 -96 31.5 -178t89 -141.5t137.5 -93t176 -33.5t176 33.5t138.5 93t90 141.5t31.5 178t-31.5 177t-90 140.5t-138.5 93.5t-176 34t-176 -34t-137.5 -93.5t-89 -140t-31.5 -177.5z" />
<glyph unicode="&#xa5;" horiz-adv-x="1171" d="M37 1384q0 18 26 19h62q14 0 20.5 -6t12.5 -17l403 -749l400 749q6 10 12 16.5t20 6.5h62q27 0 26 -19q0 -8 -6 -20l-416 -743h218q23 0 22 -23v-41q0 -23 -22 -22h-267v-3v-210h267q23 0 22 -23v-41q0 -23 -22 -22h-267v-218q0 -18 -20 -18h-62q-20 0 -20 18v218h-281 q-23 0 -22 22v41q0 23 22 23h281v210l-2 3h-279q-23 0 -22 22v41q0 23 22 23h232l-416 743q-6 12 -6 20z" />
<glyph unicode="&#xa6;" horiz-adv-x="622" d="M260 23v671q0 25 25 25h55q23 0 22 -25v-671q0 -23 -22 -23h-55q-25 0 -25 23zM260 995v672q0 25 25 25h55q23 0 22 -25v-672q0 -23 -22 -22h-55q-25 0 -25 22z" />
<glyph unicode="&#xa7;" horiz-adv-x="1146" d="M121 625v37q0 86 36 138t79 89q-39 18 -77 66.5t-38 127.5v50q0 137 82 203.5t233 66.5h441q18 0 18 -21v-47q0 -20 -18 -20h-437q-111 0 -162 -48t-51 -134v-35q0 -45 13.5 -76t45 -55.5t86 -47t134.5 -49.5l186 -61q143 -47 213 -122t70 -195v-39q0 -78 -34 -126 t-79 -87q47 -29 80 -77t33 -138v-35q-2 -141 -90 -202.5t-230 -61.5h-436q-18 0 -18 20v47q0 20 18 21h416q115 0 176 43t61 139v37q0 84 -65.5 134t-206.5 93l-197 59q-145 45 -213.5 116t-68.5 190zM223 631q0 -49 16.5 -83t46 -59.5t70.5 -44t90 -34.5l195 -64 q49 -16 85 -31.5t54 -21.5q29 23 60.5 68t31.5 100v31q0 90 -52 138t-173 89l-196 67q-10 2 -29 9.5t-39.5 14.5t-39.5 13t-28 11q-39 -29 -65.5 -76t-26.5 -96v-31z" />
<glyph unicode="&#xa8;" horiz-adv-x="956" d="M152 1266v157q0 25 26 25h160q20 0 20 -25v-157q0 -25 -22 -25h-160q-25 0 -24 25zM592 1266v157q0 25 26 25h160q20 0 21 -25v-157q0 -25 -23 -25h-160q-25 0 -24 25z" />
<glyph unicode="&#xa9;" horiz-adv-x="1724" d="M117 494v307q0 125 38 229.5t114.5 180t191 117.5t268.5 42h232q154 0 268 -42t191 -117.5t115 -180t38 -229.5v-307q0 -125 -38 -229.5t-115 -180.5t-191.5 -118t-267.5 -42h-232q-154 0 -268.5 42t-191 118t-114.5 180.5t-38 229.5zM219 494q0 -104 31 -191.5 t93.5 -151t158.5 -99.5t227 -36h232q131 0 227 36t158.5 99.5t93 150.5t30.5 192v307q0 109 -31.5 196.5t-94 150t-158.5 96.5t-225 34h-232q-129 0 -225 -34t-158.5 -96.5t-94.5 -150.5t-32 -196v-307zM471 532v207q0 166 82 254t272 88h64q86 0 148.5 -19.5t102.5 -52 t59.5 -77.5t19.5 -94v-52q0 -23 -23 -22h-72q-23 0 -22 22v35q0 80 -55.5 122t-196.5 42q-80 0 -131 -15.5t-80 -46t-40 -76.5t-11 -108v-207q0 -45 11 -82.5t40 -65.5t80 -44t131 -16q145 0 198.5 50t53.5 136v12q0 25 22 25h70q25 0 25 -25v-12q0 -125 -81 -203t-255 -78 h-66q-172 0 -259 85t-87 218z" />
<glyph unicode="&#xaa;" horiz-adv-x="1157" d="M158 872v234q0 92 26.5 158.5t73.5 109.5t112.5 62.5t145.5 19.5q94 0 175 -24.5t130 -51.5v41q0 23 21 23h53q25 0 25 -23v-796q0 -23 -23 -23h-53q-23 0 -23 23v241l-106 -157q-49 -59 -101.5 -89t-146.5 -30h-66q-109 0 -176 72.5t-67 209.5zM182 25v57q0 25 25 24 h729q27 0 27 -24v-59q0 -23 -27 -23h-729q-25 0 -25 25zM254 885q0 -211 164 -211h41q66 0 109.5 24.5t84.5 73.5l168 232v284q-23 14 -49.5 28.5t-61 27t-80.5 20.5t-108 8q-127 0 -197.5 -62.5t-70.5 -203.5v-221z" />
<glyph unicode="&#xab;" horiz-adv-x="1236" d="M180 580v45q2 20 17 30l370 363q8 4 13 4q20 0 20 -25v-73q0 -16 -6 -24.5t-16 -16.5l-304 -281l304 -299q10 -10 16 -18.5t6 -26.5v-59q0 -10 -7 -16.5t-15 -6.5t-13 4l-368 367q-16 16 -17 33zM573 580v45q2 20 17 30l371 363q8 4 12 4q20 0 20 -25v-73q0 -16 -6 -24.5 t-16 -16.5l-303 -281l303 -299q10 -10 16 -18.5t6 -26.5v-59q0 -10 -7 -16.5t-15 -6.5t-13 4l-368 367q-16 16 -17 33z" />
<glyph unicode="&#xac;" horiz-adv-x="1228" d="M297 711v55q0 23 25 22h692q25 0 24 -22v-375q0 -25 -24 -24h-53q-25 0 -25 24v295h-614q-25 0 -25 25z" />
<glyph unicode="&#xad;" horiz-adv-x="888" d="M174 551v53q0 25 25 25h487q25 0 25 -25v-53q0 -25 -25 -25h-487q-25 0 -25 25z" />
<glyph unicode="&#xae;" horiz-adv-x="1724" d="M117 494v307q0 125 38 229.5t114.5 180t191 117.5t268.5 42h232q154 0 268 -42t191 -117.5t115 -180t38 -229.5v-307q0 -125 -38 -229.5t-115 -180.5t-191.5 -118t-267.5 -42h-232q-154 0 -268.5 42t-191 118t-114.5 180.5t-38 229.5zM219 494q0 -104 31 -191.5 t93.5 -151t158.5 -99.5t227 -36h232q131 0 227 36t158.5 99.5t93 150.5t30.5 192v307q0 109 -31.5 196.5t-94 150t-158.5 96.5t-225 34h-232q-129 0 -225 -34t-158.5 -96.5t-94.5 -150.5t-32 -196v-307zM549 252v805q0 25 22 24h361q139 0 205.5 -65.5t66.5 -161.5v-57 q0 -82 -50 -143.5t-136 -78.5l170 -317q4 -8 4 -10q0 -18 -25 -19h-67q-10 0 -15.5 7.5t-9.5 15.5l-153 303h-275v-303q0 -23 -22 -23h-54q-23 0 -22 23zM647 647h266q86 0 140.5 40t54.5 118v24q0 74 -45 117t-137 43h-279v-342z" />
<glyph unicode="&#xaf;" horiz-adv-x="907" d="M143 1354v55q0 25 27 25h573q20 0 21 -25v-55q0 -23 -23 -23h-573q-25 0 -25 23z" />
<glyph unicode="&#xb0;" horiz-adv-x="1003" d="M102 1053v53q0 74 22.5 137.5t69 110.5t113 73.5t156.5 26.5h78q88 0 155.5 -26.5t113.5 -73.5t68.5 -110.5t22.5 -137.5v-53q0 -74 -22.5 -137.5t-68.5 -110.5t-113.5 -73.5t-155.5 -26.5h-78q-90 0 -156.5 26.5t-113 73.5t-69 110.5t-22.5 137.5zM215 1057 q0 -121 64.5 -186.5t222.5 -65.5t222 65.5t64 186.5v45q0 121 -64.5 186.5t-221.5 65.5q-158 0 -222.5 -65.5t-64.5 -186.5v-45z" />
<glyph unicode="&#xb1;" horiz-adv-x="1228" d="M295 25v55q0 23 24 22h693q25 0 24 -22v-55q0 -25 -22 -25h-692q-27 0 -27 25zM295 651v51q0 23 24 23h295v283q0 25 25 24h53q25 0 25 -24v-283h295q25 0 24 -23v-51q0 -25 -24 -24h-295v-277q0 -25 -25 -24h-53q-25 0 -25 24v277h-295q-25 0 -24 24z" />
<glyph unicode="&#xb2;" horiz-adv-x="866" d="M131 907v105q0 113 45 173t139 93l162 57q94 33 127 69t33 101v37q0 53 -37 86t-131 33h-276q-16 0 -17 16v52q0 18 17 18h282q123 0 182.5 -51t69.5 -137q2 -10 2 -32v-30q0 -96 -58.5 -149.5t-162.5 -90.5l-141 -51q-41 -14 -68 -28.5t-44 -36t-24.5 -52t-7.5 -75.5 v-49h492q16 0 16 -17v-53q-2 -16 -16 -16h-559q-16 0 -20.5 6t-4.5 22z" />
<glyph unicode="&#xb3;" horiz-adv-x="819" d="M131 895v51q0 18 16 19h267q96 0 140 36.5t44 108.5v29q0 66 -38 102.5t-150 36.5h-183q-10 0 -12 4t-4 12v54q0 18 16 18h179q92 0 137 36t45 97v25q0 68 -39 102.5t-135 34.5h-267q-16 0 -16 16v52q0 18 16 18h273q129 0 192.5 -49t63.5 -158v-51q0 -70 -43 -110 t-90 -54q53 -12 98 -55t45 -113v-47q0 -106 -67.5 -168.5t-206.5 -62.5h-267q-14 0 -14 16z" />
<glyph unicode="&#xb4;" horiz-adv-x="591" d="M156 1180q-2 6 2 14l149 299q10 23 27 23h80q14 0 16 -11q0 -4 -4 -12l-178 -307q-6 -10 -11.5 -11t-17.5 -1h-47q-14 0 -16 6z" />
<glyph unicode="&#xb5;" horiz-adv-x="1142" d="M152 -348v1321q0 18 20 18h57q20 0 21 -18v-633q0 -139 46 -202.5t134 -63.5h29q70 0 113.5 38t86.5 113l226 389v359q0 18 20 18h58q20 0 20 -18v-955q0 -18 -20 -18h-58q-20 0 -20 18v431l-150 -269q-57 -102 -115.5 -147t-150.5 -45h-57q-70 0 -104 18.5t-58 48.5 v-403q0 -18 -21 -19h-57q-20 0 -20 19z" />
<glyph unicode="&#xb6;" horiz-adv-x="1411" d="M154 877v176q0 166 92 258t303 92h248q23 0 22 -23v-1357q0 -23 -20 -23h-60q-23 0 -22 23v522h-213q-84 0 -149.5 25.5t-109.5 69.5t-67.5 104.5t-23.5 132.5zM256 877q0 -106 63.5 -173t200.5 -67h197v674h-152q-147 0 -228 -55.5t-81 -202.5v-176zM1036 23v1355 q0 25 23 25h57q23 0 23 -25v-1355q0 -23 -21 -23h-59q-23 0 -23 23z" />
<glyph unicode="&#xb7;" horiz-adv-x="1228" d="M475 565v80q0 43 30 73t73 30h67q43 0 73 -30t30 -73v-80q0 -43 -30 -72.5t-73 -29.5h-67q-43 0 -73 29.5t-30 72.5z" />
<glyph unicode="&#xb8;" horiz-adv-x="581" d="M104 -416q0 23 23 23h127q139 0 139 119q0 61 -30.5 88.5t-92.5 27.5h-129q-29 0 -28 29v23q0 16 7 25t17 18l121 88h127l-156 -105h52q94 0 147 -47t53 -133v-21q0 -88 -55 -138t-172 -50h-127q-23 0 -23 23v30z" />
<glyph unicode="&#xb9;" horiz-adv-x="491" d="M74 1688v41q0 18 18 18h201q10 0 16 -7t6 -14v-829q0 -18 -18 -18h-57q-16 0 -17 18v772h-129q-20 0 -20 19z" />
<glyph unicode="&#xba;" horiz-adv-x="1134" d="M182 25v57q0 25 25 24h698q27 0 27 -24v-59q0 -23 -27 -23h-698q-25 0 -25 25zM184 922v192q2 154 89 242t253 88h62q166 0 253 -88t89 -242v-192q-2 -154 -89 -242t-253 -88h-62q-166 0 -254 88t-88 242zM283 934q0 -55 13 -101.5t44 -79t84 -51t133 -18.5t133 18.5 t84 51t44 79t13 101.5v168q0 55 -13 101t-44 79t-84 51.5t-133 18.5t-133 -18.5t-84 -51.5t-44 -79t-13 -101v-168z" />
<glyph unicode="&#xbb;" horiz-adv-x="1236" d="M219 201v73q0 16 6 24.5t17 16.5l303 281l-303 299q-10 10 -16.5 18.5t-6.5 26.5v59q0 10 7 16.5t16 6.5q8 0 12 -4l369 -367q16 -16 16 -33v-45q-2 -20 -16 -30l-371 -363q-8 -4 -12 -4q-20 0 -21 25zM612 201v73q0 16 6.5 24.5t16.5 16.5l303 281l-303 299 q-10 10 -16.5 18.5t-6.5 26.5v59q0 10 7.5 16.5t15.5 6.5t12 -4l369 -367q16 -16 16 -33v-45q-2 -20 -16 -30l-371 -363q-8 -4 -12 -4q-20 0 -21 25z" />
<glyph unicode="&#xbc;" horiz-adv-x="995" d="M135 -55q0 14 4 20l441 551l10 10t16 6h70q6 0 13 -6t7 -14v-549h140q20 0 20 -20v-47q-4 -18 -20 -19h-140v-184q0 -20 -20 -21h-55q-16 0 -17 19v186h-450q-18 0 -19 19v49zM135 688v39q0 23 23 23h673q10 0 17.5 -4.5t7.5 -14.5l2 -43q-4 -25 -24 -24h-674 q-25 0 -25 24zM254 -37h350v445zM299 1688v41q0 18 18 18h201q10 0 16.5 -7t6.5 -14v-829q0 -18 -19 -18h-57q-16 0 -16 18v772h-130q-20 0 -20 19z" />
<glyph unicode="&#xbd;" horiz-adv-x="1011" d="M135 688v39q0 23 23 23h673q10 0 17.5 -4.5t7.5 -14.5l2 -43q-4 -25 -24 -24h-674q-25 0 -25 24zM211 -188q0 113 45 173t139 93l162 57q94 33 127 69t33 101v37q0 53 -37 86t-131 33h-277q-16 0 -16 16v51q0 18 16 19h283q123 0 182.5 -51.5t69.5 -137.5q2 -10 2 -31.5 v-29.5q0 -96 -58.5 -149.5t-162.5 -90.5l-142 -51q-41 -14 -67.5 -28.5t-44 -36t-24.5 -52t-7 -75.5v-50h492q16 0 16 -16v-53q-2 -16 -16 -17h-559q-16 0 -20.5 6.5t-4.5 22.5v105zM322 1688v41q0 18 18 18h201q10 0 16 -7t6 -14v-829q0 -18 -18 -18h-58q-16 0 -16 18v772 h-129q-20 0 -20 19z" />
<glyph unicode="&#xbe;" horiz-adv-x="976" d="M135 -55q0 14 4 20l441 551l10 10t16 6h70q6 0 13 -6t7 -14v-549h140q20 0 20 -20v-47q-4 -18 -20 -19h-140v-184q0 -20 -20 -21h-55q-16 0 -17 19v186h-450q-18 0 -19 19v49zM135 688v39q0 23 23 23h673q10 0 17.5 -4.5t7.5 -14.5l2 -43q-4 -25 -24 -24h-674 q-25 0 -25 24zM240 895v51q0 18 16 19h266q96 0 140.5 36.5t44.5 108.5v29q0 66 -38 102.5t-151 36.5h-182q-10 0 -12 4t-5 12v54q0 18 17 18h178q92 0 137 36t45 97v25q0 68 -39 102.5t-135 34.5h-266q-16 0 -16 16v52q0 18 16 18h272q129 0 192.5 -49t63.5 -158v-51 q0 -70 -43 -110t-90 -54q53 -12 98.5 -55t45.5 -113v-47q0 -106 -68 -168.5t-207 -62.5h-266q-14 0 -14 16zM254 -37h350v445z" />
<glyph unicode="&#xbf;" horiz-adv-x="923" d="M145 -61q0 106 47.5 180t139.5 129l117 69q41 25 53 52.5t12 81.5v143q0 23 23 22h57q23 0 22 -22v-143q0 -55 -4 -90t-16 -57.5t-36.5 -40t-65.5 -42.5l-132 -76q-61 -29 -87.5 -78t-26.5 -128q0 -74 13 -119t45 -70.5t85 -35t131 -9.5h228q25 0 24 -24v-39 q0 -23 -24 -23h-238q-90 0 -158.5 16.5t-114.5 53.5t-70 98t-24 152zM500 877v88q0 25 22 24h84q23 0 23 -24v-88q0 -25 -23 -25h-84q-23 0 -22 25z" />
<glyph unicode="&#xc0;" horiz-adv-x="1288" d="M72 7q-4 7 0 18l489 1353q6 25 31 25h86q25 0 31 -25l489 -1353q4 -10 0 -17.5t-14 -7.5h-80q-16 0 -23 20l-129 373h-635l-129 -373q-6 -20 -22 -20h-80q-10 0 -14 7zM348 485h572l-285 826zM403 1917q2 10 17 10h80q10 0 16 -6t10 -16l150 -299q4 -8 2 -14.5t-16 -6.5 h-48q-12 0 -17 1t-11 11l-178 308q-4 8 -5 12z" />
<glyph unicode="&#xc1;" horiz-adv-x="1288" d="M72 7q-4 7 0 18l489 1353q6 25 31 25h86q25 0 31 -25l489 -1353q4 -10 0 -17.5t-14 -7.5h-80q-16 0 -23 20l-129 373h-635l-129 -373q-6 -20 -22 -20h-80q-10 0 -14 7zM348 485h572l-285 826zM588 1591q-2 6 2 15l149 299q10 23 27 22h80q14 0 16 -10q0 -4 -4 -12 l-178 -308q-6 -10 -11 -11t-18 -1h-47q-14 0 -16 6z" />
<glyph unicode="&#xc2;" horiz-adv-x="1288" d="M72 7q-4 7 0 18l489 1353q6 25 31 25h86q25 0 31 -25l489 -1353q4 -10 0 -17.5t-14 -7.5h-80q-16 0 -23 20l-129 373h-635l-129 -373q-6 -20 -22 -20h-80q-10 0 -14 7zM348 485h572l-285 826zM348.5 1594.5q-6.5 9.5 1.5 19.5l236 295q6 8 12 13t16 5h58q10 0 16 -5 t12 -13l242 -295q8 -10 2 -19.5t-18 -9.5h-66q-20 0 -35 23l-178 233l-180 -233q-14 -23 -35 -23h-67q-10 0 -16.5 9.5z" />
<glyph unicode="&#xc3;" horiz-adv-x="1288" d="M72 7q-4 7 0 18l489 1353q6 25 31 25h86q25 0 31 -25l489 -1353q4 -10 0 -17.5t-14 -7.5h-80q-16 0 -23 20l-129 373h-635l-129 -373q-6 -20 -22 -20h-80q-10 0 -14 7zM332 1718v47q0 16 5 21.5t11 11.5q25 16 59.5 30.5t73.5 14.5q61 0 103.5 -13t77 -28.5t66.5 -28 t75 -12.5q35 0 59.5 8.5t50.5 24.5q14 10 23 10q16 0 16 -18v-43q0 -23 -16 -35q-25 -18 -58.5 -31.5t-72.5 -13.5q-61 0 -104.5 12.5t-79 27.5t-68.5 28.5t-72 13.5t-63.5 -11.5t-61.5 -29.5q-4 -2 -10 -2q-14 0 -14 16zM348 485h572l-285 826z" />
<glyph unicode="&#xc4;" horiz-adv-x="1288" d="M72 7q-4 7 0 18l489 1353q6 25 31 25h86q25 0 31 -25l489 -1353q4 -10 0 -17.5t-14 -7.5h-80q-16 0 -23 20l-129 373h-635l-129 -373q-6 -20 -22 -20h-80q-10 0 -14 7zM348 485h572l-285 826zM350 1677v117q0 25 27 25h119q20 0 20 -25v-117q0 -25 -22 -24h-119 q-25 0 -25 24zM791 1677v117q0 25 26 25h119q20 0 20 -25v-117q0 -25 -22 -24h-119q-25 0 -24 24z" />
<glyph unicode="&#xc5;" horiz-adv-x="1288" d="M72 7q-4 7 0 18l489 1353q6 25 31 25h86q25 0 31 -25l489 -1353q4 -10 0 -17.5t-14 -7.5h-80q-16 0 -23 20l-129 373h-635l-129 -373q-6 -20 -22 -20h-80q-10 0 -14 7zM348 485h572l-285 826zM469 1724q0 109 64.5 163.5t162.5 54.5t163 -54.5t65 -163.5 q0 -102 -62.5 -157.5t-165.5 -55.5q-102 0 -164.5 55.5t-62.5 157.5zM571 1726q0 -59 36 -90.5t89 -31.5t89 31.5t36 90.5q0 53 -33.5 86t-91.5 33q-57 0 -91 -32.5t-34 -86.5z" />
<glyph unicode="&#xc6;" horiz-adv-x="2095" d="M127 12.5q-4 12.5 6 28.5l871 1331q10 14 18 22.5t22 8.5h844q18 0 19 -21v-51q0 -20 -19 -20h-712v-539h692q18 0 18 -20v-52q0 -20 -18 -20h-692v-588h712q18 0 19 -20v-52q0 -20 -19 -20h-790q-25 0 -25 23v350h-594l-227 -353q-6 -10 -11 -15t-16 -5h-78 q-16 0 -20 12.5zM539 465h534v829z" />
<glyph unicode="&#xc7;" horiz-adv-x="1269" d="M154 416v530q0 233 113.5 345t314.5 112h149q207 0 311.5 -93t104.5 -276v-65q0 -18 -21 -19h-61q-20 0 -21 19v65q0 78 -23.5 131.5t-65.5 85t-102 46t-134 14.5h-141q-170 0 -246 -92.5t-76 -272.5v-530q0 -158 83 -241t228 -83h520q18 0 19 -20v-52q0 -20 -19 -20 h-354l-119 -80h52q94 0 147 -47t53 -133v-21q0 -88 -55 -138t-172 -50h-127q-23 0 -23 23v30q0 23 23 23h127q139 0 139 119q0 61 -30.5 88.5t-92.5 27.5h-129q-29 0 -28 29v23q0 16 7 25t17 18l86 63h-39q-201 0 -308 101.5t-107 314.5z" />
<glyph unicode="&#xc8;" horiz-adv-x="1247" d="M213 23v1355q0 25 23 25h813q18 0 18 -21v-51q0 -20 -18 -20h-734v-539h713q18 0 19 -20v-52q0 -20 -19 -20h-713v-588h734q18 0 18 -20v-52q0 -20 -18 -20h-811q-20 0 -25 23zM403 1917q2 10 17 10h80q10 0 16 -6t10 -16l150 -299q4 -8 2 -14.5t-16 -6.5h-48 q-12 0 -17 1t-11 11l-178 308q-4 8 -5 12z" />
<glyph unicode="&#xc9;" horiz-adv-x="1247" d="M213 23v1355q0 25 23 25h813q18 0 18 -21v-51q0 -20 -18 -20h-734v-539h713q18 0 19 -20v-52q0 -20 -19 -20h-713v-588h734q18 0 18 -20v-52q0 -20 -18 -20h-811q-20 0 -25 23zM465 1591q-2 6 2 15l149 299q10 23 27 22h80q14 0 16 -10q0 -4 -4 -12l-178 -308 q-6 -10 -11 -11t-18 -1h-47q-14 0 -16 6z" />
<glyph unicode="&#xca;" horiz-adv-x="1247" d="M213 23v1355q0 25 23 25h813q18 0 18 -21v-51q0 -20 -18 -20h-734v-539h713q18 0 19 -20v-52q0 -20 -19 -20h-713v-588h734q18 0 18 -20v-52q0 -20 -18 -20h-811q-20 0 -25 23zM346 1594.5q-6 9.5 2 19.5l236 295q6 8 12 13t16 5h58q10 0 16 -5t12 -13l242 -295 q8 -10 2 -19.5t-18 -9.5h-66q-20 0 -35 23l-178 233l-180 -233q-14 -23 -35 -23h-68q-10 0 -16 9.5z" />
<glyph unicode="&#xcb;" horiz-adv-x="1247" d="M213 23v1355q0 25 23 25h813q18 0 18 -21v-51q0 -20 -18 -20h-734v-539h713q18 0 19 -20v-52q0 -20 -19 -20h-713v-588h734q18 0 18 -20v-52q0 -20 -18 -20h-811q-20 0 -25 23zM330 1677v117q0 25 26 25h119q20 0 21 -25v-117q0 -25 -23 -24h-119q-25 0 -24 24zM770 1677 v117q0 25 27 25h118q20 0 21 -25v-117q0 -25 -23 -24h-118q-25 0 -25 24z" />
<glyph unicode="&#xcc;" horiz-adv-x="577" d="M47 1917q2 10 16 10h80q10 0 16.5 -6t10.5 -16l149 -299q4 -8 2 -14.5t-16 -6.5h-47q-12 0 -17 1t-12 11l-178 308q-4 8 -4 12zM225 18v1366q0 18 21 19h61q20 0 21 -19v-1366q0 -18 -21 -18h-61q-20 0 -21 18z" />
<glyph unicode="&#xcd;" horiz-adv-x="577" d="M225 18v1366q0 18 21 19h61q20 0 21 -19v-1366q0 -18 -21 -18h-61q-20 0 -21 18zM233.5 1591q-2.5 6 2.5 15l149 299q10 23 27 22h80q14 0 16 -10q0 -4 -4 -12l-178 -308q-6 -10 -11.5 -11t-17.5 -1h-47q-14 0 -16.5 6z" />
<glyph unicode="&#xce;" horiz-adv-x="577" d="M0 1594.5q-6 9.5 2 19.5l236 295q6 8 12 13t16 5h58q10 0 16 -5t12 -13l242 -295q8 -10 2 -19.5t-18 -9.5h-66q-20 0 -35 23l-178 233l-180 -233q-14 -23 -35 -23h-68q-10 0 -16 9.5zM225 18v1366q0 18 21 19h61q20 0 21 -19v-1366q0 -18 -21 -18h-61q-20 0 -21 18z" />
<glyph unicode="&#xcf;" horiz-adv-x="577" d="M-27 1677v117q0 25 27 25h119q20 0 20 -25v-117q0 -25 -22 -24h-119q-25 0 -25 24zM225 18v1366q0 18 21 19h61q20 0 21 -19v-1366q0 -18 -21 -18h-61q-20 0 -21 18zM414 1677v117q0 25 26 25h119q20 0 21 -25v-117q0 -25 -23 -24h-119q-25 0 -24 24z" />
<glyph unicode="&#xd0;" horiz-adv-x="1396" d="M0 664v51q4 25 27 24h186v639q0 25 23 25h520q223 0 340.5 -119t117.5 -328v-467q0 -229 -124.5 -359t-372.5 -130h-479q-20 0 -25 23v618h-186q-27 0 -27 23zM315 92h404q193 0 293 98.5t100 296.5v469q0 176 -94 265.5t-275 89.5h-428v-572h201q20 0 21 -20v-55 q0 -23 -21 -23h-201v-549z" />
<glyph unicode="&#xd1;" horiz-adv-x="1439" d="M225 18v1366q0 18 21 19h59q12 0 17.5 -9.5t13.5 -19.5l670 -1012q20 -31 35.5 -55t28.5 -47.5t25.5 -49.5t28.5 -58q-2 55 -4 112q-2 49 -3 110.5t-1 121.5v888q0 18 21 19h61q20 0 21 -19v-1366q0 -18 -21 -18h-47q-25 0 -37 20l-674 1020q-27 39 -45 67t-31.5 50.5 t-25.5 43t-25 48.5q2 -76 6 -155q4 -68 6.5 -150t2.5 -160v-766q0 -18 -21 -18h-61q-20 0 -21 18zM408 1718v47q0 16 5 21.5t11 11.5q25 16 59.5 30.5t73.5 14.5q61 0 103 -13t77 -28.5t67 -28t75 -12.5q35 0 59.5 8.5t50.5 24.5q14 10 23 10q16 0 16 -18v-43q0 -23 -16 -35 q-25 -18 -58.5 -31.5t-72.5 -13.5q-61 0 -104.5 12.5t-79 27.5t-68.5 28.5t-72 13.5t-63.5 -11.5t-61.5 -29.5q-4 -2 -10 -2q-14 0 -14 16z" />
<glyph unicode="&#xd2;" horiz-adv-x="1388" d="M152 465v473q0 111 33.5 200t96 150.5t152.5 94t201 32.5h137q111 0 201 -32.5t152.5 -94t96 -150.5t33.5 -200v-473q0 -111 -33.5 -200t-96 -150.5t-152.5 -94t-201 -32.5h-137q-111 0 -201 32.5t-152.5 94t-96 150.5t-33.5 200zM254 465q0 -178 97.5 -281.5 t281.5 -103.5h141q184 0 281.5 103.5t97.5 281.5v473q0 178 -97.5 281.5t-281.5 103.5h-141q-184 0 -281.5 -103.5t-97.5 -281.5v-473zM453 1917q2 10 16 10h80q10 0 16 -6t10 -16l150 -299q4 -8 2 -14.5t-16 -6.5h-47q-12 0 -17.5 1t-11.5 11l-178 308q-4 8 -4 12z" />
<glyph unicode="&#xd3;" horiz-adv-x="1388" d="M152 465v473q0 111 33.5 200t96 150.5t152.5 94t201 32.5h137q111 0 201 -32.5t152.5 -94t96 -150.5t33.5 -200v-473q0 -111 -33.5 -200t-96 -150.5t-152.5 -94t-201 -32.5h-137q-111 0 -201 32.5t-152.5 94t-96 150.5t-33.5 200zM254 465q0 -178 97.5 -281.5 t281.5 -103.5h141q184 0 281.5 103.5t97.5 281.5v473q0 178 -97.5 281.5t-281.5 103.5h-141q-184 0 -281.5 -103.5t-97.5 -281.5v-473zM639 1591q-2 6 2 15l150 299q10 23 26 22h80q14 0 16 -10q0 -4 -4 -12l-178 -308q-6 -10 -11 -11t-18 -1h-47q-14 0 -16 6z" />
<glyph unicode="&#xd4;" horiz-adv-x="1388" d="M152 465v473q0 111 33.5 200t96 150.5t152.5 94t201 32.5h137q111 0 201 -32.5t152.5 -94t96 -150.5t33.5 -200v-473q0 -111 -33.5 -200t-96 -150.5t-152.5 -94t-201 -32.5h-137q-111 0 -201 32.5t-152.5 94t-96 150.5t-33.5 200zM254 465q0 -178 97.5 -281.5 t281.5 -103.5h141q184 0 281.5 103.5t97.5 281.5v473q0 178 -97.5 281.5t-281.5 103.5h-141q-184 0 -281.5 -103.5t-97.5 -281.5v-473zM416 1594.5q-6 9.5 2 19.5l235 295q6 8 12.5 13t16.5 5h57q10 0 16.5 -5t12.5 -13l242 -295q8 -10 2 -19.5t-19 -9.5h-65q-20 0 -35 23 l-178 233l-180 -233q-14 -23 -35 -23h-68q-10 0 -16 9.5z" />
<glyph unicode="&#xd5;" horiz-adv-x="1388" d="M152 465v473q0 111 33.5 200t96 150.5t152.5 94t201 32.5h137q111 0 201 -32.5t152.5 -94t96 -150.5t33.5 -200v-473q0 -111 -33.5 -200t-96 -150.5t-152.5 -94t-201 -32.5h-137q-111 0 -201 32.5t-152.5 94t-96 150.5t-33.5 200zM254 465q0 -178 97.5 -281.5 t281.5 -103.5h141q184 0 281.5 103.5t97.5 281.5v473q0 178 -97.5 281.5t-281.5 103.5h-141q-184 0 -281.5 -103.5t-97.5 -281.5v-473zM383 1718v47q0 16 5 21.5t11 11.5q25 16 60 30.5t73 14.5q61 0 103.5 -13t77.5 -28.5t66.5 -28t74.5 -12.5q35 0 59.5 8.5t51.5 24.5 q14 10 22 10q16 0 17 -18v-43q0 -23 -17 -35q-25 -18 -58.5 -31.5t-72.5 -13.5q-61 0 -104 12.5t-79 27.5t-69 28.5t-72 13.5t-63.5 -11.5t-60.5 -29.5q-4 -2 -11 -2q-14 0 -14 16z" />
<glyph unicode="&#xd6;" horiz-adv-x="1388" d="M152 465v473q0 111 33.5 200t96 150.5t152.5 94t201 32.5h137q111 0 201 -32.5t152.5 -94t96 -150.5t33.5 -200v-473q0 -111 -33.5 -200t-96 -150.5t-152.5 -94t-201 -32.5h-137q-111 0 -201 32.5t-152.5 94t-96 150.5t-33.5 200zM254 465q0 -178 97.5 -281.5 t281.5 -103.5h141q184 0 281.5 103.5t97.5 281.5v473q0 178 -97.5 281.5t-281.5 103.5h-141q-184 0 -281.5 -103.5t-97.5 -281.5v-473zM399 1677v117q0 25 27 25h119q20 0 20 -25v-117q0 -25 -22 -24h-119q-25 0 -25 24zM840 1677v117q0 25 26 25h119q20 0 21 -25v-117 q0 -25 -23 -24h-119q-25 0 -24 24z" />
<glyph unicode="&#xd7;" horiz-adv-x="1228" d="M259 430q-1 10 7 16l262 256l-260 256q-10 10 -7 18.5t11 16.5l33 35q16 16 33 0l262 -258l262 258q16 16 33 0l33 -35q8 -8 11 -16t-7 -19l-262 -256l264 -256q8 -6 7 -16t-7 -16l-35 -35q-18 -18 -35 0l-264 258l-264 -258q-18 -18 -35 0l-35 35q-6 6 -7 16z" />
<glyph unicode="&#xd8;" horiz-adv-x="1388" d="M152 465v473q0 111 33.5 200t96 150.5t152.5 94t201 32.5h137q35 0 68.5 -4t64.5 -10l74 203q8 23 25 22h65q10 0 12 -7t2 -15l-84 -234q123 -53 189.5 -162.5t66.5 -269.5v-473q0 -111 -33.5 -200t-96 -150.5t-152.5 -94t-201 -32.5h-137q-70 0 -127 12l-78 -215 q-8 -23 -24 -23h-62q-18 0 -18 15q0 4 2 8l86 244q-125 51 -193.5 162.5t-68.5 273.5zM254 465q0 -125 49 -214t143 -134l428 1196q-51 10 -100 10h-141q-184 0 -281.5 -103.5t-97.5 -281.5v-473zM539 88q23 -4 46 -6t48 -2h141q184 0 281.5 103.5t97.5 281.5v473 q0 123 -47 211t-139 133z" />
<glyph unicode="&#xd9;" horiz-adv-x="1382" d="M182 475v909q0 18 21 19h61q20 0 21 -19v-909q0 -203 93 -299t290 -96h63q197 0 290 96t93 299v909q0 18 21 19h61q20 0 21 -19v-909q0 -229 -119 -358t-357 -129h-84q-238 0 -356.5 129t-118.5 358zM471 1917q2 10 16 10h80q10 0 16.5 -6t10.5 -16l149 -299 q4 -8 2 -14.5t-16 -6.5h-47q-12 0 -17.5 1t-11.5 11l-178 308q-4 8 -4 12z" />
<glyph unicode="&#xda;" horiz-adv-x="1382" d="M182 475v909q0 18 21 19h61q20 0 21 -19v-909q0 -203 93 -299t290 -96h63q197 0 290 96t93 299v909q0 18 21 19h61q20 0 21 -19v-909q0 -229 -119 -358t-357 -129h-84q-238 0 -356.5 129t-118.5 358zM635 1591q-2 6 2 15l149 299q10 23 27 22h80q14 0 16 -10q0 -4 -4 -12 l-178 -308q-6 -10 -11 -11t-18 -1h-47q-14 0 -16 6z" />
<glyph unicode="&#xdb;" horiz-adv-x="1382" d="M182 475v909q0 18 21 19h61q20 0 21 -19v-909q0 -203 93 -299t290 -96h63q197 0 290 96t93 299v909q0 18 21 19h61q20 0 21 -19v-909q0 -229 -119 -358t-357 -129h-84q-238 0 -356.5 129t-118.5 358zM414 1594.5q-6 9.5 2 19.5l235 295q6 8 12.5 13t16.5 5h57 q10 0 16.5 -5t12.5 -13l242 -295q8 -10 2 -19.5t-19 -9.5h-65q-20 0 -35 23l-178 233l-181 -233q-14 -23 -34 -23h-68q-10 0 -16 9.5z" />
<glyph unicode="&#xdc;" horiz-adv-x="1382" d="M182 475v909q0 18 21 19h61q20 0 21 -19v-909q0 -203 93 -299t290 -96h63q197 0 290 96t93 299v909q0 18 21 19h61q20 0 21 -19v-909q0 -229 -119 -358t-357 -129h-84q-238 0 -356.5 129t-118.5 358zM397 1677v117q0 25 27 25h119q20 0 20 -25v-117q0 -25 -22 -24h-119 q-25 0 -25 24zM838 1677v117q0 25 26 25h119q20 0 21 -25v-117q0 -25 -23 -24h-119q-25 0 -24 24z" />
<glyph unicode="&#xdd;" horiz-adv-x="1089" d="M20 1384q0 18 27 19h62q14 0 20 -6t12 -17l404 -743l399 743q6 10 12.5 16.5t20.5 6.5h61q27 0 27 -19q0 -8 -6 -20l-465 -832v-514q0 -18 -21 -18h-61q-20 0 -20 18v514l-465 832q-6 12 -7 20zM414 1591q-2 6 2 15l149 299q10 23 27 22h80q14 0 16 -10q0 -4 -4 -12 l-178 -308q-6 -10 -11.5 -11t-17.5 -1h-47q-14 0 -16 6z" />
<glyph unicode="&#xde;" horiz-adv-x="1269" d="M217 18v1366q0 18 21 19h61q20 0 20 -19v-251h451q82 0 149.5 -23t116.5 -66t76 -106.5t27 -142.5v-154q0 -76 -24.5 -142.5t-76 -115.5t-127 -78t-178.5 -29h-414v-258q0 -18 -20 -18h-61q-20 0 -21 18zM319 369h408q147 0 228 63.5t81 202.5v160q0 109 -70.5 177 t-189.5 68h-457v-671z" />
<glyph unicode="&#xdf;" horiz-adv-x="1382" d="M279 18v1112q0 88 28.5 148.5t73.5 97.5t102.5 52.5t114.5 15.5h262q133 0 208 -58.5t75 -168.5v-56q0 -45 -10.5 -82t-37 -67.5t-72.5 -55t-116 -45.5q-55 -16 -94 -28.5t-65.5 -29.5t-39 -43t-12.5 -67q0 -70 27 -108.5t113 -56.5l178 -39q145 -31 208.5 -89.5 t63.5 -168.5v-41q0 -104 -75.5 -172t-209.5 -68h-370q-18 0 -19 20v52q0 20 19 20h366q92 0 141.5 44t49.5 122q0 49 -12.5 81t-38 53.5t-65.5 34.5t-95 24l-158 30q-221 43 -221 228v57q0 49 16.5 83t49 59.5t84 47t122.5 43.5q49 14 82 29.5t53.5 37t29.5 52.5t9 78 q0 74 -41.5 118t-140.5 44h-264q-47 0 -87 -11.5t-69.5 -38t-47 -70.5t-17.5 -110v-1110q0 -18 -21 -18h-57q-20 0 -20 18z" />
<glyph unicode="&#xe0;" horiz-adv-x="1146" d="M133 244v346q0 102 30 180t82 130t123.5 78t155.5 26q98 0 181 -28t159 -71v68q0 18 21 18h57q20 0 21 -18v-955q0 -18 -21 -18h-57q-20 0 -21 18v396l-168 -262q-25 -39 -49 -70t-55 -51.5t-70 -31.5t-94 -11h-51q-111 0 -177.5 70.5t-66.5 185.5zM231 244 q0 -74 42 -122t114 -48h33q43 0 76.5 14t62.5 40t54.5 61.5t54.5 76.5l196 291v246q-80 51 -158.5 83t-170.5 32q-162 0 -233 -89.5t-71 -238.5v-346zM283 1505q2 10 16 11h80q10 0 16 -6.5t11 -16.5l149 -299q4 -8 2 -14t-16 -6h-47q-12 0 -17.5 1t-11.5 11l-178 307 q-4 8 -4 12z" />
<glyph unicode="&#xe1;" horiz-adv-x="1146" d="M133 244v346q0 102 30 180t82 130t123.5 78t155.5 26q98 0 181 -28t159 -71v68q0 18 21 18h57q20 0 21 -18v-955q0 -18 -21 -18h-57q-20 0 -21 18v396l-168 -262q-25 -39 -49 -70t-55 -51.5t-70 -31.5t-94 -11h-51q-111 0 -177.5 70.5t-66.5 185.5zM231 244 q0 -74 42 -122t114 -48h33q43 0 76.5 14t62.5 40t54.5 61.5t54.5 76.5l196 291v246q-80 51 -158.5 83t-170.5 32q-162 0 -233 -89.5t-71 -238.5v-346zM477.5 1180q-2.5 6 1.5 14l150 299q10 23 26 23h80q14 0 17 -11q0 -4 -4 -12l-179 -307q-6 -10 -11 -11t-17 -1h-47 q-14 0 -16.5 6z" />
<glyph unicode="&#xe2;" horiz-adv-x="1146" d="M133 244v346q0 102 30 180t82 130t123.5 78t155.5 26q98 0 181 -28t159 -71v68q0 18 21 18h57q20 0 21 -18v-955q0 -18 -21 -18h-57q-20 0 -21 18v396l-168 -262q-25 -39 -49 -70t-55 -51.5t-70 -31.5t-94 -11h-51q-111 0 -177.5 70.5t-66.5 185.5zM231 244 q0 -74 42 -122t114 -48h33q43 0 76.5 14t62.5 40t54.5 61.5t54.5 76.5l196 291v246q-80 51 -158.5 83t-170.5 32q-162 0 -233 -89.5t-71 -238.5v-346zM233.5 1183q-6.5 9 2.5 19l235 295q6 8 12 13.5t17 5.5h57q10 0 16.5 -5.5t12.5 -13.5l241 -295q8 -10 2 -19t-18 -9h-66 q-20 0 -34 22l-179 234l-180 -234q-14 -23 -35 -22h-67q-10 0 -16.5 9z" />
<glyph unicode="&#xe3;" horiz-adv-x="1146" d="M133 244v346q0 102 30 180t82 130t123.5 78t155.5 26q98 0 181 -28t159 -71v68q0 18 21 18h57q20 0 21 -18v-955q0 -18 -21 -18h-57q-20 0 -21 18v396l-168 -262q-25 -39 -49 -70t-55 -51.5t-70 -31.5t-94 -11h-51q-111 0 -177.5 70.5t-66.5 185.5zM231 244 q0 -74 42 -122t114 -48h33q43 0 76.5 14t62.5 40t54.5 61.5t54.5 76.5l196 291v246q-80 51 -158.5 83t-170.5 32q-162 0 -233 -89.5t-71 -238.5v-346zM262 1307v47q0 16 5 21t12 11q25 16 59.5 31t73.5 15q61 0 103 -13.5t77 -29t66.5 -27.5t74.5 -12q35 0 59.5 8t51.5 24 q14 10 22 11q16 0 17 -19v-43q0 -23 -17 -35q-25 -18 -58.5 -31.5t-72.5 -13.5q-61 0 -104 12.5t-79 28t-68.5 28.5t-71.5 13t-63.5 -11t-61.5 -30q-4 -2 -11 -2q-14 0 -14 17z" />
<glyph unicode="&#xe4;" horiz-adv-x="1146" d="M133 244v346q0 102 30 180t82 130t123.5 78t155.5 26q98 0 181 -28t159 -71v68q0 18 21 18h57q20 0 21 -18v-955q0 -18 -21 -18h-57q-20 0 -21 18v396l-168 -262q-25 -39 -49 -70t-55 -51.5t-70 -31.5t-94 -11h-51q-111 0 -177.5 70.5t-66.5 185.5zM231 244 q0 -74 42 -122t114 -48h33q43 0 76.5 14t62.5 40t54.5 61.5t54.5 76.5l196 291v246q-80 51 -158.5 83t-170.5 32q-162 0 -233 -89.5t-71 -238.5v-346zM279 1266v116q0 25 26 25h119q20 0 20 -25v-116q0 -25 -22 -25h-119q-25 0 -24 25zM719 1266v116q0 25 26 25h119 q20 0 21 -25v-116q0 -25 -23 -25h-119q-25 0 -24 25z" />
<glyph unicode="&#xe5;" horiz-adv-x="1146" d="M133 244v346q0 102 30 180t82 130t123.5 78t155.5 26q98 0 181 -28t159 -71v68q0 18 21 18h57q20 0 21 -18v-955q0 -18 -21 -18h-57q-20 0 -21 18v396l-168 -262q-25 -39 -49 -70t-55 -51.5t-70 -31.5t-94 -11h-51q-111 0 -177.5 70.5t-66.5 185.5zM231 244 q0 -74 42 -122t114 -48h33q43 0 76.5 14t62.5 40t54.5 61.5t54.5 76.5l196 291v246q-80 51 -158.5 83t-170.5 32q-162 0 -233 -89.5t-71 -238.5v-346zM356 1313q0 109 64.5 163t163.5 54q98 0 162.5 -54t64.5 -163q0 -102 -62.5 -157.5t-164.5 -55.5t-165 55t-63 158z M459 1315q0 -59 35.5 -91t89.5 -32q53 0 89 32t36 91q0 53 -34 86t-91 33t-91 -33t-34 -86z" />
<glyph unicode="&#xe6;" horiz-adv-x="1726" d="M154 244v346q0 102 29.5 180t81.5 130t124 78t156 26q96 0 182 -27t191 -88q98 115 276 115h154q66 0 117 -19.5t85.5 -53.5t52 -78t17.5 -95v-74q0 -104 -58.5 -152.5t-181.5 -68.5l-458 -76v-65q0 -109 48 -172.5t165 -63.5h426q10 0 14 -7t4 -18v-41q0 -20 -18 -20 h-439q-78 0 -134 23.5t-93 65.5t-54.5 99.5t-17.5 122.5v6l-106 -165q-25 -39 -49.5 -70t-55 -51.5t-69.5 -31.5t-94 -11h-52q-111 0 -177 70.5t-66 185.5zM252 244q0 -74 42 -122t114 -48h32q43 0 77 14t62.5 40t54 61.5t54.5 76.5l135 199v137q0 123 43 213 q-76 47 -149.5 75t-161.5 28q-162 0 -232.5 -89.5t-70.5 -238.5v-346zM922 469l438 74q94 14 128 43.5t34 107.5v54q0 80 -42 125t-137 45h-129q-152 0 -222 -81t-70 -235v-133z" />
<glyph unicode="&#xe7;" horiz-adv-x="1030" d="M147 373v211q0 215 100.5 317.5t284.5 102.5h60q90 0 152.5 -23t101.5 -61.5t56.5 -89t17.5 -105.5v-55q0 -18 -21 -19h-57q-20 0 -21 19v57q0 104 -58 147.5t-204 43.5q-160 0 -236.5 -75t-76.5 -259v-209q0 -150 57 -219.5t199 -69.5h364q18 0 19 -20v-46 q0 -20 -19 -20h-233l-119 -80h51q94 0 147.5 -47t53.5 -133v-21q0 -88 -55.5 -138t-171.5 -50h-127q-23 0 -23 23v30q0 23 23 23h127q139 0 139 119q0 61 -31 88.5t-92 27.5h-129q-29 0 -29 29v23q0 16 7.5 25t17.5 18l86 63h-12q-172 0 -260.5 95t-88.5 278z" />
<glyph unicode="&#xe8;" horiz-adv-x="1083" d="M143 311v291q0 195 102.5 298.5t268.5 103.5h154q66 0 117 -19.5t85.5 -53.5t52 -78t17.5 -95v-74q0 -104 -58.5 -152.5t-181.5 -68.5l-458 -76v-65q0 -109 48 -172.5t165 -63.5h426q10 0 14 -7t4 -18v-41q0 -20 -18 -20h-439q-78 0 -134 23.5t-93 65.5t-54.5 99.5 t-17.5 122.5zM242 469l438 74q94 14 128 43.5t34 107.5v54q0 80 -42 125t-136 45h-129q-152 0 -222.5 -81t-70.5 -235v-133zM342 1505q2 10 16 11h80q10 0 16.5 -6.5t10.5 -16.5l149 -299q4 -8 2 -14t-16 -6h-47q-12 0 -17.5 1t-11.5 11l-178 307q-4 8 -4 12z" />
<glyph unicode="&#xe9;" horiz-adv-x="1083" d="M143 311v291q0 195 102.5 298.5t268.5 103.5h154q66 0 117 -19.5t85.5 -53.5t52 -78t17.5 -95v-74q0 -104 -58.5 -152.5t-181.5 -68.5l-458 -76v-65q0 -109 48 -172.5t165 -63.5h426q10 0 14 -7t4 -18v-41q0 -20 -18 -20h-439q-78 0 -134 23.5t-93 65.5t-54.5 99.5 t-17.5 122.5zM242 469l438 74q94 14 128 43.5t34 107.5v54q0 80 -42 125t-136 45h-129q-152 0 -222.5 -81t-70.5 -235v-133zM547 1180q-2 6 2 14l149 299q10 23 27 23h80q14 0 16 -11q0 -4 -4 -12l-178 -307q-6 -10 -11 -11t-18 -1h-47q-14 0 -16 6z" />
<glyph unicode="&#xea;" horiz-adv-x="1083" d="M143 311v291q0 195 102.5 298.5t268.5 103.5h154q66 0 117 -19.5t85.5 -53.5t52 -78t17.5 -95v-74q0 -104 -58.5 -152.5t-181.5 -68.5l-458 -76v-65q0 -109 48 -172.5t165 -63.5h426q10 0 14 -7t4 -18v-41q0 -20 -18 -20h-439q-78 0 -134 23.5t-93 65.5t-54.5 99.5 t-17.5 122.5zM242 469l438 74q94 14 128 43.5t34 107.5v54q0 80 -42 125t-136 45h-129q-152 0 -222.5 -81t-70.5 -235v-133zM305.5 1183q-6.5 9 1.5 19l236 295q6 8 12 13.5t16 5.5h58q10 0 16 -5.5t12 -13.5l242 -295q8 -10 2 -19t-18 -9h-66q-20 0 -35 22l-178 234 l-180 -234q-14 -23 -35 -22h-67q-10 0 -16.5 9z" />
<glyph unicode="&#xeb;" horiz-adv-x="1083" d="M143 311v291q0 195 102.5 298.5t268.5 103.5h154q66 0 117 -19.5t85.5 -53.5t52 -78t17.5 -95v-74q0 -104 -58.5 -152.5t-181.5 -68.5l-458 -76v-65q0 -109 48 -172.5t165 -63.5h426q10 0 14 -7t4 -18v-41q0 -20 -18 -20h-439q-78 0 -134 23.5t-93 65.5t-54.5 99.5 t-17.5 122.5zM242 469l438 74q94 14 128 43.5t34 107.5v54q0 80 -42 125t-136 45h-129q-152 0 -222.5 -81t-70.5 -235v-133zM248 1266v116q0 25 26 25h119q20 0 21 -25v-116q0 -25 -23 -25h-119q-25 0 -24 25zM688 1266v116q0 25 27 25h119q20 0 20 -25v-116q0 -25 -23 -25 h-118q-25 0 -25 25z" />
<glyph unicode="&#xec;" horiz-adv-x="591" d="M76 1505q2 10 16 11h80q10 0 16.5 -6.5t10.5 -16.5l149 -299q4 -8 2 -14t-16 -6h-47q-12 0 -17.5 1t-11.5 11l-178 307q-4 8 -4 12zM145 934v39q0 18 19 18h205q20 0 20 -20v-953q0 -18 -20 -18h-58q-20 0 -20 18v875l-127 20q-10 2 -14.5 5.5t-4.5 15.5z" />
<glyph unicode="&#xed;" horiz-adv-x="591" d="M145 934v39q0 18 19 18h205q20 0 20 -20v-953q0 -18 -20 -18h-58q-20 0 -20 18v875l-127 20q-10 2 -14.5 5.5t-4.5 15.5zM260 1180q-2 6 2 14l150 299q10 23 26 23h80q14 0 17 -11q0 -4 -5 -12l-178 -307q-6 -10 -11 -11t-17 -1h-48q-14 0 -16 6z" />
<glyph unicode="&#xee;" horiz-adv-x="591" d="M18.5 1183q-6.5 9 1.5 19l236 295q6 8 12 13.5t17 5.5h57q10 0 16.5 -5.5t12.5 -13.5l241 -295q8 -10 2 -19t-18 -9h-66q-20 0 -34 22l-179 234l-180 -234q-14 -23 -35 -22h-67q-10 0 -16.5 9zM145 934v39q0 18 19 18h205q20 0 20 -20v-953q0 -18 -20 -18h-58 q-20 0 -20 18v875l-127 20q-10 2 -14.5 5.5t-4.5 15.5z" />
<glyph unicode="&#xef;" horiz-adv-x="591" d="M2 1266v116q0 25 27 25h118q20 0 21 -25v-116q0 -25 -23 -25h-118q-25 0 -25 25zM145 934v39q0 18 19 18h205q20 0 20 -20v-953q0 -18 -20 -18h-58q-20 0 -20 18v875l-127 20q-10 2 -14.5 5.5t-4.5 15.5zM442 1266v116q0 25 27 25h119q20 0 20 -25v-116q0 -25 -22 -25 h-119q-25 0 -25 25z" />
<glyph unicode="&#xf0;" horiz-adv-x="1101" d="M125 346v252q0 88 32.5 155.5t88 113.5t127 70t151.5 24q55 0 106.5 -9.5t95.5 -23t78 -27.5t54 -24v30q0 152 -52 251t-165 147l-133 -187q-8 -10 -14.5 -13t-20.5 -3h-61q-16 0 -17 14q0 10 7.5 21.5t23.5 33.5l117 162q-61 12 -135 13h-103q-12 0 -16 7t-4 17v49 q0 25 20 25h105q102 0 196 -23l80 111q8 10 15.5 13t17.5 5h61q18 -4 19 -18q0 -6 -6 -12l-93 -129q129 -59 197 -176t68 -297v-510q0 -98 -28 -176t-79 -132.5t-121.5 -83t-156.5 -28.5h-80q-92 0 -163 30.5t-118 81t-70.5 115t-23.5 131.5zM231 356q0 -49 14.5 -97 t50.5 -87t96.5 -62.5t152.5 -23.5q82 0 140 25.5t97 69.5t57.5 103.5t18.5 129.5v354q-57 31 -143 62.5t-191 31.5q-82 0 -138 -21.5t-90 -59.5t-49.5 -89t-15.5 -110v-226z" />
<glyph unicode="&#xf1;" horiz-adv-x="1181" d="M168 18v955q0 18 20 18h58q20 0 20 -18v-430l170 268q31 49 59.5 86t59.5 60.5t65.5 35t81.5 11.5h58q68 0 114 -24t73.5 -63.5t39.5 -92t12 -111.5v-695q0 -18 -20 -18h-57q-20 0 -21 18v695q0 37 -6 73.5t-23.5 65.5t-48 47.5t-82.5 18.5h-28q-70 0 -112 -39t-89 -113 l-246 -389v-359q0 -18 -20 -18h-58q-20 0 -20 18zM279 1307v47q0 16 5 21l11 11q25 16 59.5 31t73.5 15q61 0 103 -13.5t77 -29t67 -27.5t75 -12q35 0 59.5 8t50.5 24q14 10 23 11q16 0 16 -19v-43q0 -23 -16 -35q-25 -18 -58.5 -31.5t-72.5 -13.5q-61 0 -104.5 12.5 t-79.5 28t-68.5 28.5t-71.5 13t-63.5 -11t-61.5 -30q-4 -2 -10 -2q-14 0 -14 17z" />
<glyph unicode="&#xf2;" horiz-adv-x="1112" d="M129 358v275q0 92 28.5 161.5t80 115.5t120 70t148.5 24h74q80 0 148.5 -24t119.5 -70t79.5 -115.5t28.5 -161.5v-275q0 -92 -27.5 -161.5t-77.5 -115.5t-119.5 -69.5t-151.5 -23.5h-74q-82 0 -151.5 23.5t-120 69.5t-78 115.5t-27.5 161.5zM227 358q0 -150 77 -217 t239 -67t238.5 67.5t76.5 216.5v275q0 82 -19.5 136t-59.5 87t-99 47.5t-137 14.5q-158 0 -237 -61.5t-79 -223.5v-275zM315 1505q2 10 17 11h80q10 0 16 -6.5t10 -16.5l150 -299q4 -8 2 -14t-17 -6h-47q-12 0 -17 1t-11 11l-179 307q-4 8 -4 12z" />
<glyph unicode="&#xf3;" horiz-adv-x="1112" d="M129 358v275q0 92 28.5 161.5t80 115.5t120 70t148.5 24h74q80 0 148.5 -24t119.5 -70t79.5 -115.5t28.5 -161.5v-275q0 -92 -27.5 -161.5t-77.5 -115.5t-119.5 -69.5t-151.5 -23.5h-74q-82 0 -151.5 23.5t-120 69.5t-78 115.5t-27.5 161.5zM227 358q0 -150 77 -217 t239 -67t238.5 67.5t76.5 216.5v275q0 82 -19.5 136t-59.5 87t-99 47.5t-137 14.5q-158 0 -237 -61.5t-79 -223.5v-275zM500 1180q-2 6 2 14l149 299q10 23 27 23h80q14 0 16 -11q0 -4 -4 -12l-178 -307q-6 -10 -11.5 -11t-17.5 -1h-47q-14 0 -16 6z" />
<glyph unicode="&#xf4;" horiz-adv-x="1112" d="M129 358v275q0 92 28.5 161.5t80 115.5t120 70t148.5 24h74q80 0 148.5 -24t119.5 -70t79.5 -115.5t28.5 -161.5v-275q0 -92 -27.5 -161.5t-77.5 -115.5t-119.5 -69.5t-151.5 -23.5h-74q-82 0 -151.5 23.5t-120 69.5t-78 115.5t-27.5 161.5zM227 358q0 -150 77 -217 t239 -67t238.5 67.5t76.5 216.5v275q0 82 -19.5 136t-59.5 87t-99 47.5t-137 14.5q-158 0 -237 -61.5t-79 -223.5v-275zM278.5 1183q-6.5 9 2.5 19l235 295q6 8 12.5 13.5t16.5 5.5h57q10 0 16.5 -5.5t12.5 -13.5l241 -295q8 -10 2 -19t-18 -9h-65q-20 0 -35 22l-178 234 l-181 -234q-14 -23 -35 -22h-67q-10 0 -16.5 9z" />
<glyph unicode="&#xf5;" horiz-adv-x="1112" d="M129 358v275q0 92 28.5 161.5t80 115.5t120 70t148.5 24h74q80 0 148.5 -24t119.5 -70t79.5 -115.5t28.5 -161.5v-275q0 -92 -27.5 -161.5t-77.5 -115.5t-119.5 -69.5t-151.5 -23.5h-74q-82 0 -151.5 23.5t-120 69.5t-78 115.5t-27.5 161.5zM227 358q0 -150 77 -217 t239 -67t238.5 67.5t76.5 216.5v275q0 82 -19.5 136t-59.5 87t-99 47.5t-137 14.5q-158 0 -237 -61.5t-79 -223.5v-275zM244 1307v47q0 16 5 21l11 11q25 16 59.5 31t73.5 15q61 0 103.5 -13.5t77 -29t66.5 -27.5t75 -12q35 0 59.5 8t50.5 24q14 10 23 11q16 0 16 -19v-43 q0 -23 -16 -35q-25 -18 -58.5 -31.5t-72.5 -13.5q-61 0 -104.5 12.5t-79 28t-68.5 28.5t-72 13t-63.5 -11t-61.5 -30q-4 -2 -10 -2q-14 0 -14 17z" />
<glyph unicode="&#xf6;" horiz-adv-x="1112" d="M129 358v275q0 92 28.5 161.5t80 115.5t120 70t148.5 24h74q80 0 148.5 -24t119.5 -70t79.5 -115.5t28.5 -161.5v-275q0 -92 -27.5 -161.5t-77.5 -115.5t-119.5 -69.5t-151.5 -23.5h-74q-82 0 -151.5 23.5t-120 69.5t-78 115.5t-27.5 161.5zM227 358q0 -150 77 -217 t239 -67t238.5 67.5t76.5 216.5v275q0 82 -19.5 136t-59.5 87t-99 47.5t-137 14.5q-158 0 -237 -61.5t-79 -223.5v-275zM262 1266v116q0 25 27 25h119q20 0 20 -25v-116q0 -25 -22 -25h-119q-25 0 -25 25zM702 1266v116q0 25 27 25h119q20 0 20 -25v-116q0 -25 -22 -25h-119 q-25 0 -25 25z" />
<glyph unicode="&#xf7;" horiz-adv-x="1228" d="M297 680v55q0 23 25 23h692q25 0 24 -23v-55q0 -25 -24 -25h-692q-25 0 -25 25zM590 287v121q0 25 24 24h113q23 0 23 -24v-121q0 -23 -23 -23h-113q-25 0 -24 23zM590 1004v120q0 25 24 25h113q23 0 23 -25v-120q0 -23 -23 -23h-113q-25 0 -24 23z" />
<glyph unicode="&#xf8;" horiz-adv-x="1112" d="M127 358v275q0 92 28.5 161.5t80 115.5t120 70t148.5 24h74q61 0 120 -17l70 187q8 23 25 22h55q10 0 14 -7t0 -15l-82 -220q80 -43 127 -122.5t47 -198.5v-275q0 -92 -27.5 -161.5t-77.5 -115.5t-120 -69.5t-151 -23.5h-74q-41 0 -80 6l-62 -168q-8 -23 -24 -23h-51 q-18 0 -19 15q0 4 2 8l70 188q-98 37 -155.5 123t-57.5 221zM225 358q0 -201 146 -258l297 805q-55 12 -127 13q-158 0 -237 -61.5t-79 -223.5v-275zM457 78q18 -2 39.5 -3t44.5 -1q162 0 238.5 67.5t76.5 216.5v275q0 94 -25.5 151.5t-78.5 89.5z" />
<glyph unicode="&#xf9;" horiz-adv-x="1179" d="M164 279v694q0 18 20 18h58q20 0 20 -18v-694q0 -37 6 -74t23.5 -65.5t48.5 -47t82 -18.5h29q70 0 111.5 39t88.5 112l246 389v359q0 18 21 18h57q20 0 20 -18v-955q0 -18 -20 -18h-57q-20 0 -21 18v431l-170 -269q-31 -49 -59.5 -86t-59 -60.5t-66.5 -34.5t-81 -11h-58 q-68 0 -113.5 23.5t-73.5 63.5t-40 92t-12 112zM383 1505q2 10 16 11h80q10 0 16.5 -6.5t10.5 -16.5l149 -299q4 -8 2 -14t-16 -6h-47q-12 0 -17.5 1t-11.5 11l-178 307q-4 8 -4 12z" />
<glyph unicode="&#xfa;" horiz-adv-x="1179" d="M164 279v694q0 18 20 18h58q20 0 20 -18v-694q0 -37 6 -74t23.5 -65.5t48.5 -47t82 -18.5h29q70 0 111.5 39t88.5 112l246 389v359q0 18 21 18h57q20 0 20 -18v-955q0 -18 -20 -18h-57q-20 0 -21 18v431l-170 -269q-31 -49 -59.5 -86t-59 -60.5t-66.5 -34.5t-81 -11h-58 q-68 0 -113.5 23.5t-73.5 63.5t-40 92t-12 112zM547 1180q-2 6 2 14l149 299q10 23 27 23h80q14 0 16 -11q0 -4 -4 -12l-178 -307q-6 -10 -11 -11t-18 -1h-47q-14 0 -16 6z" />
<glyph unicode="&#xfb;" horiz-adv-x="1179" d="M164 279v694q0 18 20 18h58q20 0 20 -18v-694q0 -37 6 -74t23.5 -65.5t48.5 -47t82 -18.5h29q70 0 111.5 39t88.5 112l246 389v359q0 18 21 18h57q20 0 20 -18v-955q0 -18 -20 -18h-57q-20 0 -21 18v431l-170 -269q-31 -49 -59.5 -86t-59 -60.5t-66.5 -34.5t-81 -11h-58 q-68 0 -113.5 23.5t-73.5 63.5t-40 92t-12 112zM325.5 1183q-6.5 9 2.5 19l235 295q6 8 12.5 13.5t16.5 5.5h57q10 0 16.5 -5.5t12.5 -13.5l242 -295q8 -10 1.5 -19t-18.5 -9h-65q-20 0 -35 22l-178 234l-181 -234q-14 -23 -34 -22h-68q-10 0 -16.5 9z" />
<glyph unicode="&#xfc;" horiz-adv-x="1179" d="M164 279v694q0 18 20 18h58q20 0 20 -18v-694q0 -37 6 -74t23.5 -65.5t48.5 -47t82 -18.5h29q70 0 111.5 39t88.5 112l246 389v359q0 18 21 18h57q20 0 20 -18v-955q0 -18 -20 -18h-57q-20 0 -21 18v431l-170 -269q-31 -49 -59.5 -86t-59 -60.5t-66.5 -34.5t-81 -11h-58 q-68 0 -113.5 23.5t-73.5 63.5t-40 92t-12 112zM309 1266v116q0 25 27 25h119q20 0 20 -25v-116q0 -25 -22 -25h-119q-25 0 -25 25zM750 1266v116q0 25 26 25h119q20 0 20 -25v-116q0 -25 -22 -25h-119q-25 0 -24 25z" />
<glyph unicode="&#xfd;" horiz-adv-x="1179" d="M164 279v694q0 18 20 18h58q20 0 20 -18v-694q0 -37 6 -74t23.5 -65.5t48.5 -47t82 -18.5h29q70 0 111.5 39t88.5 112l246 389v359q0 18 21 18h57q20 0 20 -18v-946q0 -88 -20.5 -161t-68.5 -125t-124.5 -81t-189.5 -29h-348q-18 0 -19 21v45q0 20 19 20h348 q164 0 234.5 78t70.5 232v422l-170 -269q-31 -49 -59.5 -86t-59 -60.5t-66.5 -34.5t-81 -11h-58q-68 0 -113.5 23.5t-73.5 63.5t-40 92t-12 112zM459 1180q-2 6 2 14l149 299q10 23 27 23h80q14 0 16 -11q0 -4 -4 -12l-178 -307q-6 -10 -11 -11t-18 -1h-47q-14 0 -16 6z" />
<glyph unicode="&#xfe;" horiz-adv-x="1150" d="M188 -348v1773q0 18 21 19h57q20 0 21 -19v-739l141 164q31 37 58.5 64.5t60.5 48t72.5 31t99.5 10.5h49q129 0 187.5 -68t58.5 -197v-340q0 -197 -106.5 -298t-278.5 -101h-342v-348q0 -18 -21 -19h-57q-20 0 -21 19zM287 86h305q166 0 244.5 70.5t78.5 242.5v320 q0 102 -36.5 150.5t-128.5 48.5h-33q-70 0 -116 -28t-103 -95l-211 -244v-465z" />
<glyph unicode="&#xff;" horiz-adv-x="1179" d="M164 279v694q0 18 20 18h58q20 0 20 -18v-694q0 -37 6 -74t23.5 -65.5t48.5 -47t82 -18.5h29q70 0 111.5 39t88.5 112l246 389v359q0 18 21 18h57q20 0 20 -18v-946q0 -88 -20.5 -161t-68.5 -125t-124.5 -81t-189.5 -29h-348q-18 0 -19 21v45q0 20 19 20h348 q164 0 234.5 78t70.5 232v422l-170 -269q-31 -49 -59.5 -86t-59 -60.5t-66.5 -34.5t-81 -11h-58q-68 0 -113.5 23.5t-73.5 63.5t-40 92t-12 112zM324 1266v116q0 25 26 25h119q20 0 20 -25v-116q0 -25 -22 -25h-119q-25 0 -24 25zM764 1266v116q0 25 27 25h118q20 0 21 -25 v-116q0 -25 -23 -25h-119q-25 0 -24 25z" />
<glyph unicode="&#x131;" horiz-adv-x="591" d="M145 934v39q0 18 19 18h205q20 0 20 -20v-953q0 -18 -20 -18h-58q-20 0 -20 18v875l-127 20q-10 2 -14.5 5.5t-4.5 15.5z" />
<glyph unicode="&#x141;" horiz-adv-x="1007" d="M0 537v71q0 14 3 20.5t13 14.5l191 139v602q0 18 20 19h62q20 0 20 -19v-526l240 176q8 6 12 6q16 0 17 -18v-68q-2 -10 -5.5 -19t-13.5 -15l-250 -185v-643h611q18 0 18 -20v-52q0 -20 -18 -20h-689q-25 0 -24 23v639l-184 -136q-2 -4 -13 -4q-10 0 -10 15z" />
<glyph unicode="&#x142;" horiz-adv-x="595" d="M2 614v74q0 14 3 20.5t13 14.5l148 106v596q0 18 20 19h58q20 0 20 -19v-524l142 103q8 6 14 6q12 0 16 -19v-69q-2 -10 -5 -18.5t-13 -16.5l-154 -113v-520q0 -90 34 -129t105 -39h109q18 0 18 -20v-46q0 -20 -18 -20h-109q-117 0 -177 58.5t-60 193.5v450l-137 -98 q-8 -4 -15 -4q-8 0 -12 14z" />
<glyph unicode="&#x152;" horiz-adv-x="2144" d="M152 465v473q0 111 33.5 200t96 150.5t152.5 94t201 32.5h137q131 0 226.5 -45t154.5 -131v139q0 25 23 25h813q18 0 18 -21v-51q0 -20 -18 -20h-734v-539h713q18 0 19 -20v-52q0 -20 -19 -20h-713v-588h734q18 0 18 -20v-52q0 -20 -18 -20h-811q-20 0 -25 23v139 q-59 -86 -154.5 -130t-226.5 -44h-137q-111 0 -201 32.5t-152.5 94t-96 150.5t-33.5 200zM254 465q0 -178 97.5 -281.5t281.5 -103.5h141q180 0 279.5 98t99.5 268v492q0 178 -97.5 281.5t-281.5 103.5h-141q-184 0 -281.5 -103.5t-97.5 -281.5v-473z" />
<glyph unicode="&#x153;" horiz-adv-x="1738" d="M147 358v275q0 92 29 161.5t80 115.5t119.5 70t148.5 24h74q104 0 184 -41t125 -123q88 164 299 164h154q66 0 117 -19.5t85.5 -53.5t52 -78t17.5 -95v-74q0 -104 -58 -151.5t-181 -69.5l-439 -76v-65q0 -109 48.5 -172.5t164.5 -63.5h406q10 0 14 -7t4 -18v-41 q0 -20 -18 -20h-418q-96 0 -159.5 36t-98.5 95q-45 -72 -121 -107.5t-178 -35.5h-74q-82 0 -151.5 23.5t-119.5 69.5t-78 115.5t-28 161.5zM246 358q0 -150 76.5 -217t238.5 -67q154 0 224.5 67.5t70.5 216.5v275q0 154 -68.5 219.5t-226.5 65.5t-236.5 -61.5t-78.5 -223.5 v-275zM954 469l418 74q47 8 78 18t49.5 26.5t26.5 42t8 64.5v54q0 80 -42 125t-136 45h-129q-147 0 -209 -77t-64 -225v-147z" />
<glyph unicode="&#x160;" horiz-adv-x="1232" d="M143 1042v50q0 147 85 229t278 82h487q18 0 19 -21v-51q0 -20 -19 -20h-481q-154 0 -210 -54.5t-56 -166.5v-50q0 -92 52 -149t179 -90l299 -76q76 -18 135.5 -44t100.5 -64.5t61.5 -92t20.5 -127.5v-67q0 -156 -93.5 -243t-295.5 -87h-504q-18 0 -19 20v52q0 20 19 20 h495q145 0 220 53.5t75 186.5v53q0 45 -9 82t-35.5 67.5t-73 56t-119.5 44.5l-312 78q-61 14 -115.5 40.5t-95.5 66.5t-64.5 94.5t-23.5 127.5zM301 1917.5q6 9.5 16 9.5h68q20 0 35 -22l180 -234l178 234q14 23 35 22h66q12 0 18 -9t-2 -20l-242 -294q-6 -8 -12 -13.5 t-16 -5.5h-58q-10 0 -16 5t-12 14l-236 294q-8 10 -2 19.5z" />
<glyph unicode="&#x161;" horiz-adv-x="925" d="M88 709v55q0 111 75 169t208 58h397q18 0 18 -20v-51q0 -20 -18 -21h-399q-98 0 -140.5 -41t-42.5 -115q0 -70 27 -107.5t113 -53.5l237 -47q145 -29 209 -86.5t64 -167.5v-41q0 -104 -76 -172t-209 -68h-430q-18 0 -19 20v52q0 20 19 20h426q92 0 141 44t49 122 q0 49 -12 81t-37.5 52.5t-65.5 32.5t-96 22l-217 39q-221 39 -221 224zM104.5 1506.5q6.5 9.5 16.5 9.5h67q20 0 35 -23l180 -233l179 233q14 23 34 23h66q12 0 18.5 -9.5t-2.5 -19.5l-241 -295q-6 -8 -12.5 -13t-16.5 -5h-57q-10 0 -16.5 5t-12.5 13l-236 295 q-8 10 -1.5 19.5z" />
<glyph unicode="&#x178;" horiz-adv-x="1089" d="M20 1384q0 18 27 19h62q14 0 20 -6t12 -17l404 -743l399 743q6 10 12.5 16.5t20.5 6.5h61q27 0 27 -19q0 -8 -6 -20l-465 -832v-514q0 -18 -21 -18h-61q-20 0 -20 18v514l-465 832q-6 12 -7 20zM266 1677v117q0 25 27 25h119q20 0 20 -25v-117q0 -25 -22 -24h-119 q-25 0 -25 24zM707 1677v117q0 25 26 25h119q20 0 20 -25v-117q0 -25 -22 -24h-119q-25 0 -24 24z" />
<glyph unicode="&#x17d;" horiz-adv-x="1050" d="M72 37v39q0 16 7 31.5t19 33.5l721 1170h-704q-18 0 -19 20v51q0 20 19 21h811q10 0 18 -5t8 -20v-37q0 -14 -6 -27.5t-16 -29.5l-742 -1192h770q18 0 19 -20v-52q0 -20 -19 -20h-849q-37 0 -37 37zM209 1917.5q6 9.5 16 9.5h68q20 0 35 -22l180 -234l178 234 q14 23 35 22h65q12 0 18.5 -9t-1.5 -20l-242 -294q-6 -8 -12 -13.5t-17 -5.5h-57q-10 0 -16 5t-13 14l-235 294q-8 10 -2 19.5z" />
<glyph unicode="&#x17e;" horiz-adv-x="925" d="M90 1506.5q6 9.5 16 9.5h68q20 0 35 -23l180 -233l178 233q14 23 35 23h66q12 0 18 -9.5t-2 -19.5l-242 -295q-6 -8 -12 -13t-16 -5h-58q-10 0 -16 5t-12 13l-236 295q-8 10 -2 19.5zM92 25v36q0 25 23 58l581 780h-581q-18 0 -19 21v51q0 20 19 20h669q10 0 18.5 -5 t8.5 -19v-37q0 -25 -23 -58l-581 -780h588q18 0 18 -20v-52q0 -20 -18 -20h-676q-10 0 -18.5 5t-8.5 20z" />
<glyph unicode="&#x192;" horiz-adv-x="845" d="M-145 -293q0 18 18 19h78q76 0 130 17t92 64.5t65.5 128t52.5 209.5l137 729l-143 17q-16 2 -17 16v33q0 10 3 11t14 1h159l68 340q4 10 6 17.5t10 17.5l70 66q8 12 31 12h168q20 0 14 -16l-12 -52q-2 -16 -21 -16h-125q-10 0 -30.5 -20.5t-22.5 -28.5l-57 -320h143 q18 0 16 -16l-4 -49q-2 -16 -22 -17h-150l-131 -733q-27 -152 -64.5 -249t-92 -153.5t-127 -79t-166.5 -22.5h-74q-12 0 -14 4.5t-2 14.5v55z" />
<glyph unicode="&#x2c6;" horiz-adv-x="886" d="M145.5 1183q-6.5 9 1.5 19l236 295q6 8 12 13.5t17 5.5h57q10 0 16.5 -5.5t12.5 -13.5l241 -295q8 -10 2 -19t-18 -9h-66q-20 0 -34 22l-179 234l-180 -234q-14 -23 -35 -22h-67q-10 0 -16.5 9z" />
<glyph unicode="&#x2c7;" horiz-adv-x="876" d="M139 1506.5q6 9.5 17 9.5h67q20 0 35 -23l180 -233l178 233q14 23 35 23h66q12 0 18 -9.5t-2 -19.5l-241 -295q-6 -8 -12.5 -13t-16.5 -5h-57q-10 0 -16.5 5t-12.5 13l-236 295q-8 10 -2 19.5z" />
<glyph unicode="&#x2d8;" horiz-adv-x="765" d="M96 1432v49q0 25 25 24h55q23 0 23 -20v-33q0 -88 43 -124t141 -36t140 36t42 124v33q0 20 23 20h57q25 0 25 -24v-49q0 -43 -17.5 -85t-51.5 -75t-84 -52.5t-114 -19.5h-41q-66 0 -114.5 19.5t-82.5 52.5t-51.5 75t-17.5 85z" />
<glyph unicode="&#x2d9;" horiz-adv-x="444" d="M119 1266v157q0 25 26 25h160q20 0 21 -25v-157q0 -25 -23 -25h-160q-25 0 -24 25z" />
<glyph unicode="&#x2da;" horiz-adv-x="729" d="M137 1313q0 109 64.5 163t163.5 54q98 0 162.5 -54t64.5 -163q0 -102 -62.5 -157.5t-164.5 -55.5t-165 55t-63 158zM240 1315q0 -59 35.5 -91t89.5 -32q53 0 88.5 32t35.5 91q0 53 -33.5 86t-90.5 33t-91 -33t-34 -86z" />
<glyph unicode="&#x2db;" horiz-adv-x="514" d="M113 -260q0 92 48 160.5t107 115.5h111q-55 -53 -105.5 -121.5t-50.5 -150.5q0 -55 28 -88t93 -33q39 0 66.5 6t46.5 15l12 6t10 2q10 0 10 -14v-52q-2 -16 -42.5 -37.5t-112.5 -21.5q-115 0 -168 61.5t-53 151.5z" />
<glyph unicode="&#x2dc;" horiz-adv-x="839" d="M111 1307v47q0 23 16 32q23 16 56.5 31t72.5 15q61 0 103 -13.5t77 -29t67 -27.5t75 -12q35 0 57 7t49 23q16 12 27 13q18 0 18 -19v-43q0 -23 -16 -35q-27 -16 -61 -30.5t-72 -14.5q-61 0 -104.5 12.5t-79.5 28t-68.5 28.5t-71.5 13q-37 0 -59.5 -9t-55.5 -28 q-6 -6 -16 -6q-14 0 -14 17z" />
<glyph unicode="&#x2dd;" horiz-adv-x="909" d="M145.5 1180q-2.5 6 1.5 14l150 299q10 23 27 23h79q14 0 17 -11q0 -4 -4 -12l-178 -307q-6 -10 -11.5 -11t-17.5 -1h-47q-14 0 -16.5 6zM475.5 1180q-2.5 6 1.5 14l150 299q10 23 26 23h80q14 0 17 -11q0 -4 -5 -12l-178 -307q-6 -10 -11 -11t-17 -1h-47q-14 0 -16.5 6z " />
<glyph unicode="&#x300;" d="M-770 1505q2 10 16 11h80q10 0 16.5 -6.5t10.5 -16.5l149 -299q4 -8 2 -14t-16 -6h-47q-12 0 -17.5 1t-11.5 11l-178 307q-4 8 -4 12z" />
<glyph unicode="&#x301;" d="M-563 1180q-2 6 2 14l149 299q10 23 27 23h80q14 0 16 -11q0 -4 -4 -12l-178 -307q-6 -10 -11 -11t-18 -1h-47q-14 0 -16 6z" />
<glyph unicode="&#x302;" d="M-815 1183q-6 9 2 19l235 295q6 8 12.5 13.5t16.5 5.5h57q10 0 16.5 -5.5t12.5 -13.5l242 -295q8 -10 2 -19t-19 -9h-65q-20 0 -35 22l-178 234l-180 -234q-14 -23 -35 -22h-68q-10 0 -16 9z" />
<glyph unicode="&#x303;" d="M-885 1307v47q0 16 5.5 21t11.5 11q25 16 59.5 31t73.5 15q61 0 103 -13.5t77 -29t66.5 -27.5t74.5 -12q35 0 59.5 8t51.5 24q14 10 22 11q16 0 17 -19v-43q0 -23 -17 -35q-25 -18 -58.5 -31.5t-72.5 -13.5q-61 0 -104 12.5t-79 28t-68.5 28.5t-71.5 13t-63.5 -11 t-61.5 -30q-4 -2 -10 -2q-14 0 -15 17z" />
<glyph unicode="&#x308;" d="M-770 1266v116q0 25 27 25h118q20 0 21 -25v-116q0 -25 -23 -25h-118q-25 0 -25 25zM-330 1266v116q0 25 27 25h119q20 0 20 -25v-116q0 -25 -22 -25h-119q-25 0 -25 25z" />
<glyph unicode="&#x30a;" d="M-725 1313q0 109 64.5 163t162.5 54t163 -54t65 -163q0 -102 -62.5 -157.5t-165.5 -55.5q-102 0 -164.5 55t-62.5 158zM-623 1315q0 -59 36 -91t89 -32t89 32t36 91q0 53 -33.5 86t-91.5 33q-57 0 -91 -33t-34 -86z" />
<glyph unicode="&#x30c;" d="M-815 1506.5q6 9.5 16 9.5h68q20 0 35 -23l180 -233l178 233q14 23 35 23h65q12 0 18.5 -9.5t-1.5 -19.5l-242 -295q-6 -8 -12 -13t-17 -5h-57q-10 0 -16 5t-13 13l-235 295q-8 10 -2 19.5z" />
<glyph unicode="&#x327;" horiz-adv-x="2" d="M-471 -416q0 23 22 23h127q139 0 140 119q0 61 -31 88.5t-92 27.5h-129q-29 0 -29 29v23q0 16 7 25t18 18l121 88h127l-156 -105h51q94 0 147.5 -47t53.5 -133v-21q0 -88 -55.5 -138t-172.5 -50h-127q-23 0 -22 23v30z" />
<glyph unicode="&#x394;" horiz-adv-x="1392" d="M104 18q-2 4 0 11l521 1343q8 31 37 31h63q27 0 37 -31l520 -1343q4 -29 -14 -29h-1145q-18 0 -19 18zM238 92h919l-461 1188z" />
<glyph unicode="&#x3a9;" horiz-adv-x="1345" d="M100 23v47q0 23 25 22h186q-41 20 -77.5 54t-66.5 82t-47.5 113t-17.5 146v502q0 98 33 177t93.5 134.5t144.5 85t188 29.5h164q104 0 188 -29.5t144.5 -85t93.5 -134.5t33 -177v-502q0 -82 -17.5 -146.5t-47 -112.5t-67.5 -81.5t-77 -54.5h186q25 0 25 -22v-47 q0 -23 -23 -23h-415q-25 0 -25 23v47q0 23 22 22h11q59 0 117.5 24.5t104.5 75t74.5 124t28.5 171.5v502q0 147 -97 240.5t-269 93.5h-144q-172 0 -269 -93t-97 -241v-502q0 -98 28.5 -171.5t74.5 -124t104.5 -75t117.5 -24.5h11q23 0 22 -22v-47q0 -23 -24 -23h-416 q-23 0 -23 23z" />
<glyph unicode="&#x3bc;" horiz-adv-x="1142" d="M152 -348v1321q0 18 20 18h57q20 0 21 -18v-633q0 -139 46 -202.5t134 -63.5h29q70 0 113.5 38t86.5 113l226 389v359q0 18 20 18h58q20 0 20 -18v-955q0 -18 -20 -18h-58q-20 0 -20 18v431l-150 -269q-57 -102 -115.5 -147t-150.5 -45h-57q-70 0 -104 18.5t-58 48.5 v-403q0 -18 -21 -19h-57q-20 0 -20 19z" />
<glyph unicode="&#x3c0;" horiz-adv-x="1390" d="M96 915v54q0 23 25 22h1122q10 0 15.5 -7t5.5 -17v-52q0 -23 -25 -22h-182v-870q0 -23 -21 -23h-59q-23 0 -23 23v870h-553v-870q0 -23 -20 -23h-59q-23 0 -23 23v870h-180q-23 0 -23 22z" />
<glyph unicode="&#xe01;" horiz-adv-x="1167" d="M102 963v49q0 14 15 14q86 6 148.5 9t111.5 5t91 3t87 1q219 0 323.5 -103t104.5 -306v-617q0 -18 -20 -18h-58q-20 0 -20 18v617q0 160 -75 240.5t-251 80.5q-35 0 -66.5 -1t-56.5 -3q-29 -2 -55 -4q-39 -41 -63.5 -70.5t-39 -59.5t-20.5 -64.5t-6 -81.5v-654 q0 -18 -21 -18h-57q-20 0 -20 18v668q0 80 27.5 135.5t92.5 122.5q-35 0 -65 2q-27 0 -52.5 1t-37.5 1q-16 0 -17 15z" />
<glyph unicode="&#xe02;" horiz-adv-x="1069" d="M137 309v215q0 25 7.5 40.5t23.5 35.5l135 166q14 18 19.5 33.5t5.5 50.5v94h-172q-18 0 -19 21v45q0 20 19 20h245q23 0 23 -24v-156q0 -41 -5 -65.5t-24 -47.5l-137 -176q-14 -16 -18 -33.5t-4 -35.5v-183q0 -117 57 -176t205 -59q147 0 213.5 57t66.5 178v703 q0 18 21 18h57q20 0 21 -18v-703q0 -70 -24 -129t-68 -102t-107.5 -66.5t-142.5 -23.5h-76q-80 0 -140.5 23.5t-100.5 66.5t-60.5 102.5t-20.5 128.5z" />
<glyph unicode="&#xe03;" horiz-adv-x="1069" d="M137 309v215q0 25 6.5 41.5t24.5 34.5l156 166q14 18 19 33.5t5 50.5v74l-80 -23l-112 43q-18 6 -19 21v45q0 20 19 20h28l84 -43l121 43h33q23 0 22 -24v-156q0 -41 -5 -65.5t-23 -47.5l-158 -176q-14 -16 -18 -33.5t-4 -35.5v-183q0 -117 57 -176t205 -59 q147 0 213.5 57t66.5 178v703q0 18 21 18h57q20 0 21 -18v-703q0 -70 -24 -129t-68 -102t-107.5 -66.5t-142.5 -23.5h-76q-80 0 -140.5 23.5t-100.5 66.5t-60.5 102.5t-20.5 128.5z" />
<glyph unicode="&#xe04;" horiz-adv-x="1171" d="M131 18v617q0 197 103.5 303t285.5 106h78q182 0 285.5 -106.5t103.5 -302.5v-617q0 -18 -20 -18h-58q-20 0 -20 18v617q0 166 -76 244.5t-254 78.5t-254 -78.5t-76 -244.5v-289l84 115q29 39 50.5 64.5t41 40t40 19.5t49.5 5h124q27 0 27 -23v-45q0 -25 -22 -24h-117 q-37 0 -59.5 -15.5t-61.5 -70.5l-156 -211v-183q0 -18 -20 -18h-57q-20 0 -21 18z" />
<glyph unicode="&#xe05;" horiz-adv-x="1224" d="M133 18v775q0 57 20.5 104t54.5 80t78 50t91 17q66 0 115 -22.5t96 -56.5q39 33 92 56t119 23q115 0 178 -67.5t63 -183.5v-775q0 -18 -20 -18h-57q-20 0 -21 18v775q0 86 -41 124.5t-108 38.5q-59 0 -100.5 -24.5t-86.5 -59.5h-37q-35 35 -83 59.5t-103 24.5 q-68 0 -110 -38.5t-42 -124.5v-447l84 115q29 39 50.5 64.5t41 40t40 19.5t49.5 5h125q27 0 26 -23v-45q0 -25 -22 -24h-117q-37 0 -59.5 -15.5t-61.5 -70.5l-156 -211v-183q0 -18 -20 -18h-57q-20 0 -21 18z" />
<glyph unicode="&#xe06;" horiz-adv-x="1185" d="M133 18v506q0 25 7 40.5t24 35.5l135 166q14 18 19.5 33.5t5.5 50.5v74l-60 -23l-112 43q-18 6 -19 21v45q0 20 19 20h28l84 -43l101 43h32q23 0 23 -24v-156q0 -41 -5 -65.5t-24 -47.5l-137 -176q-14 -16 -18.5 -33.5t-4.5 -35.5v-19l195 -248q43 -55 76 -85.5t63.5 -45 t62 -17.5t72.5 -3h21q172 0 172 225v713q0 18 20 18h58q20 0 20 -18v-713q0 -66 -17.5 -123t-50 -99t-79.5 -65.5t-107 -23.5h-53q-98 0 -169 33.5t-132 115.5l-152 201v-320q0 -18 -20 -18h-57q-20 0 -21 18z" />
<glyph unicode="&#xe07;" horiz-adv-x="1024" d="M123 635v108q0 18 20 19h58q20 0 20 -19v-108q0 -147 27.5 -254t76 -174.5t112 -100t136.5 -32.5h25q72 0 113 36.5t41 114.5v719h-168q-18 0 -19 21v45q0 20 19 20h243q23 0 23 -24v-789q0 -98 -58.5 -163.5t-175.5 -65.5h-47q-217 0 -331.5 168t-114.5 479z" />
<glyph unicode="&#xe08;" horiz-adv-x="1024" d="M123 979v45q0 20 18 20h336q94 0 165 -27.5t117 -76.5t68.5 -114.5t22.5 -141.5v-289q0 -201 -93 -298t-302 -97h-148q-23 0 -22 25v415h-133q-18 0 -19 21v45q0 20 19 20h208q23 0 23 -24v-416h72q162 0 229.5 73.5t67.5 235.5v275q0 59 -15.5 112.5t-49.5 92t-87 61 t-129 22.5h-330q-18 0 -18 21z" />
<glyph unicode="&#xe09;" horiz-adv-x="1212" d="M113 461v45q0 20 18 20h191q23 0 22 -24v-252q0 -53 6 -88t20.5 -54.5t37 -26.5t55.5 -7h24q31 0 57.5 4t54.5 19.5t57.5 45t68.5 82.5l195 269v182q0 59 -18.5 111.5t-55.5 90t-94.5 59t-135.5 21.5h-395q-18 0 -18 21v45q0 20 18 20h402q98 0 171.5 -26.5t123 -74.5 t75 -112.5t25.5 -140.5v-672q0 -18 -21 -18h-57q-20 0 -20 18v328l-148 -209q-55 -78 -118.5 -113.5t-149.5 -35.5h-58q-47 0 -83.5 12t-62.5 42t-40 79t-14 125v194h-115q-18 0 -18 21z" />
<glyph unicode="&#xe0a;" horiz-adv-x="1110" d="M137 309v215q0 25 7.5 40.5t23.5 35.5l135 166q14 18 19.5 33.5t5.5 50.5v94h-172q-18 0 -19 21v45q0 20 19 20h245q23 0 23 -24v-156q0 -41 -5 -65.5t-24 -47.5l-137 -176q-14 -16 -18 -33.5t-4 -35.5v-183q0 -117 67.5 -176t214.5 -59t224 57t77 178v271 q0 57 -30.5 104t-118.5 64q-12 2 -13 14v49q0 8 9 12q51 25 81.5 45.5t46 39t20.5 33.5t5 32v100q0 18 21 19h57q20 0 21 -19v-100q0 -53 -16.5 -82t-57.5 -55l-64 -41q78 -18 108 -78t30 -131v-277q0 -72 -27 -131t-74 -101t-114.5 -65.5t-147.5 -23.5h-76q-160 0 -251 88 t-91 233z" />
<glyph unicode="&#xe0b;" horiz-adv-x="1110" d="M137 309v215q0 25 6.5 41.5t24.5 34.5l156 166q14 18 19 33.5t5 50.5v74l-80 -23l-112 43q-18 6 -19 21v45q0 20 19 20h28l84 -43l121 43h33q23 0 22 -24v-156q0 -41 -5 -65.5t-23 -47.5l-158 -176q-14 -16 -18 -33.5t-4 -35.5v-183q0 -117 67.5 -176t214.5 -59t224 57 t77 178v271q0 57 -30.5 104t-118.5 64q-12 2 -13 14v47q0 8 9 14q94 47 123.5 83t29.5 67v100q0 18 21 19h57q20 0 21 -19v-100q0 -53 -16.5 -82t-57.5 -55l-64 -41q78 -18 108 -78t30 -131v-277q0 -72 -27 -131t-74 -101t-114.5 -65.5t-147.5 -23.5h-76q-160 0 -251 88 t-91 233z" />
<glyph unicode="&#xe0c;" horiz-adv-x="1878" d="M102 963v49q0 14 15 14q86 6 148.5 9t111.5 5t91 3t87 1q219 0 314.5 -103t95.5 -306v-215l153 -195q43 -55 76 -85.5t63.5 -45t62.5 -17.5t73 -3h20q172 0 172 225v713q0 18 21 18h57q20 0 20 -18v-713q0 -66 -17 -123t-50 -99t-80 -65.5t-106 -23.5h-54 q-98 0 -168.5 33.5t-132.5 115.5l-110 146v-265q0 -18 -21 -18h-57q-20 0 -21 18v617q0 80 -15 139.5t-51 100t-94.5 61t-146.5 20.5q-35 0 -66.5 -1t-56.5 -3q-29 -2 -55 -4q-39 -41 -63.5 -70.5t-39 -59.5t-20.5 -64.5t-6 -81.5v-586h170q18 0 18 -20v-46q0 -20 -18 -20 h-246q-23 0 -22 25v661q0 80 27.5 135.5t92.5 122.5q-35 0 -65 2q-27 0 -52.5 1t-37.5 1q-16 0 -17 15z" />
<glyph unicode="&#xe0d;" horiz-adv-x="1878" d="M102 963v49q0 14 15 14q86 6 148.5 9t111.5 5t91 3t87 1q219 0 314.5 -103t95.5 -306v-260q0 -158 69.5 -229.5t241.5 -71.5t240.5 71.5t68.5 229.5v637q0 18 21 18h57q20 0 20 -18v-637q0 -197 -93 -292t-275 -95h-78q-182 0 -276.5 95t-94.5 292v260q0 80 -15 139.5 t-51 100t-94.5 61t-146.5 20.5q-35 0 -66.5 -1t-56.5 -3q-29 -2 -55 -4q-39 -41 -63.5 -70.5t-39 -59.5t-20.5 -64.5t-6 -81.5v-586h170q18 0 18 -20v-46q0 -20 -18 -20h-246q-23 0 -22 25v661q0 80 27.5 135.5t92.5 122.5q-35 0 -65 2q-27 0 -52.5 1t-37.5 1q-16 0 -17 15z M952 -248q0 20 19 21h583q18 0 19 -21v-45q0 -20 -19 -20h-583q-18 0 -19 20v45z" />
<glyph unicode="&#xe0e;" horiz-adv-x="1167" d="M29 20v46q0 20 18 20h129v600q0 39 3 72t13.5 63.5t30 59t51.5 63.5q-31 0 -57 2q-25 0 -50.5 1t-47.5 1q-16 0 -17 15v49q0 14 15 14q86 6 148.5 9t111.5 5t91 3t87 1q219 0 323.5 -103t104.5 -306v-748q0 -135 -67.5 -205.5t-184.5 -70.5h-389q-18 0 -18 20v45 q0 20 18 21h363q86 0 133 46t47 144v748q0 160 -75 240.5t-251 80.5q-35 0 -66.5 -1t-56.5 -3q-29 -2 -55 -4q-39 -41 -60.5 -70.5t-31.5 -59.5t-12.5 -64.5t-2.5 -81.5v-647q0 -25 -22 -25h-205q-18 0 -18 20z" />
<glyph unicode="&#xe0f;" horiz-adv-x="1167" d="M29 20v46q0 20 18 20h129v600q0 39 3 72t13.5 63.5t30 59t51.5 63.5q-31 0 -57 2q-25 0 -50.5 1t-47.5 1q-16 0 -17 15v49q0 14 15 14q86 6 148.5 9t111.5 5t91 3t87 1q219 0 323.5 -103t104.5 -306v-868q0 -72 -41 -124.5t-127 -52.5h-92q-16 0 -22.5 3.5t-16.5 13.5 l-106 98l-121 -96q-8 -6 -17.5 -10.5t-25.5 -4.5h-33q-16 0 -28.5 5.5t-22.5 11.5l-129 88q-10 8 -15.5 16.5t4.5 20.5l27 39q6 10 16.5 11t18.5 -3l129 -92q10 -8 27 -8q12 0 28 14l129 110q14 10 27 -2l137 -120q12 -12 35 -13h43q33 0 55.5 19.5t22.5 66.5v877 q0 160 -75 240.5t-251 80.5q-35 0 -66.5 -1t-56.5 -3q-29 -2 -55 -4q-39 -41 -60.5 -70.5t-31.5 -59.5t-12.5 -64.5t-2.5 -81.5v-647q0 -25 -22 -25h-205q-18 0 -18 20z" />
<glyph unicode="&#xe10;" horiz-adv-x="999" d="M76 979v45q0 20 18 20h336q59 0 108.5 -11t90.5 -32l229 43h31q18 0 18 -20v-51q0 -20 -18 -21l-176 -12q47 -49 69.5 -114.5t22.5 -141.5v-289q0 -201 -93.5 -298t-303.5 -97h-148q-23 0 -22 25v415h-134q-18 0 -18 21v45q0 20 18 20h209q23 0 23 -24v-416h72 q162 0 230.5 73.5t68.5 235.5v275q0 59 -15.5 112.5t-49.5 92t-88 61t-130 22.5h-330q-18 0 -18 21zM145 -248q0 20 19 21h584q18 0 18 -21v-45q0 -20 -18 -20h-584q-18 0 -19 20v45z" />
<glyph unicode="&#xe11;" horiz-adv-x="1210" d="M133 965v45q0 20 19 20h28l84 -43l103 43h32q23 0 23 -24v-189q55 57 99 100.5t83 72t74 44t76 15.5h53q96 0 152.5 -62.5t56.5 -214.5v-754q0 -18 -21 -18h-57q-20 0 -20 18v754q0 98 -29 143.5t-107 45.5h-22q-23 0 -41.5 -5.5t-40 -19.5t-47 -36.5t-62.5 -57.5 l-239 -236q-29 -29 -40 -50t-11 -60v-478q0 -18 -21 -18h-57q-20 0 -21 18v494q0 49 15.5 73.5t37.5 51.5l56 57q16 16 25.5 33.5t9.5 48.5v148l-60 -23l-112 43q-18 6 -19 21z" />
<glyph unicode="&#xe12;" horiz-adv-x="1916" d="M133 143v650q0 57 20.5 104t54.5 80t78 50t91 17q66 0 115 -22.5t96 -56.5q39 33 92 56t119 23q115 0 178 -67.5t63 -183.5v-373l144 -195q41 -57 69.5 -88t54 -45t54.5 -16t70 -2h20q86 0 129 46t43 159v733q0 18 21 18h57q20 0 20 -18v-733q0 -133 -66.5 -212 t-187.5 -79h-53q-49 0 -87 7t-69.5 24.5t-60.5 46t-57 71.5l-101 146v-265q0 -18 -20 -18h-57q-20 0 -21 18v775q0 86 -41 124.5t-108 38.5q-59 0 -100.5 -24.5t-86.5 -59.5h-37q-35 35 -83 59.5t-103 24.5q-68 0 -110 -38.5t-42 -124.5v-660q0 -35 12.5 -48t37.5 -13h12 q53 0 100 17t83 59t56.5 110t20.5 166v108q0 18 20 19h58q20 0 20 -19v-108q0 -121 -30.5 -204t-81 -134t-114 -73.5t-128.5 -22.5h-31q-66 0 -99.5 41t-33.5 112z" />
<glyph unicode="&#xe13;" horiz-adv-x="1878" d="M102 963v49q0 14 15 14q86 6 148.5 9t111.5 5t91 3t87 1q219 0 314.5 -103t95.5 -306v-336q0 -225 172 -225h20q41 0 73 3t62.5 17.5t63.5 45t76 85.5l153 195v592q0 18 21 18h57q20 0 20 -18v-994q0 -18 -20 -18h-57q-20 0 -21 18v265l-110 -146q-61 -82 -132 -115.5 t-169 -33.5h-54q-59 0 -106 23.5t-80 65.5t-50.5 99t-17.5 123v336q0 80 -15 139.5t-51 100t-94.5 61t-146.5 20.5q-35 0 -66.5 -1t-56.5 -3q-29 -2 -55 -4q-39 -41 -63.5 -70.5t-39 -59.5t-20.5 -64.5t-6 -81.5v-586h170q18 0 18 -20v-46q0 -20 -18 -20h-246q-23 0 -22 25 v661q0 80 27.5 135.5t92.5 122.5q-35 0 -65 2q-27 0 -52.5 1t-37.5 1q-16 0 -17 15z" />
<glyph unicode="&#xe14;" horiz-adv-x="1173" d="M133 143v492q0 197 108.5 303t290.5 106h78q182 0 291 -106.5t109 -302.5v-617q0 -18 -21 -18h-57q-20 0 -21 18v617q0 166 -80.5 244.5t-259.5 78.5q-178 0 -259 -78.5t-81 -244.5v-502q0 -35 12.5 -48t37.5 -13h12q53 0 97 17t76 59t49 110t17 166v108q0 18 21 19h57 q20 0 21 -19v-108q0 -121 -28 -204t-74 -134t-106.5 -73.5t-125.5 -22.5h-31q-66 0 -99.5 41t-33.5 112z" />
<glyph unicode="&#xe15;" horiz-adv-x="1224" d="M133 143v650q0 57 21.5 104t57.5 80t82 50t93 17q66 0 115 -22.5t96 -56.5q39 33 92 56t119 23q115 0 183.5 -67.5t68.5 -183.5v-775q0 -18 -21 -18h-57q-20 0 -20 18v775q0 86 -46.5 124.5t-113.5 38.5q-59 0 -100 -24.5t-87 -59.5h-36q-35 35 -83 59.5t-104 24.5 q-68 0 -115 -38.5t-47 -124.5v-660q0 -35 12.5 -48t37.5 -13h12q53 0 100 17t83 59t56.5 110t20.5 166v108q0 18 20 19h58q20 0 20 -19v-108q0 -121 -30.5 -204t-81 -134t-114 -73.5t-128.5 -22.5h-31q-66 0 -99.5 41t-33.5 112z" />
<glyph unicode="&#xe16;" horiz-adv-x="1167" d="M102 963v49q0 14 15 14q86 6 148.5 9t111.5 5t91 3t87 1q219 0 323.5 -103t104.5 -306v-617q0 -18 -20 -18h-58q-20 0 -20 18v617q0 160 -75 240.5t-251 80.5q-35 0 -66.5 -1t-56.5 -3q-29 -2 -55 -4q-39 -41 -63.5 -70.5t-39 -59.5t-20.5 -64.5t-6 -81.5v-586h170 q18 0 18 -20v-46q0 -20 -18 -20h-246q-23 0 -22 25v661q0 80 27.5 135.5t92.5 122.5q-35 0 -65 2q-27 0 -52.5 1t-37.5 1q-16 0 -17 15z" />
<glyph unicode="&#xe17;" horiz-adv-x="1218" d="M190 18v994q0 18 21 18h57q20 0 21 -18v-443l170 275q31 49 59.5 87t59 62.5t65.5 36.5t82 12h57q68 0 114 -23.5t73.5 -63.5t40 -92t12.5 -111v-734q0 -18 -21 -18h-57q-20 0 -20 18v734q0 37 -6.5 73.5t-23.5 65.5t-48 47t-82 18h-29q-70 0 -111.5 -42t-88.5 -115 l-246 -389v-392q0 -18 -21 -18h-57q-20 0 -21 18z" />
<glyph unicode="&#xe18;" horiz-adv-x="1069" d="M127 780v49q0 88 69.5 145.5t180.5 57.5h475q18 0 18 -20v-51q0 -20 -18 -21h-463q-51 0 -83 -10t-48 -28.5t-22.5 -44.5t-6.5 -54q0 -82 37 -111.5t103 -38.5l258 -32q160 -20 227.5 -81t67.5 -171v-99q0 -117 -74 -193.5t-213 -76.5h-465q-23 0 -23 25v354q0 18 21 18 h61q20 0 21 -18v-293h368q115 0 158 61.5t43 169.5q0 59 -12 98.5t-38 62t-69 34.5t-104 18l-242 29q-98 12 -162.5 67.5t-64.5 153.5z" />
<glyph unicode="&#xe19;" horiz-adv-x="1185" d="M133 299v713q0 18 21 18h57q20 0 20 -18v-713q0 -225 172 -225h21q41 0 72.5 3t62.5 17.5t63.5 45t75.5 85.5l195 248v539q0 18 20 18h58q20 0 20 -18v-994q0 -18 -20 -18h-58q-20 0 -20 18v320l-152 -201q-61 -82 -131.5 -115.5t-169.5 -33.5h-53q-59 0 -106.5 23.5 t-80 65.5t-50 99t-17.5 123z" />
<glyph unicode="&#xe1a;" horiz-adv-x="1171" d="M131 375v637q0 18 21 18h57q20 0 20 -18v-637q0 -158 78 -229.5t252 -71.5t252 71.5t78 229.5v637q0 18 20 18h58q20 0 20 -18v-637q0 -197 -103.5 -292t-285.5 -95h-78q-182 0 -285.5 95t-103.5 292z" />
<glyph unicode="&#xe1b;" horiz-adv-x="1171" d="M131 375v637q0 18 21 18h57q20 0 20 -18v-637q0 -158 78 -229.5t252 -71.5t252 71.5t78 229.5v1063q0 18 20 18h58q20 0 20 -18v-1063q0 -197 -103.5 -292t-285.5 -95h-78q-182 0 -285.5 95t-103.5 292z" />
<glyph unicode="&#xe1c;" horiz-adv-x="1396" d="M127 311v695q0 25 23 24h245q18 0 19 -20v-45q0 -20 -19 -21h-170v-627q0 -74 13.5 -122t38 -74.5t58.5 -36.5t75 -10h30q164 0 164 196v516q0 18 21 19h51q20 0 20 -19v-516q0 -98 38 -147t143 -49h22q94 0 138 50t44 161v727q0 18 21 18h57q20 0 21 -18v-727 q0 -141 -70 -219t-213 -78h-31q-92 0 -141 33.5t-74 95.5q-16 -51 -68.5 -90t-144.5 -39h-39q-55 0 -104 16t-86 54t-59.5 99.5t-22.5 153.5z" />
<glyph unicode="&#xe1d;" horiz-adv-x="1396" d="M127 311v695q0 25 23 24h245q18 0 19 -20v-45q0 -20 -19 -21h-170v-627q0 -74 13.5 -122t38 -74.5t58.5 -36.5t75 -10h30q164 0 164 196v516q0 18 21 19h51q20 0 20 -19v-516q0 -98 38 -147t143 -49h22q94 0 138 50t44 161v1099q0 18 21 19h57q20 0 21 -19v-1099 q0 -141 -70 -219t-213 -78h-31q-92 0 -141 33.5t-74 95.5q-16 -51 -68.5 -90t-144.5 -39h-39q-55 0 -104 16t-86 54t-59.5 99.5t-22.5 153.5z" />
<glyph unicode="&#xe1e;" horiz-adv-x="1431" d="M37 1024q-6 20 24 20h45q16 0 22.5 -3t10.5 -17l211 -942h56q57 0 87.5 42t57.5 126l127 397l-86 379q-6 18 18 18h47q20 0 27 -18l217 -944h57q59 0 95.5 38t54.5 132l149 770q4 23 33 22h45q10 0 19.5 -3t5.5 -15l-178 -850q-18 -86 -79 -131t-151 -45h-114 q-12 0 -15 12l-110 477l-101 -313q-29 -92 -77 -134t-144 -42h-104q-12 0 -15 12z" />
<glyph unicode="&#xe1f;" horiz-adv-x="1431" d="M37 1024q-6 20 24 20h45q16 0 22.5 -3t10.5 -17l211 -942h56q57 0 87.5 42t57.5 126l127 397l-86 379q-6 18 18 18h47q20 0 27 -18l217 -944h37q63 0 94 27.5t47 111.5l228 1159q4 23 32 23h45q10 0 19.5 -3t5.5 -16l-248 -1208q-16 -86 -75.5 -131t-153.5 -45h-94 q-12 0 -15 12l-110 477l-101 -313q-29 -92 -77 -134t-144 -42h-104q-12 0 -15 12z" />
<glyph unicode="&#xe20;" horiz-adv-x="1167" d="M29 20v46q0 20 18 20h129v600q0 39 3 72t13.5 63.5t30 59t51.5 63.5q-31 0 -57 2q-25 0 -50.5 1t-47.5 1q-16 0 -17 15v49q0 14 15 14q86 6 148.5 9t111.5 5t91 3t87 1q219 0 323.5 -103t104.5 -306v-617q0 -18 -20 -18h-58q-20 0 -20 18v617q0 160 -75 240.5t-251 80.5 q-35 0 -66.5 -1t-56.5 -3q-29 -2 -55 -4q-39 -41 -60.5 -70.5t-31.5 -59.5t-12.5 -64.5t-2.5 -81.5v-647q0 -25 -22 -25h-205q-18 0 -18 20z" />
<glyph unicode="&#xe21;" horiz-adv-x="1185" d="M133 18v994q0 18 21 18h57q20 0 20 -18v-539l195 -248q43 -55 76 -85.5t63.5 -45t62 -17.5t72.5 -3h21q172 0 172 225v713q0 18 20 18h58q20 0 20 -18v-713q0 -66 -17.5 -123t-50 -99t-79.5 -65.5t-107 -23.5h-53q-98 0 -169 33.5t-132 115.5l-152 201v-320 q0 -18 -20 -18h-57q-20 0 -21 18z" />
<glyph unicode="&#xe22;" horiz-adv-x="1146" d="M123 307v51q0 57 12 97.5t37 69t60.5 49t82.5 36.5l-94 56q-41 23 -59.5 56.5t-18.5 106.5v177q0 25 23 24h246q18 0 18 -20v-45q0 -20 -18 -21h-170v-121q0 -31 7 -49t26.5 -36.5t53 -40t89.5 -58.5q6 -4 6 -12v-52q0 -12 -12 -14q-90 -16 -141.5 -63t-51.5 -146v-45 q0 -104 78 -168.5t248 -64.5q158 0 238.5 67.5t80.5 233.5v637q0 18 21 18h57q20 0 21 -18v-637q0 -190 -104.5 -288.5t-276.5 -98.5h-76q-98 0 -170 26.5t-119 70.5t-70.5 101.5t-23.5 120.5z" />
<glyph unicode="&#xe23;" horiz-adv-x="983" d="M106 750v45q0 113 85 175t233 62h350q18 0 19 -20v-45q0 -20 -19 -21h-354q-113 0 -164 -43t-51 -133q0 -68 32.5 -104.5t98.5 -53.5l258 -65q72 -18 121 -39t79.5 -49.5t44 -66.5t13.5 -91v-37q0 -135 -85 -199.5t-232 -64.5h-365q-18 0 -18 20v46q0 20 18 20h360 q104 0 164 43t60 141q0 80 -39 121t-137 64l-254 59q-104 23 -161 86.5t-57 149.5z" />
<glyph unicode="&#xe24;" horiz-adv-x="1167" d="M102 963v49q0 14 15 14q86 6 148.5 9t111.5 5t91 3t87 1q219 0 323.5 -103t104.5 -306v-985q0 -18 -20 -19h-58q-20 0 -20 19v985q0 160 -75 240.5t-251 80.5q-35 0 -66.5 -1t-56.5 -3q-29 -2 -55 -4q-39 -41 -63.5 -70.5t-39 -59.5t-20.5 -64.5t-6 -81.5v-586h170 q18 0 18 -20v-46q0 -20 -18 -20h-246q-23 0 -22 25v661q0 80 27.5 135.5t92.5 122.5q-35 0 -65 2q-27 0 -52.5 1t-37.5 1q-16 0 -17 15z" />
<glyph unicode="&#xe25;" horiz-adv-x="1112" d="M102 250v67q0 156 84 221.5t263 65.5q117 0 204.5 -31.5t175.5 -72.5v176q0 59 -18 111.5t-55 90t-94.5 59t-135.5 21.5h-333q-18 0 -19 21v45q0 20 19 20h339q98 0 172 -26.5t123.5 -74.5t75 -112.5t25.5 -140.5v-672q0 -18 -21 -18h-57q-20 0 -21 18v381 q-78 45 -163.5 82t-206.5 37q-80 0 -131.5 -10t-80 -33.5t-38.5 -61.5t-10 -96v-57q0 -88 33.5 -131t93.5 -43h88q18 0 18 -20v-46q0 -20 -18 -20h-88q-100 0 -162 70.5t-62 179.5z" />
<glyph unicode="&#xe26;" horiz-adv-x="1171" d="M29 20v46q0 20 18 20h129v600q0 39 3 72t13.5 63.5t30 59t51.5 63.5q-31 0 -57 2q-25 0 -50.5 1t-47.5 1q-16 0 -17 15v49q0 14 15 14q86 6 148.5 9t111.5 5t91 3t87 1q219 0 323.5 -103t104.5 -306v-985q0 -18 -20 -19h-58q-20 0 -20 19v985q0 160 -75 240.5t-251 80.5 q-35 0 -66.5 -1t-56.5 -3q-29 -2 -55 -4q-39 -41 -60.5 -70.5t-31.5 -59.5t-12.5 -64.5t-2.5 -81.5v-647q0 -25 -22 -25h-205q-18 0 -18 20z" />
<glyph unicode="&#xe27;" horiz-adv-x="983" d="M92 965v45q0 20 19 20h340q176 0 267 -89t91 -269v-295q0 -205 -100.5 -291t-284.5 -86h-252q-18 0 -18 20v46q0 20 18 20h252q150 0 219.5 65.5t69.5 225.5v293q0 133 -62.5 203.5t-204.5 70.5h-335q-18 0 -19 21z" />
<glyph unicode="&#xe28;" horiz-adv-x="1171" d="M133 18v617q0 197 103.5 303t285.5 106h78q109 0 195 -40l219 40h30q18 0 19 -20v-51q0 -20 -19 -21l-163 -12q53 -53 80.5 -130t27.5 -175v-617q0 -18 -20 -18h-58q-20 0 -20 18v617q0 166 -76 244.5t-254 78.5t-254 -78.5t-76 -244.5v-289l84 115q29 39 50.5 64.5 t41 40t40 19.5t49.5 5h125q27 0 26 -23v-45q0 -25 -22 -24h-117q-37 0 -59.5 -15.5t-61.5 -70.5l-156 -211v-183q0 -18 -20 -18h-57q-20 0 -21 18z" />
<glyph unicode="&#xe29;" horiz-adv-x="1171" d="M131 375v637q0 18 21 18h57q20 0 20 -18v-637q0 -158 78 -229.5t252 -71.5t252 71.5t78 229.5v153h-246q-18 0 -18 21v45q0 20 18 20h246v398q0 18 20 18h58q20 0 20 -18v-398h94q18 0 19 -20v-45q0 -20 -19 -21h-94v-153q0 -197 -103.5 -292t-285.5 -95h-78 q-182 0 -285.5 95t-103.5 292z" />
<glyph unicode="&#xe2a;" horiz-adv-x="1112" d="M102 250v67q0 156 84 221.5t263 65.5q117 0 204.5 -31.5t175.5 -72.5v176q0 59 -18 111.5t-55 90t-94.5 59t-135.5 21.5h-333q-18 0 -19 21v45q0 20 19 20h339q61 0 113.5 -11t95.5 -32l234 43h31q18 0 18 -20v-51q0 -20 -18 -21l-177 -12q49 -47 74 -111.5t25 -138.5 v-672q0 -18 -21 -18h-57q-20 0 -21 18v381q-78 45 -163.5 82t-206.5 37q-80 0 -131.5 -10t-80 -33.5t-38.5 -61.5t-10 -96v-57q0 -88 33.5 -131t93.5 -43h88q18 0 18 -20v-46q0 -20 -18 -20h-88q-100 0 -162 70.5t-62 179.5z" />
<glyph unicode="&#xe2b;" horiz-adv-x="1185" d="M178 18v994q0 18 21 18h57q20 0 20 -18v-443l455 172q74 29 113 78t39 144v49q0 18 20 18h58q20 0 20 -18v-49q0 -63 -11.5 -110.5t-35 -81.5t-58 -58.5t-79.5 -42.5l-95 -39l328 -606q4 -10 1 -17.5t-13 -7.5h-70q-14 0 -19 4t-11 16l-304 580l-338 -123v-459 q0 -18 -20 -18h-57q-20 0 -21 18z" />
<glyph unicode="&#xe2c;" horiz-adv-x="1396" d="M127 352v660q0 18 20 18h58q20 0 20 -18v-654q0 -86 10.5 -141t34 -87t60.5 -44t90 -12h31q47 0 78.5 16t50 44t26.5 63.5t8 72.5v516q0 18 21 19h51q20 0 21 -19v-516q0 -33 7 -67.5t28.5 -63t63.5 -47t112 -18.5h22q94 0 138 55t44 176v336q0 57 -30.5 104.5 t-118.5 63.5q-12 2 -12 14v47q0 8 8 15q94 47 123.5 83t29.5 66v101q0 18 21 18h57q20 0 21 -18v-101q0 -53 -16.5 -81.5t-57.5 -55.5l-64 -41q78 -18 108 -77.5t30 -131.5v-342q0 -152 -64.5 -234.5t-208.5 -82.5h-41q-92 0 -149.5 28.5t-85.5 100.5q-16 -51 -68.5 -90 t-154.5 -39h-50q-59 0 -109 19.5t-86 62.5t-56.5 112.5t-20.5 169.5z" />
<glyph unicode="&#xe2d;" horiz-adv-x="1107" d="M129 293v250q0 25 23 24h245q18 0 19 -20v-45q0 -20 -19 -21h-170v-188q0 -43 14.5 -81t46 -65.5t85 -44t133.5 -16.5q162 0 249 79t87 263v248q0 59 -18.5 111.5t-56.5 90t-95.5 59t-132.5 21.5h-351q-18 0 -18 21v45q0 20 18 20h357q94 0 167.5 -26.5t125 -74.5 t77 -112.5t25.5 -140.5v-262q0 -98 -27.5 -177t-79 -134.5t-125 -86t-165.5 -30.5h-86q-74 0 -134.5 24.5t-103.5 65.5t-66.5 93.5t-23.5 109.5z" />
<glyph unicode="&#xe2e;" horiz-adv-x="1107" d="M129 293v250q0 25 23 24h245q18 0 19 -20v-45q0 -20 -19 -21h-170v-188q0 -43 14.5 -81t46 -65.5t85 -44t133.5 -16.5q162 0 249 79t87 263v248q0 59 -18.5 111.5t-56.5 90t-95.5 59t-132.5 21.5h-351q-18 0 -18 21v45q0 20 18 20h357q59 0 111.5 -11t95.5 -32l229 43h31 q18 0 18 -20v-51q0 -20 -18 -21l-172 -12q49 -47 74.5 -111.5t25.5 -138.5v-262q0 -98 -27.5 -177t-79 -134.5t-125 -86t-165.5 -30.5h-86q-74 0 -134.5 24.5t-103.5 65.5t-66.5 93.5t-23.5 109.5z" />
<glyph unicode="&#xe2f;" horiz-adv-x="1185" d="M131 778v64q0 98 62.5 150t173.5 52h94q23 0 22 -22v-37q0 -27 -22 -27h-92q-59 0 -97.5 -25.5t-38.5 -96.5v-54q0 -156 140 -155q47 0 91 17.5t91 41.5l289 148v188q0 23 24 22h54q25 0 24 -22v-586q0 -209 -103.5 -322.5t-295.5 -113.5h-248q-23 0 -23 25v34 q0 14 9.5 20.5t19.5 6.5h223q176 0 246 87t70 263v297l-260 -139q-51 -29 -100.5 -44t-116.5 -15q-125 0 -180.5 66.5t-55.5 176.5z" />
<glyph unicode="&#xe30;" horiz-adv-x="755" d="M111 166v176q0 23 22 23h45q20 0 25 -23v-109h364q23 0 23 -22v-45q0 -25 -25 -25h-430q-25 0 -24 25zM111 735v176q0 23 22 23h45q20 0 25 -23v-108h364q23 0 23 -23v-45q0 -25 -25 -24h-430q-25 0 -24 24z" />
<glyph unicode="&#xe31;" d="M-582 1270v190q0 18 21 19h51q20 0 21 -19v-133h675q18 0 19 -20v-41q0 -20 -19 -21h-743q-25 0 -25 25z" />
<glyph unicode="&#xe32;" horiz-adv-x="921" d="M0 725v27q0 57 21.5 109t61.5 93t99.5 65.5t132.5 24.5h86q182 0 265.5 -94t83.5 -272v-660q0 -18 -21 -18h-57q-20 0 -21 18v660q0 152 -65.5 216t-220.5 64q-80 0 -131.5 -16t-81 -44t-42 -65.5t-12.5 -80.5v-27q0 -18 -20 -18h-58q-20 0 -20 18z" />
<glyph unicode="&#xe33;" horiz-adv-x="921" d="M-477 1341q0 100 54 144.5t140 44.5t140.5 -44.5t54.5 -144.5q0 -92 -52.5 -138t-142.5 -46t-142 46t-52 138zM-393 1343q0 -59 28.5 -83.5t81.5 -24.5t82 24.5t29 83.5q0 104 -111 105q-111 0 -110 -105zM0 725v27q0 57 21.5 109t61.5 93t99.5 65.5t132.5 24.5h86 q182 0 265.5 -94t83.5 -272v-660q0 -18 -21 -18h-57q-20 0 -21 18v660q0 152 -65.5 216t-220.5 64q-80 0 -131.5 -16t-81 -44t-42 -65.5t-12.5 -80.5v-27q0 -18 -20 -18h-58q-20 0 -20 18z" />
<glyph unicode="&#xe34;" d="M-991 1266v41q0 20 18 20h750q18 0 18 -20v-41q0 -20 -18 -21h-750q-18 0 -18 21z" />
<glyph unicode="&#xe35;" d="M-991 1266v41q0 20 18 20h676v154q0 18 21 18h51q20 0 20 -18v-211q0 -25 -24 -25h-744q-18 0 -18 21z" />
<glyph unicode="&#xe36;" d="M-991 1266v41q0 20 18 20h486q-4 6 -7 14q-6 14 -6 41q0 76 43 111t115 35t115 -35t43 -111q0 -78 -41 -107.5t-117 -29.5h-631q-18 0 -18 21zM-412 1384q0 -70 70 -69q70 -1 70 69t-70 70t-70 -70z" />
<glyph unicode="&#xe37;" d="M-991 1266v41q0 20 18 20h461v154q0 18 20 18h41q20 0 21 -18v-154h143v154q0 18 21 18h41q20 0 20 -18v-211q0 -25 -24 -25h-744q-18 0 -18 21z" />
<glyph unicode="&#xe38;" d="M-414 -193q0 20 19 21h178q23 0 22 -25v-348q0 -23 -22 -22h-47q-20 0 -21 22v297h-110q-18 0 -19 21v34z" />
<glyph unicode="&#xe39;" d="M-721 -193q0 20 19 21h131q23 0 22 -25v-139q0 -76 33 -112.5t104 -36.5q61 0 99.5 34.5t38.5 128.5v127q0 23 18 23h49q23 0 23 -23v-139q0 -111 -56.5 -165t-154.5 -54h-35q-102 0 -151.5 58.5t-49.5 146.5v100h-71q-18 0 -19 21v34z" />
<glyph unicode="&#xe3a;" d="M-365 -195q4 25 27 25h119q20 0 20 -25v-116q0 -25 -22 -25h-119q-25 0 -25 25v116z" />
<glyph unicode="&#xe3f;" horiz-adv-x="1308" d="M215 23v1355q0 25 23 25h319v266q0 23 23 23h57q8 0 15 -6.5t7 -16.5v-266h125q80 0 143.5 -24.5t107.5 -65.5t67.5 -97.5t23.5 -119.5v-78q0 -104 -53 -182t-168 -105q129 -18 191.5 -100t62.5 -199v-88q0 -76 -24.5 -138.5t-73.5 -108.5t-125 -71.5t-178 -25.5h-99 v-266q0 -23 -22 -23h-57q-23 0 -23 23v266h-317q-25 0 -25 23zM317 92h424q150 0 233 54.5t83 191.5v98q0 117 -79 181.5t-216 64.5h-445v-590zM317 774h412q147 0 221 65.5t74 184.5v57q0 104 -62.5 167t-170.5 63h-474v-537z" />
<glyph unicode="&#xe40;" horiz-adv-x="522" d="M133 229v783q0 18 21 18h57q20 0 20 -18v-783q0 -84 25 -113.5t80 -29.5h45q18 0 18 -20v-46q0 -20 -18 -20h-45q-104 0 -153.5 60.5t-49.5 168.5z" />
<glyph unicode="&#xe41;" horiz-adv-x="989" d="M133 229v783q0 18 21 18h57q20 0 20 -18v-783q0 -84 25 -113.5t80 -29.5h45q18 0 18 -20v-46q0 -20 -18 -20h-45q-104 0 -153.5 60.5t-49.5 168.5zM621 229v783q0 18 20 18h57q20 0 21 -18v-783q0 -84 24.5 -113.5t79.5 -29.5h45q18 0 19 -20v-46q0 -20 -19 -20h-45 q-104 0 -153 60.5t-49 168.5z" />
<glyph unicode="&#xe42;" horiz-adv-x="542" d="M-80 1288v64q0 59 20.5 103t54.5 74t79 44t94 14h84q117 0 191.5 -60.5t74.5 -176.5v-43q0 -18 -20 -19h-58q-20 0 -20 19v47q0 84 -47 115.5t-168 31.5q-59 0 -95 -10t-55.5 -30.5t-27 -53.5t-7.5 -78v-51l187 -197q16 -16 20 -29.5t4 -41.5v-781q0 -84 25 -113.5 t80 -29.5h45q18 0 18 -20v-46q0 -20 -18 -20h-45q-104 0 -153.5 60.5t-49.5 168.5v797l-184 197q-18 20 -23.5 30.5t-5.5 34.5z" />
<glyph unicode="&#xe43;" horiz-adv-x="522" d="M-92 1307v43q0 117 64.5 177t181.5 60h84q49 0 94 -14t78.5 -44t54 -74t20.5 -103v-54q0 -25 -6 -39t-22 -36l-226 -320v-674q0 -84 25 -113.5t80 -29.5h45q18 0 18 -20v-46q0 -20 -18 -20h-45q-104 0 -153.5 60.5t-49.5 168.5v658q0 27 6 40t19 31l227 320v51 q0 45 -7 78t-26.5 53.5t-56.5 30.5t-94 10q-59 0 -97 -7t-59.5 -24.5t-30 -46t-8.5 -69.5v-47q0 -18 -20 -19h-58q-20 0 -20 19z" />
<glyph unicode="&#xe44;" horiz-adv-x="522" d="M-41 1485v37q0 23 21 22h520q18 0 18 -18v-37q0 -10 -6 -13t-18 -8q-131 -39 -197 -133t-66 -260v-846q0 -84 25 -113.5t80 -29.5h45q18 0 18 -20v-46q0 -20 -18 -20h-45q-104 0 -153.5 60.5t-49.5 168.5v846q0 82 18.5 146.5t48 112.5t67.5 81t79 53q-4 -2 -39 -6 t-102 -4h-225q-20 0 -21 27z" />
<glyph unicode="&#xe45;" horiz-adv-x="921" d="M0 725v27q0 57 21.5 109t61.5 93t99.5 65.5t132.5 24.5h86q182 0 265.5 -94t83.5 -272v-1030q0 -18 -21 -19h-57q-20 0 -21 19v1030q0 152 -65.5 216t-220.5 64q-80 0 -131.5 -16t-81 -44t-42 -65.5t-12.5 -80.5v-27q0 -18 -20 -18h-58q-20 0 -20 18z" />
<glyph unicode="&#xe46;" horiz-adv-x="1024" d="M20 745v80q0 57 17.5 99.5t48.5 69t71 38.5t85 12q68 0 107.5 -26.5t56.5 -42.5h6q16 18 60 43.5t114 25.5q111 0 162 -58t51 -161v-1177q0 -18 -21 -19h-57q-20 0 -21 19v1169q0 66 -28.5 100.5t-93.5 34.5q-59 0 -93 -22.5t-57 -52.5h-39q-23 31 -54.5 53t-94.5 22 q-57 0 -89 -36.5t-32 -98.5v-65q0 -72 27.5 -100.5t97.5 -28.5h118q18 0 19 -23v-45q0 -18 -19 -18h-118q-121 0 -172.5 58t-51.5 150z" />
<glyph unicode="&#xe47;" d="M-936 1432v22q0 104 75 158.5t210 54.5h202q70 0 93.5 19.5t23.5 60.5v16q0 18 19 19h57q20 0 20 -19v-22q0 -86 -51 -121t-174 -35h-186q-115 0 -156 -32.5t-41 -98.5v-20q0 -66 29 -97.5t94 -31.5q23 0 45.5 9t42 21.5t34.5 24.5t28 20h59q23 -23 62.5 -49t87.5 -26 q31 0 62.5 4t43.5 4q8 0 11 -3t7 -16q4 -14 7.5 -27.5t5.5 -25.5q2 -18 -21 -18h-108q-78 0 -123 26.5t-62 46.5h-6q-8 -6 -24.5 -18t-42 -24.5t-57 -21.5t-70.5 -9q-100 0 -148.5 58t-48.5 151z" />
<glyph unicode="&#xe48;" d="M-299 1620v240q0 12 5 15t15 3h50q10 0 15 -3t5 -15v-240q0 -12 -5 -15t-15 -3h-50q-10 0 -15 3t-5 15z" />
<glyph unicode="&#xe49;" d="M-508 1765v33q0 10 2 15.5t12 5.5h201q20 0 21 -21v-129h309q10 0 12 -5t2 -15v-35q0 -12 -2 -16.5t-12 -4.5h-367q-10 0 -17 7.5t-7 17.5v125h-140q-10 0 -12 6t-2 16z" />
<glyph unicode="&#xe4a;" d="M-791 1702q0 78 49.5 119t112.5 41q53 0 87 -25t50 -37h7q16 14 51 38t88 24q68 0 104.5 -45t36.5 -138q41 0 78 29t37 100v90q0 16 20 17h56q23 0 22 -17v-75q0 -47 -13 -88t-43 -72t-79 -49.5t-123 -18.5h-26q-16 0 -17 21v84q0 76 -72 76q-35 0 -61.5 -19.5 t-42.5 -36.5h-39q-16 16 -46 36t-58 20q-39 0 -61.5 -18.5t-22.5 -57.5q0 -37 6 -58q2 -12 6 -24q4 -10 -5 -16.5t-20 -6.5h-45q-14 0 -22 19q-4 12 -9.5 42t-5.5 46z" />
<glyph unicode="&#xe4b;" d="M-449 1765v37q0 10 2.5 15.5t14.5 5.5h135v125q0 12 5 14t16 2h45q10 0 15 -2t5 -14v-125h135q12 0 14.5 -5.5t2.5 -15.5v-37q0 -10 -2 -15t-15 -5h-135v-127q0 -12 -5 -14t-15 -2h-45q-10 0 -15.5 2t-5.5 14v127h-135q-12 0 -14.5 5t-2.5 15z" />
<glyph unicode="&#xe4c;" d="M-498 1616v88q0 66 49.5 104.5t114.5 38.5h244q25 0 18 -24l-12 -43q-6 -25 -25 -25h-227q-63 0 -63 -63v-76q0 -14 -19 -14h-61q-10 0 -14.5 2t-4.5 12z" />
<glyph unicode="&#xe4d;" d="M-477 1341q0 100 54 144.5t140 44.5t140.5 -44.5t54.5 -144.5q0 -92 -52.5 -138t-142.5 -46t-142 46t-52 138zM-393 1343q0 -59 28.5 -83.5t81.5 -24.5t82 24.5t29 83.5q0 104 -111 105q-111 0 -110 -105z" />
<glyph unicode="&#xe4e;" />
<glyph unicode="&#xe4f;" horiz-adv-x="1052" d="M141 406q0 82 31 152.5t84 123.5t124 84t152 31q80 0 152 -31t125 -84t84 -124t31 -152q0 -84 -31 -156t-84 -125t-125 -84t-152 -31q-82 0 -152.5 31t-123.5 84t-84 125t-31 156zM201 406q0 -70 25.5 -130.5t70.5 -106.5t105 -72.5t130 -26.5q68 0 128.5 26.5 t105.5 72.5t71.5 106.5t26.5 130.5q0 68 -26.5 128t-71.5 105t-105.5 71.5t-128.5 26.5q-70 0 -130 -26.5t-105 -71.5t-70.5 -105.5t-25.5 -127.5zM303 403q0 47 18.5 89.5t49 73t71.5 48t88 17.5t89.5 -18.5t73 -49.5t48 -71.5t17.5 -85.5q0 -49 -18.5 -91.5t-49.5 -73 t-72 -48t-86 -17.5q-47 0 -89 18.5t-72.5 49t-49 71.5t-18.5 88z" />
<glyph unicode="&#xe50;" horiz-adv-x="1191" d="M123 475v84q0 113 23.5 204t75.5 153.5t135 96.5t204 34h70q121 0 204 -34t135 -96.5t75.5 -153.5t23.5 -204v-84q0 -115 -23.5 -205t-75.5 -152.5t-135 -96t-204 -33.5h-70q-121 0 -204 33.5t-135 96t-75.5 152.5t-23.5 205zM225 475q0 -98 16.5 -173t55.5 -126 t102.5 -76.5t159.5 -25.5h74q94 0 158.5 25.5t103.5 76.5t55.5 126t16.5 173v84q0 98 -16.5 173t-55.5 126t-103.5 77t-158.5 26h-74q-96 0 -159.5 -26t-102.5 -77t-55.5 -126t-16.5 -173v-84z" />
<glyph unicode="&#xe51;" horiz-adv-x="1202" d="M123 600v90q0 90 31.5 157.5t89 113t134.5 68t169 22.5h82q213 0 331.5 -94.5t118.5 -301.5v-235q0 -92 -30.5 -169t-88 -133.5t-139.5 -87t-182 -30.5h-463q-16 0 -16 27v34q0 25 22 25h443q166 0 259 85t93 261v223q0 68 -17.5 124.5t-60.5 97.5t-116.5 64.5 t-188.5 23.5q-106 0 -177 -20.5t-114 -57.5t-60.5 -87t-17.5 -110v-90q0 -160 144 -160h198q20 0 21 -26v-37q0 -23 -21 -23h-219q-43 0 -84 14.5t-72.5 44t-50 76t-18.5 111.5z" />
<glyph unicode="&#xe52;" horiz-adv-x="1382" d="M154 381v788q0 23 24 23h53q25 0 25 -23v-788q0 -156 61.5 -222.5t212.5 -66.5h299q160 0 228.5 70.5t68.5 218.5v436q0 84 -35.5 109.5t-93.5 25.5q-86 0 -135 -65h-47q-49 66 -137 65q-61 0 -95 -30.5t-34 -124.5v-123q0 -72 33.5 -111t111.5 -39h99q10 0 14 -2t4 -14 v-55q0 -10 -4 -12.5t-14 -2.5h-99q-117 0 -180 56.5t-63 173.5v139q0 59 18 104t49 75t71 44t83 14q68 0 106.5 -26.5t57.5 -42.5h6q16 18 55 43.5t109 25.5q123 0 173 -63t50 -156v-444q0 -197 -99.5 -289t-279.5 -92h-338q-180 0 -269 92t-89 289z" />
<glyph unicode="&#xe53;" horiz-adv-x="1284" d="M123 252v467q0 156 64.5 239.5t195.5 83.5h47q88 0 141.5 -40.5t73.5 -100.5q20 53 76.5 97t148.5 44h39q125 0 188.5 -77.5t63.5 -251.5v-690q0 -23 -22 -23h-58q-23 0 -22 23v690q0 74 -14.5 121t-38 74.5t-56 37.5t-69.5 10h-21q-76 0 -124 -53t-48 -147v-508 q0 -23 -22 -23h-54q-23 0 -22 19v512q0 92 -39 146t-125 54h-29q-37 0 -68.5 -11t-55 -38.5t-36 -75t-12.5 -118.5v-451q0 -100 40 -140t124 -40h78q20 0 20 -23v-41q0 -18 -20 -18h-96q-111 0 -179.5 67.5t-68.5 184.5z" />
<glyph unicode="&#xe54;" horiz-adv-x="1236" d="M123 301v358q0 86 28.5 156t81 117t125 72.5t158.5 25.5h434q12 0 25.5 11.5t30.5 27.5q33 33 32 49v53q0 20 19 21h69q18 0 19 -18v-54q0 -23 -9.5 -46t-41.5 -58q-43 -49 -66.5 -63.5t-46.5 -14.5h-461q-147 0 -221 -72.5t-74 -208.5v-356q0 -229 203 -229h68 q74 0 131 42t57 124v297q0 23 25 22h227q14 0 16 -4t2 -14v-43q0 -10 -2 -15.5t-14 -5.5h-152v-237q0 -72 37 -114t123 -42h160q25 0 24 -23v-36q0 -23 -24 -23h-197q-72 0 -115.5 35t-60.5 78q-16 -41 -71.5 -82t-155.5 -41h-86q-63 0 -117.5 17.5t-94.5 55t-62.5 96 t-22.5 142.5z" />
<glyph unicode="&#xe55;" horiz-adv-x="1236" d="M123 301v358q0 86 28.5 156t81 117t125 72.5t158.5 25.5h55q-2 4 -4 12t-2 31q0 76 44 107.5t116 31.5t116 -31.5t44 -107.5q0 -10 -1 -17t-1 -14q-2 -8 -2 -12h69q12 0 25.5 11.5t30.5 27.5q33 33 32 49v53q0 20 19 21h69q18 0 19 -18v-54q0 -23 -9.5 -46t-41.5 -58 q-43 -49 -66.5 -63.5t-46.5 -14.5h-461q-147 0 -221 -72.5t-74 -208.5v-356q0 -229 203 -229h68q74 0 131 42t57 124v297q0 23 25 22h227q14 0 16 -4t2 -14v-43q0 -10 -2 -15.5t-14 -5.5h-152v-237q0 -72 37 -114t123 -42h160q25 0 24 -23v-36q0 -23 -24 -23h-197 q-72 0 -115.5 35t-60.5 78q-16 -41 -71.5 -82t-155.5 -41h-86q-63 0 -117.5 17.5t-94.5 55t-62.5 96t-22.5 142.5zM662 1075q0 -63 63 -63t63 63t-63 64q-63 0 -63 -64z" />
<glyph unicode="&#xe56;" horiz-adv-x="1202" d="M123 801v370q0 20 22 21h60q20 0 20 -21v-286l123 92q41 29 82 41t111 12h159q88 0 159 -25.5t120 -71.5t74.5 -107.5t25.5 -133.5v-276q0 -209 -103.5 -312.5t-295.5 -103.5h-229q-66 0 -121.5 19.5t-97.5 58.5t-65.5 97t-23.5 134v68q0 25 23 24h53q27 0 27 -24v-68 q0 -92 54 -154.5t177 -62.5h189q160 0 235.5 74t75.5 250v264q0 121 -66.5 189.5t-224.5 68.5h-111q-59 0 -99 -7t-89 -44l-180 -131q-12 -10 -18.5 -9t-18.5 7l-31 14q-12 6 -14 11t-2 22z" />
<glyph unicode="&#xe57;" horiz-adv-x="1564" d="M123 252v487q0 133 65.5 218t173.5 85h48q88 0 133 -44t61 -117q16 70 64.5 115.5t140.5 45.5h39q125 0 178 -80.5t53 -228.5v-641h25q119 0 187.5 75t68.5 247v753q0 25 22 25h56q25 0 24 -21v-757q0 -90 -22.5 -166t-68.5 -131.5t-117.5 -86t-170.5 -30.5h-57 q-49 0 -49 53v680q0 125 -36 174t-132 49h-21q-53 0 -97 -54t-44 -167v-139q0 -23 -22 -23h-54q-23 0 -22 19v143q0 111 -35 166t-98 55h-29q-86 0 -124 -60t-38 -163v-471q0 -82 38 -126t126 -44h74q25 0 24 -26v-43q0 -23 -24 -23h-92q-111 0 -179.5 67.5t-68.5 184.5z " />
<glyph unicode="&#xe58;" horiz-adv-x="1247" d="M123 383v276q0 174 99.5 272.5t273.5 98.5h454q12 0 25.5 11.5t30.5 27.5q33 33 32 49v53q0 20 19 21h69q18 0 19 -18v-54q0 -23 -9.5 -46t-41.5 -58q-43 -49 -66.5 -63.5t-46.5 -14.5h-481q-139 0 -207 -72.5t-68 -208.5v-274q0 -88 10.5 -145.5t34 -92t62.5 -49 t98 -14.5h8q25 0 37 12l143 121q12 12 27 2l141 -111q16 -14 39 -14h31q104 0 145 42t41 159v94q0 63 -28.5 96t-93.5 33h-117q-23 0 -23 23v51q0 18 23 18h135q102 0 154.5 -59.5t52.5 -151.5v-104q0 -166 -73 -229.5t-198 -63.5h-63q-20 0 -39 14l-129 101l-115 -99 q-16 -16 -45 -16h-57q-96 0 -154.5 28.5t-92.5 80t-45 121t-11 153.5z" />
<glyph unicode="&#xe59;" horiz-adv-x="1253" d="M123 252v467q0 78 24.5 138.5t66.5 101t98.5 62t121.5 21.5h47q94 0 161 -48t89 -111q4 29 15.5 55.5t33 47t54 32.5t77.5 12h66q51 0 77.5 19.5t26.5 68.5v51q0 23 21 23h63q23 0 23 -23v-49q0 -86 -54.5 -129t-140.5 -43h-65q-72 0 -110 -52t-38 -179v-275 q0 -162 92 -245q31 -29 55.5 -50.5t48 -35t48.5 -19.5t59 -6h82q25 0 25 -23v-38q0 -25 -25 -25h-73q-66 0 -102 4t-61.5 17.5t-50 38t-69.5 65.5q-43 39 -67.5 73.5t-38 73.5t-17.5 84t-4 105v246q0 119 -52 186.5t-153 67.5h-28q-98 0 -161 -63.5t-63 -184.5v-451 q0 -100 40 -138t124 -38h74q25 0 24 -27v-36q0 -23 -24 -23h-92q-111 0 -179.5 67.5t-68.5 184.5z" />
<glyph unicode="&#xe5b;" horiz-adv-x="1613" />
<glyph unicode="&#x2000;" horiz-adv-x="982" />
<glyph unicode="&#x2001;" horiz-adv-x="1964" />
<glyph unicode="&#x2002;" horiz-adv-x="982" />
<glyph unicode="&#x2003;" horiz-adv-x="1964" />
<glyph unicode="&#x2004;" horiz-adv-x="654" />
<glyph unicode="&#x2005;" horiz-adv-x="491" />
<glyph unicode="&#x2006;" horiz-adv-x="327" />
<glyph unicode="&#x2007;" horiz-adv-x="1288" />
<glyph unicode="&#x2008;" horiz-adv-x="542" />
<glyph unicode="&#x2009;" horiz-adv-x="392" />
<glyph unicode="&#x200a;" horiz-adv-x="109" />
<glyph unicode="&#x200b;" />
<glyph unicode="&#x2010;" horiz-adv-x="919" d="M178 567v51q0 20 19 21h499q18 0 19 -21v-51q0 -20 -19 -20h-499q-18 0 -19 20z" />
<glyph unicode="&#x2011;" horiz-adv-x="919" d="M178 567v51q0 20 19 21h499q18 0 19 -21v-51q0 -20 -19 -20h-499q-18 0 -19 20z" />
<glyph unicode="&#x2012;" horiz-adv-x="919" d="M178 567v51q0 20 19 21h499q18 0 19 -21v-51q0 -20 -19 -20h-499q-18 0 -19 20z" />
<glyph unicode="&#x2013;" horiz-adv-x="1226" d="M186 494v55q0 25 27 24h791q8 0 15 -4t7 -22v-53q0 -23 -22 -23h-793q-25 0 -25 23z" />
<glyph unicode="&#x2014;" horiz-adv-x="1722" d="M186 494v55q2 10 8.5 17t16.5 7h1288q8 0 15.5 -6t7.5 -16v-57q0 -23 -23 -23h-1290q-23 0 -23 23z" />
<glyph unicode="&#x2018;" horiz-adv-x="536" d="M184 995v111q0 29 9 55l53 168q6 18 24 19h33q20 0 21 -19v-334q0 -25 -25 -24h-92q-23 0 -23 24z" />
<glyph unicode="&#x2019;" horiz-adv-x="534" d="M184 989v334q0 25 25 25h92q23 0 23 -25v-111q0 -29 -9 -55l-53 -168q-6 -18 -24 -18h-33q-20 0 -21 18z" />
<glyph unicode="&#x201a;" horiz-adv-x="546" d="M184 123q0 25 25 24h92q23 0 23 -24v-111q0 -29 -9 -55l-53 -168q-6 -18 -24 -18h-33q-20 0 -21 18v334z" />
<glyph unicode="&#x201c;" horiz-adv-x="856" d="M205 995v111q0 29 8 55l53 168q6 18 25 19h33q20 0 20 -19v-334q0 -25 -25 -24h-92q-23 0 -22 24zM526 995v111q0 29 9 55l53 168q6 18 24 19h33q20 0 21 -19v-334q0 -25 -25 -24h-92q-23 0 -23 24z" />
<glyph unicode="&#x201d;" horiz-adv-x="829" d="M154 989v334q0 25 24 25h92q23 0 23 -25v-111q0 -29 -8 -55l-54 -168q-6 -18 -24 -18h-33q-20 0 -20 18zM475 989v334q0 25 25 25h92q23 0 22 -25v-111q0 -29 -8 -55l-53 -168q-6 -18 -25 -18h-32q-20 0 -21 18z" />
<glyph unicode="&#x201e;" horiz-adv-x="866" d="M184 123q0 25 25 24h92q23 0 23 -24v-111q0 -29 -9 -55l-53 -168q-6 -18 -24 -18h-33q-20 0 -21 18v334zM506 123q0 25 24 24h93q23 0 22 -24v-111q0 -29 -8 -55l-53 -168q-6 -18 -25 -18h-33q-20 0 -20 18v334z" />
<glyph unicode="&#x2020;" horiz-adv-x="1173" d="M145 922v49q0 23 23 22h319v385q0 25 25 25h55q23 0 23 -23v-387h319q23 0 23 -22v-49q0 -23 -23 -23h-319v-876q0 -23 -23 -23h-53q-27 0 -27 23v876h-319q-23 0 -23 23z" />
<glyph unicode="&#x2021;" horiz-adv-x="1218" d="M193 432v49q0 23 22 23h320v395h-320q-23 0 -22 23v49q0 23 22 22h320v385q0 25 24 25h53q25 0 25 -21v-389h319q23 0 23 -22v-49q0 -23 -23 -23h-319v-395h319q23 0 23 -23v-49q0 -23 -23 -22h-319v-387q0 -23 -23 -23h-53q-27 0 -26 23v387h-320q-23 0 -22 22z" />
<glyph unicode="&#x2022;" horiz-adv-x="1026" d="M338 563v101q0 63 25.5 92.5t97.5 29.5h88q72 0 97.5 -29.5t25.5 -92.5v-101q0 -63 -25.5 -93t-97.5 -30h-88q-72 0 -97.5 30t-25.5 93z" />
<glyph unicode="&#x2026;" horiz-adv-x="1366" d="M195 25v110q0 25 22 25h111q23 0 22 -25v-110q0 -25 -22 -25h-111q-23 0 -22 25zM606 25v110q0 25 23 25h110q23 0 23 -25v-110q0 -25 -23 -25h-110q-23 0 -23 25zM1018 25v110q0 25 22 25h111q23 0 23 -25v-110q0 -25 -23 -25h-111q-23 0 -22 25z" />
<glyph unicode="&#x202f;" horiz-adv-x="392" />
<glyph unicode="&#x2030;" horiz-adv-x="3031" d="M164 936v164q2 164 87 243.5t238 79.5h58q154 0 239.5 -79.5t85.5 -243.5v-164q-2 -164 -88 -244t-239 -80h-53q-154 0 -240 80t-88 244zM262 938q0 -240 230 -240h53q229 0 229 240v160q0 240 -227 239h-58q-227 0 -227 -239v-160zM709 -88q0 4 2 14.5t6 20.5 q4 12 10 26l586 1516q6 20 26 20h74q18 0 19 -18q0 -12 -10.5 -38t-20.5 -50l-582 -1487q-4 -10 -10 -16t-21 -6h-61q-18 0 -18 18zM1237 311v164q2 164 87 244t239 80h57q154 0 240 -80t86 -244v-164q-2 -164 -88 -243.5t-240 -79.5h-53q-154 0 -240 79.5t-88 243.5z M1335 313q0 -240 230 -239h53q229 0 229 239v160q0 240 -227 240h-57q-227 0 -228 -240v-160zM2138 311v164q2 164 87 244t239 80h57q154 0 240 -80t86 -244v-164q-2 -164 -88 -243.5t-240 -79.5h-53q-154 0 -240 79.5t-88 243.5zM2236 313q0 -240 230 -239h53 q229 0 229 239v160q0 240 -227 240h-57q-227 0 -228 -240v-160z" />
<glyph unicode="&#x2039;" horiz-adv-x="841" d="M180 580v45q2 20 17 30l370 363q8 4 13 4q20 0 20 -25v-73q0 -16 -6 -24.5t-16 -16.5l-304 -281l304 -299q10 -10 16 -18.5t6 -26.5v-59q0 -10 -7 -16.5t-15 -6.5t-13 4l-368 367q-16 16 -17 33z" />
<glyph unicode="&#x203a;" horiz-adv-x="843" d="M219 201v73q0 16 6 24.5t17 16.5l303 281l-303 299q-10 10 -16.5 18.5t-6.5 26.5v59q0 10 7 16.5t16 6.5q8 0 12 -4l369 -367q16 -16 16 -33v-45q-2 -20 -16 -30l-371 -363q-8 -4 -12 -4q-20 0 -21 25z" />
<glyph unicode="&#x2044;" horiz-adv-x="1058" d="M147 -223q0 4 3.5 13t7.5 20l710 1835q8 23 25 22h65q20 0 25 -18q0 -6 -10 -33l-713 -1831q-4 -10 -9 -16.5t-15 -6.5h-64q-25 0 -25 15z" />
<glyph unicode="&#x205f;" horiz-adv-x="491" />
<glyph unicode="&#x20ac;" horiz-adv-x="1249" d="M141 489v52q0 20 19 20h157v232h-157q-18 0 -19 20v51q0 20 19 21h157v61q0 233 106.5 345t307.5 112h356q18 0 19 -21v-51q0 -20 -19 -20h-354q-170 0 -241.5 -92.5t-71.5 -272.5v-61h506q18 0 18 -17q0 -4 -4 -22.5t-8 -34.5q-6 -18 -25 -18h-487v-232h444q18 0 19 -16 q0 -4 -4.5 -22.5t-8.5 -35.5q-6 -18 -24 -18h-426v-53q0 -158 83 -241t228 -83h356q18 0 19 -20v-52q0 -20 -19 -20h-354q-201 0 -308.5 101.5t-107.5 314.5v53h-157q-18 0 -19 20z" />
<glyph unicode="&#x2122;" horiz-adv-x="1744" d="M39 1378v43q0 23 20 23h582q23 0 23 -23v-43q0 -20 -21 -20h-231v-746q0 -20 -21 -20h-55q-23 0 -23 20v746h-252q-23 0 -22 20zM707 612l38 807q0 25 19 25h78q18 0 22 -19l283 -477l289 484q4 12 16 12h76q25 0 24 -25l39 -803q0 -25 -20 -24h-62q-12 0 -16 7t-4 17 l-27 693l-266 -463q-12 -20 -29 -21h-37q-16 0 -26 19l-273 465l-22 -695q-2 -23 -16 -22h-70q-8 0 -12 7t-4 13z" />
<glyph unicode="&#x2126;" horiz-adv-x="1345" d="M100 23v47q0 23 25 22h186q-41 20 -77.5 54t-66.5 82t-47.5 113t-17.5 146v502q0 98 33 177t93.5 134.5t144.5 85t188 29.5h164q104 0 188 -29.5t144.5 -85t93.5 -134.5t33 -177v-502q0 -82 -17.5 -146.5t-47 -112.5t-67.5 -81.5t-77 -54.5h186q25 0 25 -22v-47 q0 -23 -23 -23h-415q-25 0 -25 23v47q0 23 22 22h11q59 0 117.5 24.5t104.5 75t74.5 124t28.5 171.5v502q0 147 -97 240.5t-269 93.5h-144q-172 0 -269 -93t-97 -241v-502q0 -98 28.5 -171.5t74.5 -124t104.5 -75t117.5 -24.5h11q23 0 22 -22v-47q0 -23 -24 -23h-416 q-23 0 -23 23z" />
<glyph unicode="&#x2190;" horiz-adv-x="1798" d="M174 586q0 14 27 41l610 608q12 12 28.5 24.5t41.5 12.5h69q23 0 23 -19q0 -10 -12 -22l-609 -592h1247q25 0 25 -25v-55q0 -23 -25 -22h-1251l613 -596q12 -12 12 -23q0 -18 -23 -18h-69q-25 0 -41.5 12t-28.5 25l-610 608q-16 16 -21.5 24.5t-5.5 16.5z" />
<glyph unicode="&#x2191;" horiz-adv-x="1720" d="M174 549v59q0 25 12.5 41.5t24.5 28.5l608 610q27 27 41 27q8 0 16.5 -5t24.5 -22l608 -610q12 -12 24.5 -28.5t12.5 -41.5v-59q0 -23 -18 -23q-10 0 -23 13l-596 612v-1262q0 -25 -22 -24h-56q-25 0 -24 24v1258l-592 -608q-12 -12 -22 -13q-18 0 -19 23z" />
<glyph unicode="&#x2192;" horiz-adv-x="1798" d="M174 559v55q0 25 25 25h1247l-608 592q-12 12 -13 22q0 18 23 19h70q25 0 41 -12.5t28 -24.5l610 -608q27 -27 27 -41q0 -8 -5 -16.5t-22 -24.5l-610 -608q-12 -12 -28.5 -24.5t-40.5 -12.5h-70q-23 0 -23 18q0 10 13 23l612 596h-1251q-25 0 -25 22z" />
<glyph unicode="&#x2193;" horiz-adv-x="1720" d="M174 571v60q0 23 19 22q10 0 22 -12l592 -608v1257q0 25 24 25h56q23 0 22 -25v-1261l596 612q12 12 23 12q18 0 18 -22v-60q0 -25 -12 -41t-25 -28l-608 -611q-27 -27 -41 -26q-14 0 -41 26l-608 611q-12 12 -24.5 28.5t-12.5 40.5z" />
<glyph unicode="&#x2196;" horiz-adv-x="1452" d="M174 164v883q0 20 1 30t9 17q8 10 47 10h883q16 0 36.5 -3t39.5 -22l37 -39q10 -10 10 -18q0 -16 -20 -16h-867l901 -902q8 -8 9 -18q0 -8 -7 -14l-49 -47q-8 -8 -18 -9q-8 0 -17 9l-897 919v-878q0 -23 -18 -23q-8 0 -16 8l-39 37q-18 18 -21.5 38.5t-3.5 37.5z" />
<glyph unicode="&#x2197;" horiz-adv-x="1452" d="M193 86q0 10 8 18l901 902h-866q-20 0 -21 16q0 8 10 18l37 39q18 18 39 21.5t37 3.5h883q39 0 47 -10q8 -6 9 -16.5t1 -30.5v-883q0 -16 -3 -37t-22 -39l-39 -37q-8 -8 -16 -8q-18 0 -18 23v878l-897 -919q-8 -8 -17 -9q-10 0 -18 9l-49 47q-6 6 -6 14z" />
<glyph unicode="&#x2198;" horiz-adv-x="1452" d="M193 1020q0 8 6 14l49 47q8 8 18 9q8 0 17 -9l897 -919v878q0 23 18 23q8 0 16 -8l39 -37q18 -18 21.5 -39t3.5 -37v-883q0 -20 -1 -30.5t-9 -16.5q-8 -10 -47 -10h-883q-16 0 -36.5 3t-39.5 22l-37 39q-10 10 -10 18q0 16 21 16h866l-901 901q-8 8 -8 19z" />
<glyph unicode="&#x2199;" horiz-adv-x="1452" d="M174 59v883q0 16 3 36.5t22 39.5l39 37q8 8 16 8q18 0 18 -23v-878l897 919q8 8 17 9q10 0 18 -9l49 -47q6 -6 7 -14q0 -10 -9 -19l-901 -901h867q20 0 20 -16q0 -8 -10 -18l-37 -39q-18 -18 -39 -21.5t-37 -3.5h-883q-39 0 -47 10q-8 6 -9 16.5t-1 30.5z" />
<glyph unicode="&#x2202;" horiz-adv-x="1198" d="M135 346v272q0 86 31 153t86 114t130 71.5t163 24.5q68 0 125 -13.5t103 -34t81 -47t55 -50.5v71q0 113 -20.5 190t-66.5 123t-120.5 65.5t-185.5 19.5h-283q-12 0 -16 7t-4 17v49q0 25 20 25h285q264 0 381 -116t117 -369v-510q0 -98 -31 -176t-86 -132.5t-129 -83 t-160 -28.5h-80q-92 0 -165.5 30.5t-125 81t-78 115t-26.5 131.5zM242 356q0 -49 17 -97t57 -87t103.5 -62.5t155.5 -23.5q82 0 144.5 25.5t104.5 69.5t63.5 103.5t21.5 129.5v311q-57 61 -146 109.5t-218 48.5q-82 0 -139.5 -21.5t-94.5 -59.5t-53 -89t-16 -111v-246z" />
<glyph unicode="&#x2206;" horiz-adv-x="1392" d="M104 18q-2 4 0 11l521 1343q8 31 37 31h63q27 0 37 -31l520 -1343q4 -29 -14 -29h-1145q-18 0 -19 18zM238 92h919l-461 1188z" />
<glyph unicode="&#x220f;" horiz-adv-x="1134" d="M160 -303q0 12 5 25.5t15 29.5l430 844l-432 842q-6 10 -12 23.5t-6 25.5v41q0 29 26 28h777q23 0 22 -24v-49q0 -25 -22 -25h-676l444 -862l-444 -864h676q23 0 22 -25v-51q0 -23 -22 -23h-762q-16 0 -28.5 7.5t-12.5 29.5v27z" />
<glyph unicode="&#x2211;" horiz-adv-x="1359" d="M166 -344v1876q0 25 24 24h963q23 0 23 -24v-1876q0 -23 -23 -23h-55q-25 0 -25 23v1802h-805v-1802q0 -23 -22 -23h-56q-25 0 -24 23z" />
<glyph unicode="&#x2212;" horiz-adv-x="1228" d="M258 670v55q0 23 25 23h692q25 0 24 -23v-55q0 -25 -24 -25h-692q-25 0 -25 25z" />
<glyph unicode="&#x2219;" horiz-adv-x="1228" d="M426 657v101q0 63 36 103t107 40h88q72 0 108 -40t36 -103v-101q0 -63 -36 -103t-108 -40h-88q-72 0 -107.5 40t-35.5 103z" />
<glyph unicode="&#x221a;" horiz-adv-x="1263" d="M49 965q-14 27 17 26h63q14 0 18.5 -4t8.5 -14l340 -881l411 1290q4 14 13.5 17.5t23.5 3.5h258q14 0 17.5 -4t3.5 -15v-49q0 -18 -21 -18h-221l-406 -1286q-4 -16 -11 -23.5t-23 -7.5h-78q-27 0 -39 31z" />
<glyph unicode="&#x221e;" horiz-adv-x="1665" d="M113 535q0 158 87 242.5t249 84.5q63 0 113 -16.5t92 -48t80 -77.5t79 -104q43 57 82 103.5t82 78t93 48t114 16.5q162 0 249 -85t87 -242q0 -86 -26 -147.5t-70 -101.5t-105.5 -58.5t-132.5 -18.5q-127 0 -211 64.5t-158 181.5q-76 -117 -160 -181.5t-211 -64.5 q-72 0 -133 18.5t-105 58.5t-69.5 101.5t-25.5 147.5zM219 535q0 -125 64.5 -179.5t162.5 -54.5q37 0 73 9t74 36t79 72t84 117q-47 72 -88 117.5t-78 71.5t-71 36t-70 10q-106 0 -166 -56.5t-64 -178.5zM877 535q43 -72 83.5 -117t78.5 -72t74 -36t73 -9q98 0 162.5 54.5 t64.5 179.5q-4 123 -63.5 179t-165.5 56q-37 0 -71 -10t-70.5 -36t-77.5 -72t-88 -117z" />
<glyph unicode="&#x222b;" horiz-adv-x="616" d="M10 -305q0 16 19 16h73q82 0 121 40t39 138v1338q0 100 58.5 158.5t162.5 58.5h115q18 0 18 -21v-37q0 -20 -18 -20h-117q-57 0 -89 -28.5t-32 -100.5v-1348q0 -139 -73.5 -197.5t-184.5 -58.5h-75q-12 0 -14.5 6.5t-2.5 16.5v39z" />
<glyph unicode="&#x2248;" horiz-adv-x="1228" d="M256 551v43q0 16 6 23.5t14 11.5q29 16 69 30.5t81 14.5q57 0 100 -7.5t103 -27.5q57 -18 102 -38.5t94 -20.5q41 0 67 9t50 19q16 6 24.5 10.5t14.5 4.5q16 0 16 -19v-41q0 -14 -6 -21t-14 -14q-27 -16 -67 -30.5t-93 -14.5t-100 11.5t-92 29.5q-59 25 -107.5 39.5 t-105.5 14.5q-35 0 -61.5 -11.5t-51.5 -21.5q-10 -4 -14 -7t-11 -3q-18 0 -18 16zM256 795v43q0 16 6 23t14 11q29 16 69 31t81 15q57 0 100 -7.5t103 -27.5q57 -18 102 -39t94 -21q41 0 67 9.5t50 19.5q16 6 24.5 10t14.5 4q16 0 16 -18v-41q0 -14 -6 -21.5t-14 -13.5 q-27 -16 -67 -30.5t-93 -14.5t-100 11.5t-92 29.5q-59 25 -107.5 39t-105.5 14q-35 0 -59.5 -10t-53.5 -23q-10 -4 -14 -7t-11 -3q-18 0 -18 17z" />
<glyph unicode="&#x2260;" horiz-adv-x="1228" d="M256 502v49q0 25 18 24h256l76 252h-332q-18 0 -18 25v49q0 23 18 23h363q12 41 23.5 82t27.5 88q6 23 23 22h65q16 0 17 -12q0 -2 -1 -8t-6.5 -24.5t-15.5 -53.5t-29 -94h238q18 0 18 -23v-49q0 -25 -18 -25h-268q-14 -49 -34 -112.5t-42 -139.5h344q18 0 18 -24v-49 q0 -25 -18 -25h-373l-57 -188q-6 -23 -23 -23h-59q-23 0 -23 15l1 6t7.5 26.5t17.5 59.5t32 104h-228q-18 0 -18 25z" />
<glyph unicode="&#x2264;" horiz-adv-x="1228" d="M334 25v49q0 25 22 24h621q23 0 22 -24v-49q0 -25 -20 -25h-621q-25 0 -24 25zM334 672v71q0 10 16 19l604 321q10 4 18.5 8.5t12.5 4.5q14 0 14 -23v-67q0 -10 -6 -14.5t-16 -8.5l-537 -276l537 -277q10 -4 16 -10t6 -17v-67q0 -18 -12 -19q-4 0 -15 5.5t-22 9.5 l-600 319q-16 8 -16 21z" />
<glyph unicode="&#x2265;" horiz-adv-x="1228" d="M334 25v49q0 25 22 24h621q23 0 22 -24v-49q0 -25 -24 -25h-621q-20 0 -20 25zM334 336v67q0 10 6 16.5t16 10.5l537 277l-537 276q-10 4 -16 8t-6 15v67q0 23 14 23q4 0 12.5 -4.5t18.5 -8.5l604 -321q16 -8 16 -19v-71q0 -12 -16 -21l-600 -319q-10 -4 -21.5 -9.5 t-15.5 -5.5q-12 0 -12 19z" />
<glyph unicode="&#x22c5;" horiz-adv-x="1228" d="M532 668v80q0 43 30 72.5t73 29.5h67q43 0 73 -29.5t30 -72.5v-80q0 -43 -30 -73t-73 -30h-67q-43 0 -73 30t-30 73z" />
<glyph unicode="&#x25ca;" horiz-adv-x="1257" d="M145 676l496 727l496 -727l-498 -727zM250 666l383 -555l393 571l-383 559z" />
<glyph unicode="&#xe000;" horiz-adv-x="993" d="M0 0v993h993v-993h-993z" />
<glyph unicode="&#xf700;" horiz-adv-x="999" d="M76 979v45q0 20 18 20h336q59 0 108.5 -11t90.5 -32l229 43h31q18 0 18 -20v-51q0 -20 -18 -21l-176 -12q47 -49 69.5 -114.5t22.5 -141.5v-289q0 -201 -93.5 -298t-303.5 -97h-148q-23 0 -22 25v415h-134q-18 0 -18 21v45q0 20 18 20h209q23 0 23 -24v-416h72 q162 0 230.5 73.5t68.5 235.5v275q0 59 -15.5 112.5t-49.5 92t-88 61t-130 22.5h-330q-18 0 -18 21z" />
<glyph unicode="&#xf701;" d="M-1176 1266v41q0 20 19 20h729q18 0 18 -20v-41q0 -20 -18 -21h-729q-18 0 -19 21z" />
<glyph unicode="&#xf702;" d="M-1196 1266v41q0 20 18 20h676v154q0 18 21 18h51q20 0 20 -18v-211q0 -25 -24 -25h-744q-18 0 -18 21z" />
<glyph unicode="&#xf703;" d="M-1176 1266v41q0 20 19 20h485q-4 6 -6 14q-6 14 -6 41q0 76 43 111t115 35t114.5 -35t42.5 -111q0 -78 -41 -107.5t-116 -29.5h-631q-18 0 -19 21zM-596 1384q0 -70 70 -69q69 -1 69 69t-69 70q-70 0 -70 -70z" />
<glyph unicode="&#xf704;" d="M-1176 1266v41q0 20 19 20h461v154q0 18 20 18h41q20 0 21 -18v-154h143v154q0 18 20 18h41q20 0 21 -18v-211q0 -25 -25 -25h-743q-18 0 -19 21z" />
<glyph unicode="&#xf705;" d="M-692 1223v280q0 12 5 15.5t15 3.5h54q10 0 15 -3t5 -16v-280q0 -12 -5 -15.5t-15 -3.5h-54q-10 0 -15 3t-5 16z" />
<glyph unicode="&#xf706;" d="M-1020 1376v33q0 20 16 21h199q20 0 21 -21v-129h338q16 0 16 -20v-35q0 -20 -16 -21h-396q-10 0 -17 7.5t-7 17.5v125h-138q-16 0 -16 22z" />
<glyph unicode="&#xf707;" d="M-1241 1307q0 78 49 118.5t113 40.5q53 0 87 -24.5t50 -36.5h6q16 14 51 37.5t88 23.5q68 0 105 -45t37 -137q41 0 77.5 28.5t36.5 100.5v90q0 16 21 17h55q23 0 23 -17v-76q0 -47 -13.5 -88t-43 -71.5t-79 -49t-122.5 -18.5h-27q-16 0 -16 21v84q0 76 -72 75 q-35 0 -61.5 -19.5t-43.5 -35.5h-38q-16 16 -46 35.5t-59 19.5q-39 0 -61.5 -18.5t-22.5 -56.5q0 -37 6 -58q2 -12 6 -24q4 -10 -5 -16.5t-19 -6.5h-45q-14 0 -23 19q-4 12 -9 41.5t-5 46.5z" />
<glyph unicode="&#xf708;" d="M-868 1368v37q0 10 2 15t14 5h135v125q0 12 5 14.5t16 2.5h45q10 0 15 -2t5 -15v-125h135q12 0 14.5 -5t2.5 -15v-37q0 -10 -2 -15t-15 -5h-135v-127q0 -12 -5 -14.5t-15 -2.5h-45q-10 0 -15.5 2t-5.5 15v127h-135q-12 0 -14 5t-2 15z" />
<glyph unicode="&#xf709;" d="M-846 1219v88q0 66 49 104.5t115 38.5h244q25 0 18 -25l-12 -43q-6 -25 -27 -24h-225q-63 0 -64 -64v-75q0 -14 -18 -15h-61q-10 0 -14.5 2t-4.5 13z" />
<glyph unicode="&#xf70a;" d="M-307 1223v280q0 12 5 15.5t15 3.5h54q10 0 15 -3t5 -16v-280q0 -12 -5 -15.5t-15 -3.5h-54q-10 0 -15 3t-5 16z" />
<glyph unicode="&#xf70b;" d="M-610 1376v33q0 20 16 21h199q20 0 20 -21v-129h338q16 0 17 -20v-35q0 -20 -17 -21h-395q-10 0 -17.5 7.5t-7.5 17.5v125h-137q-16 0 -16 22z" />
<glyph unicode="&#xf70c;" d="M-831 1307q0 78 49 118.5t112 40.5q53 0 87 -24.5t51 -36.5h6q16 14 51 37.5t88 23.5q68 0 104.5 -45t36.5 -137q41 0 78 28.5t37 100.5v90q0 16 20 17h56q23 0 22 -17v-76q0 -47 -13 -88t-43 -71.5t-79 -49t-123 -18.5h-26q-16 0 -17 21v84q0 76 -72 75 q-35 0 -61.5 -19.5t-42.5 -35.5h-39q-16 16 -46 35.5t-58 19.5q-39 0 -61.5 -18.5t-22.5 -56.5q0 -37 6 -58q2 -12 6 -24q4 -10 -5 -16.5t-20 -6.5h-45q-14 0 -22 19q-4 12 -9 41.5t-5 46.5z" />
<glyph unicode="&#xf70d;" d="M-479 1368v37q0 10 2 15t14 5h135v125q0 12 5.5 14.5t15.5 2.5h45q10 0 15 -2t5 -15v-125h136q12 0 14 -5t2 -15v-37q0 -10 -2 -15t-14 -5h-136v-127q0 -12 -5 -14.5t-15 -2.5h-45q-10 0 -15.5 2t-5.5 15v127h-135q-12 0 -14 5t-2 15z" />
<glyph unicode="&#xf70e;" d="M-498 1219v88q0 66 49.5 104.5t114.5 38.5h244q25 0 18 -25l-12 -43q-6 -25 -27 -24h-225q-63 0 -63 -64v-75q0 -14 -19 -15h-61q-10 0 -14.5 2t-4.5 13z" />
<glyph unicode="&#xf70f;" horiz-adv-x="1861" d="M115 967v39q0 20 16 20q86 6 146.5 9t107.5 5t87 3t85 1q219 0 313.5 -103t94.5 -306v-260q0 -158 69.5 -229.5t241.5 -71.5t240.5 71.5t68.5 229.5v637q0 18 21 18h57q20 0 20 -18v-637q0 -197 -93 -292t-275 -95h-78q-182 0 -276.5 95t-94.5 292v260q0 80 -15 139.5 t-50 100t-93.5 61t-146.5 20.5q-35 0 -69.5 -1t-63.5 -3q-35 -2 -66 -4q-29 -31 -52 -60.5t-40.5 -62t-27 -73.5t-9.5 -97v-569h170q18 0 19 -20v-46q0 -20 -19 -20h-245q-23 0 -23 25v630q0 80 27.5 151t93.5 138l-125 6q-16 0 -16 17z" />
<glyph unicode="&#xf710;" d="M-930 1270v190q0 18 21 19h51q20 0 20 -19v-133h676q18 0 19 -20v-41q0 -20 -19 -21h-743q-25 0 -25 25z" />
<glyph unicode="&#xf711;" d="M-836 1341q0 100 54.5 144.5t140.5 44.5t140.5 -44.5t54.5 -144.5q0 -92 -52.5 -138t-142.5 -46t-142.5 46t-52.5 138zM-752 1343q0 -59 29 -83.5t82 -24.5t82 24.5t29 83.5q0 104 -111 105q-111 0 -111 -105z" />
<glyph unicode="&#xf712;" d="M-1110 1432v22q0 104 74.5 158.5t210.5 54.5h202q70 0 93.5 19.5t23.5 60.5v16q0 18 19 19h57q20 0 20 -19v-22q0 -86 -51 -121t-174 -35h-186q-115 0 -156 -32.5t-41 -98.5v-20q0 -66 28.5 -97.5t94.5 -31.5q23 0 45.5 9t42 21.5t34.5 24.5t28 20h59q23 -23 62.5 -49 t86.5 -26q31 0 63 4t44 4q8 0 11 -3t7 -16q4 -14 7.5 -27.5t5.5 -25.5q2 -18 -21 -18h-108q-78 0 -123 26.5t-62 46.5h-6q-8 -6 -24.5 -18t-42 -24.5t-57 -21.5t-70.5 -9q-100 0 -148.5 58t-48.5 151z" />
<glyph unicode="&#xf713;" d="M-514 1620v240q0 12 5 15t15 3h50q10 0 15 -3t5 -15v-240q0 -12 -5 -15t-15 -3h-50q-10 0 -15 3t-5 15z" />
<glyph unicode="&#xf714;" d="M-752 1765v33q0 10 2 15.5t13 5.5h200q20 0 21 -21v-129h309q10 0 12 -5t2 -15v-35q0 -12 -2 -16.5t-12 -4.5h-366q-10 0 -17.5 7.5t-7.5 17.5v125h-139q-10 0 -12.5 6t-2.5 16z" />
<glyph unicode="&#xf715;" d="M-991 1702q0 78 49 119t113 41q53 0 86.5 -25t50.5 -37h6q16 14 51 38t88 24q68 0 104.5 -45t36.5 -138q41 0 78 29t37 100v90q0 16 21 17h55q23 0 22 -17v-75q0 -47 -13 -88t-43 -72t-79 -49.5t-123 -18.5h-26q-16 0 -17 21v84q0 76 -71 76q-35 0 -61.5 -19.5 t-43.5 -36.5h-39q-16 16 -45.5 36t-58.5 20q-39 0 -61.5 -18.5t-22.5 -57.5q0 -37 6 -58q2 -12 6 -24q4 -10 -5 -16.5t-19 -6.5h-45q-14 0 -23 19q-4 12 -9 42t-5 46z" />
<glyph unicode="&#xf716;" d="M-657 1765v37q0 10 2 15.5t14 5.5h135v125q0 12 5 14t16 2h45q10 0 15 -2t5 -14v-125h135q12 0 14.5 -5.5t2.5 -15.5v-37q0 -10 -2 -15t-15 -5h-135v-127q0 -12 -5 -14t-15 -2h-45q-10 0 -15.5 2t-5.5 14v127h-135q-12 0 -14 5t-2 15z" />
<glyph unicode="&#xf717;" d="M-676 1616v88q0 66 49 104.5t115 38.5h244q25 0 18 -24l-12 -43q-6 -25 -25 -25h-227q-63 0 -64 -63v-76q0 -14 -18 -14h-61q-10 0 -14.5 2t-4.5 12z" />
<glyph unicode="&#xf718;" d="M-414 -532q0 20 19 20h178q23 0 22 -25v-348q0 -23 -22 -22h-47q-20 0 -21 22v297h-110q-18 0 -19 21v35z" />
<glyph unicode="&#xf719;" d="M-721 -492q0 20 19 21h131q23 0 22 -25v-131q0 -76 33 -112.5t104 -36.5q61 0 99.5 34.5t38.5 129.5v118q0 23 18 23h49q23 0 23 -23v-131q0 -111 -56.5 -165t-154.5 -54h-35q-102 0 -151.5 58.5t-49.5 146.5v92h-71q-18 0 -19 21v34z" />
<glyph unicode="&#xf71a;" d="M-365 -496q4 25 27 25h119q20 0 20 -25v-116q0 -25 -22 -25h-119q-25 0 -25 25v116z" />
<glyph unicode="&#xf71b;" horiz-adv-x="1171" d="M31 20v46q0 20 18 20h129v569q0 53 5 94.5t15.5 75t27 62t40.5 57.5l-135 6q-16 0 -16 17v39q0 20 16 20q86 6 146.5 9t107.5 5t87 3t85 1q219 0 323.5 -103t104.5 -306v-748q0 -135 -67.5 -205.5t-184.5 -70.5h-387q-18 0 -18 20v45q0 20 18 21h361q86 0 133 46t47 144 v748q0 160 -75 240.5t-251 80.5q-35 0 -66.5 -1t-60.5 -3q-33 -2 -61 -4q-29 -31 -47.5 -60.5t-29.5 -62t-15.5 -73.5t-4.5 -97v-630q0 -25 -22 -25h-205q-18 0 -18 20z" />
<glyph unicode="&#xf71c;" horiz-adv-x="1171" d="M31 20v46q0 20 18 20h129v569q0 53 5 94.5t15.5 75t27 62t40.5 57.5l-135 6q-16 0 -16 17v39q0 20 16 20q86 6 146.5 9t107.5 5t87 3t85 1q219 0 324.5 -103t103.5 -306v-868q0 -72 -41 -124.5t-127 -52.5h-92q-16 0 -22.5 3.5t-16.5 13.5l-106 98l-121 -96 q-8 -6 -17.5 -10.5t-25.5 -4.5h-33q-16 0 -28.5 5.5t-22.5 11.5l-129 88q-10 8 -15.5 16.5t5.5 20.5l26 39q6 10 16.5 11t18.5 -3l129 -92q10 -8 27 -8q12 0 28 14l129 110q14 10 27 -2l137 -120q12 -12 35 -13h43q33 0 55.5 19.5t22.5 66.5v877q0 160 -75 240.5t-251 80.5 q-35 0 -66.5 -1t-60.5 -3q-33 -2 -61 -4q-29 -31 -47.5 -60.5t-29.5 -62t-15.5 -73.5t-4.5 -97v-630q0 -25 -22 -25h-205q-18 0 -18 20z" />
<glyph unicode="&#xf71d;" horiz-adv-x="1396" d="M127 352v660q0 18 20 18h58q20 0 20 -18v-654q0 -86 10.5 -141t34 -87t60.5 -44t90 -12h31q47 0 78.5 16t50 44t26.5 63.5t8 72.5v516q0 18 21 19h51q20 0 21 -19v-516q0 -33 7 -67.5t28.5 -63t63.5 -47t112 -18.5h22q94 0 138 55t44 176v213q0 57 -30.5 104.5 t-118.5 63.5q-12 2 -12 14v48q0 8 8 14q94 47 123.5 83t29.5 66v101q0 18 21 18h57q20 0 21 -18v-101q0 -53 -16.5 -81.5t-57.5 -55.5l-64 -41q78 -18 108 -77.5t30 -131.5v-219q0 -152 -64.5 -234.5t-208.5 -82.5h-41q-92 0 -149.5 28.5t-85.5 100.5q-16 -51 -68.5 -90 t-154.5 -39h-50q-59 0 -109 19.5t-86 62.5t-56.5 112.5t-20.5 169.5z" />
<glyph horiz-adv-x="1421" d="M137 358v99q0 68 20.5 118t53.5 84.5t75 55t85 30.5q-84 27 -142.5 103t-58.5 174v68q0 74 27.5 132t77 98t117 61.5t149.5 21.5h309q23 0 22 -23v-49q0 -20 -22 -20h-307q-74 0 -125 -17.5t-83 -48.5t-46.5 -73t-14.5 -93v-49q0 -113 78 -181.5t205 -68.5h420v142 q0 10 2 17t14 15l54 33q14 10 23 4t9 -16v-195h181q23 0 22 -20v-49q0 -23 -22 -23h-181v-282q0 -205 -108.5 -311.5t-296.5 -106.5h-101q-90 0 -168.5 20.5t-138 64.5t-94.5 114.5t-35 170.5zM240 358q0 -143 80.5 -210.5t261.5 -67.5h75q166 0 243 81t77 247v280h-432 q-90 0 -148.5 -15.5t-93.5 -45t-49 -73.5t-14 -99v-97z" />
<glyph horiz-adv-x="1208" d="M172 877q0 4 4 12l338 608q8 18 27 19h73q16 0 27 -19l338 -608q4 -8 4 -12q0 -16 -18 -17h-72q-23 0 -33 23l-280 530l-285 -530q-10 -23 -33 -23h-72q-18 0 -18 17z" />
<glyph horiz-adv-x="624" d="M258 23v1644q0 25 23 25h57q23 0 22 -25v-1644q0 -23 -22 -23h-57q-23 0 -23 23z" />
<glyph horiz-adv-x="1091" d="M168 743q0 16 5 22.5t15 10.5q29 16 62 30.5t80 14.5q53 0 96 -7t96 -28q53 -18 98.5 -38.5t92.5 -20.5q39 0 70.5 12.5t68.5 28.5q2 2 8 2q12 0 17 -14v-107q0 -23 -19 -35q-25 -16 -62.5 -30.5t-88.5 -14.5t-98.5 11.5t-90.5 29.5q-55 25 -102 39.5t-101 14.5 q-35 0 -64.5 -13.5t-55.5 -27.5q-2 -2 -9 -2q-16 0 -16 12z" />
<glyph horiz-adv-x="620" d="M262 23v671q0 25 23 25h57q23 0 23 -25v-671q0 -23 -23 -23h-57q-23 0 -23 23zM262 995v672q0 25 23 25h57q23 0 23 -25v-672q0 -23 -23 -22h-57q-23 0 -23 22z" />
<glyph horiz-adv-x="925" d="M25 -303q0 12 5 25.5t15 29.5l430 844l-432 842q-6 10 -12 23.5t-6 25.5v41q0 29 26 28h776q23 0 23 -24v-49q0 -25 -23 -25h-675l444 -862l-444 -864h675q23 0 23 -25v-51q0 -23 -23 -23h-761q-16 0 -28.5 7.5t-12.5 29.5v27z" />
<glyph horiz-adv-x="1439" d="M215 -344v1876q0 25 25 24h962q23 0 23 -24v-1876q0 -23 -23 -23h-55q-25 0 -25 23v1802h-805v-1802q0 -23 -22 -23h-55q-25 0 -25 23z" />
<glyph horiz-adv-x="1628" d="M113 535q0 158 87 242.5t249 84.5q63 0 113 -16.5t92 -48t80 -77.5t79 -104q43 57 82 103.5t82 78t93 48t114 16.5q162 0 249 -85t87 -242q0 -86 -26 -147.5t-70 -101.5t-105.5 -58.5t-132.5 -18.5q-127 0 -211 64.5t-158 181.5q-76 -117 -160 -181.5t-211 -64.5 q-72 0 -133 18.5t-105 58.5t-69.5 101.5t-25.5 147.5zM219 535q0 -125 64.5 -179.5t162.5 -54.5q37 0 73 9t74 36t79 72t84 117q-47 72 -88 117.5t-78 71.5t-71 36t-70 10q-106 0 -166 -56.5t-64 -178.5zM877 535q43 -72 83.5 -117t78.5 -72t74 -36t73 -9q98 0 162.5 54.5 t64.5 179.5q-4 123 -63.5 179t-165.5 56q-37 0 -71 -10t-70.5 -36t-77.5 -72t-88 -117z" />
<glyph horiz-adv-x="1236" d="M123 676l495 727l496 -727l-498 -727zM227 666l383 -555l394 571l-383 559z" />
<glyph horiz-adv-x="1228" d="M82 408v47q0 23 22 22h203v500h-203q-18 0 -22 22v48q0 23 22 22h203v352q0 23 23 23h57q8 0 15.5 -5t7.5 -20v-350h391v352q0 23 22 23h58q8 0 15 -5t7 -20v-350h221q20 0 25 -22v-48q0 -10 -7 -16t-18 -6h-221v-500h221q10 0 17.5 -6t7.5 -16v-47q0 -10 -7 -16.5 t-18 -6.5h-221v-362q0 -23 -22 -23h-58q-23 0 -22 23v362h-391v-362q0 -23 -23 -23h-57q-23 0 -23 23v362h-203q-23 0 -22 23zM410 477h391v500h-391v-500z" />
<glyph horiz-adv-x="1228" d="M123 1042v50q0 147 85 229t277 82h62v266q0 23 22 23h58q8 0 15 -6.5t7 -16.5v-266h324q18 0 18 -21v-51q0 -20 -18 -20h-481q-154 0 -210.5 -54.5t-56.5 -166.5v-50q0 -92 52.5 -149t179.5 -90l299 -76q76 -18 135 -44t100 -64.5t61.5 -92t20.5 -127.5v-67 q0 -156 -93 -243t-296 -87h-35v-266q0 -23 -22 -23h-60q-20 0 -20 19v270h-367q-18 0 -18 20v52q0 20 18 20h496q145 0 220 53.5t75 186.5v53q0 45 -9.5 82t-36 67.5t-72.5 56t-120 44.5l-311 78q-61 14 -115.5 40.5t-95.5 66.5t-64.5 94.5t-23.5 127.5z" />
<glyph horiz-adv-x="1228" d="M115 473v414q0 113 25.5 204t80.5 153.5t140 96t204 33.5h97q236 0 343 -130t107 -357v-414q0 -227 -107.5 -356t-342.5 -129h-97q-119 0 -204 32.5t-140 96t-80.5 152.5t-25.5 204zM217 473q0 -180 83 -286.5t263 -106.5h101q180 0 263 106.5t83 286.5v414 q0 180 -83 287.5t-263 107.5h-101q-180 0 -263 -107.5t-83 -287.5v-414z" />
<glyph horiz-adv-x="1228" d="M197 1331v51q0 20 18 21h444q25 0 25 -25v-1286h330q18 0 18 -20v-52q0 -20 -18 -20h-774q-18 0 -19 20v52q0 20 19 20h342v1219h-367q-18 0 -18 20z" />
<glyph horiz-adv-x="1228" d="M156 53v199q0 102 33.5 175t93 124t141.5 86t178 63q86 27 153.5 51.5t115 56.5t73 77t25.5 110v62q0 125 -77 188.5t-249 65.5h-410q-18 0 -18 20v51q0 20 18 21h408q92 0 171 -19.5t136.5 -60.5t90 -107.5t32.5 -158.5v-70q0 -82 -30.5 -138t-85 -96t-129 -70 t-160.5 -58q-104 -35 -181 -65t-127.5 -69.5t-75 -97t-24.5 -145.5v-156h784q18 0 19 -20v-52q0 -20 -19 -20h-837q-29 0 -39 16.5t-10 36.5z" />
<glyph horiz-adv-x="1228" d="M188 20v52q0 20 19 20h401q178 0 254 58.5t76 193.5v90q0 127 -90 181.5t-240 54.5h-211q-18 0 -18 20v51q0 20 18 21h211q61 0 114.5 14.5t94.5 42t64.5 70.5t23.5 102v74q0 49 -12 94t-42 79t-78 53.5t-122 19.5h-440q-18 0 -18 20v51q0 20 18 21h438q190 0 274.5 -91 t84.5 -247v-74q0 -96 -40 -163.5t-149 -106.5q96 -18 158.5 -85t62.5 -202v-84q0 -80 -22.5 -144.5t-72.5 -110.5t-133 -70.5t-204 -24.5h-401q-18 0 -19 20z" />
<glyph horiz-adv-x="1228" d="M104 358v74q0 10 3.5 15.5t7.5 15.5l489 921q8 18 31 19h72q20 0 10 -19l-510 -964q39 2 64.5 4t46 3l41 2t51.5 1h385v328q0 18 20 18h62q20 0 20 -18v-328h207q18 0 18 -20v-52q0 -20 -18 -20h-207v-320q0 -18 -20 -18h-62q-20 0 -20 18v320h-672q-18 0 -19 20z" />
<glyph horiz-adv-x="1228" d="M164 20v52q0 20 18 20h453q174 0 251 64.5t77 218.5v182q0 117 -62.5 178.5t-177.5 61.5h-127q-59 0 -96 -14.5t-86 -51.5l-123 -92q-25 -18 -49 -2l-29 16q-16 10 -18 15.5t-2 25.5v674q0 35 38 35h758q18 0 19 -21v-51q0 -20 -19 -20h-672q-23 0 -22 -21v-534l119 84 q41 29 79.5 39t108.5 10h141q154 0 238 -87t84 -245v-178q0 -92 -21.5 -164t-71.5 -119t-130 -71.5t-197 -24.5h-463q-18 0 -18 20z" />
<glyph horiz-adv-x="1228" d="M150 408v507q0 229 125.5 358.5t367.5 129.5h336q18 0 18 -21v-51q0 -20 -18 -20h-340q-186 0 -286.5 -102.5t-100.5 -293.5v-307l139 164q16 18 38 36.5t51.5 33t70.5 22.5t96 8h121q152 0 231.5 -79.5t79.5 -202.5v-240q0 -182 -105.5 -272t-295.5 -90h-121 q-199 0 -303 109.5t-104 310.5zM252 414q0 -168 72.5 -251t242.5 -83h107q139 0 221 62.5t82 207.5v225q0 92 -53.5 148.5t-159.5 56.5h-111q-47 0 -76.5 -5t-52 -16t-41 -28.5t-39.5 -42.5l-192 -223v-51z" />
<glyph horiz-adv-x="1228" d="M166 1331v51q0 20 18 21h860q18 0 19 -21v-67q0 -16 -6 -23l-219 -258q-82 -96 -138.5 -182t-92.5 -182.5t-51 -215t-15 -280.5v-156q0 -18 -21 -18h-61q-20 0 -21 18v154q0 141 16.5 262t53.5 229.5t95.5 208t141.5 195.5l213 244h-774q-18 0 -18 20z" />
<glyph horiz-adv-x="1228" d="M137 340v96q0 104 59.5 182t182.5 109q-113 35 -156 116t-43 171v92q0 139 100.5 223t292.5 84h82q193 0 293.5 -84t100.5 -223v-92q0 -90 -43 -171t-156 -116q123 -31 182.5 -108.5t59.5 -182.5v-96q0 -164 -105.5 -258t-304.5 -94h-135q-199 0 -304.5 94t-105.5 258z M240 346q0 -129 87 -199.5t228 -70.5h119q141 0 228 70.5t87 199.5v86q0 115 -94 181.5t-246 66.5h-69q-152 0 -246 -66.5t-94 -181.5v-86zM283 1016q2 -129 76.5 -187.5t228.5 -58.5h53q154 0 228.5 58.5t76.5 187.5v84q0 104 -66.5 165.5t-220.5 61.5h-90 q-154 0 -220 -61.5t-66 -165.5v-84z" />
<glyph horiz-adv-x="1228" d="M150 782v271q0 182 105 272t296 90h121q199 0 303 -109.5t104 -310.5v-508q0 -229 -126 -358t-367 -129h-336q-18 0 -19 20v52q0 20 19 20h340q186 0 286.5 102.5t100.5 292.5v277l-139 -164q-16 -18 -38 -36.5t-51.5 -33t-70.5 -22.5t-96 -8h-121q-152 0 -231.5 79.5 t-79.5 202.5zM252 797q0 -92 53 -148.5t160 -56.5h110q45 0 76 5t53.5 16.5t40 28.5t39.5 42l193 223v82q0 168 -73 251t-242 83h-107q-139 0 -221 -62.5t-82 -207.5v-256z" />
<glyph horiz-adv-x="1228" d="M188 373v211q0 213 99.5 315t283.5 105v213q0 23 23 22h53q8 0 15.5 -6t7.5 -16v-216q88 0 147.5 -22.5t96 -59t52 -87t15.5 -107.5v-55q0 -18 -20 -19h-58q-20 0 -20 19v57q0 100 -56.5 147.5t-205.5 47.5q-160 0 -250 -77t-90 -261v-209q0 -150 70.5 -219.5 t211.5 -69.5h365q18 0 18 -20v-46q0 -20 -18 -20h-258v-266q0 -23 -23 -23h-53q-23 0 -23 23v266h-14q-172 0 -270.5 95t-98.5 278z" />
<glyph horiz-adv-x="1228" d="M143 20v46q0 20 19 20h182v584h-182q-18 0 -19 20v45q0 20 19 21h182v180q0 229 109.5 348t351.5 119h268q18 0 19 -21v-47q0 -20 -19 -20h-272q-190 0 -272.5 -91t-82.5 -288v-180h420q18 0 19 -21v-45q0 -20 -19 -20h-420v-584h627q18 0 19 -20v-46q0 -20 -19 -20h-911 q-18 0 -19 20z" />
<glyph horiz-adv-x="1228" d="M88 1384q0 18 27 19h61q14 0 20.5 -6t12.5 -17l403 -749l400 749q6 10 12 16.5t20 6.5h62q27 0 27 -19q0 -8 -7 -20l-415 -743h217q23 0 22 -23v-41q0 -23 -22 -22h-266v-213h266q23 0 22 -23v-41q0 -23 -22 -22h-266v-218q0 -18 -21 -18h-61q-20 0 -21 18v218h-280 q-23 0 -23 22v41q0 23 23 23h280v213h-280q-23 0 -23 22v41q0 23 23 23h231l-416 743q-6 12 -6 20z" />
<glyph horiz-adv-x="1228" d="M188 625v37q0 84 36 135t79 88q-39 18 -77 68.5t-38 129.5v50q0 137 82 203.5t234 66.5h440q18 0 19 -21v-47q0 -20 -19 -20h-436q-111 0 -162 -48t-51 -134v-35q0 -45 13.5 -78t45 -59.5t86 -50t133.5 -50.5l187 -61q143 -47 212.5 -117t69.5 -190v-39q0 -78 -33.5 -124 t-78.5 -85q47 -29 79.5 -79t32.5 -140v-35q-2 -141 -90 -202.5t-229 -61.5h-436q-18 0 -19 20v47q0 20 19 21h415q115 0 176.5 43t61.5 139v37q0 86 -63.5 137t-208.5 98l-197 62q-145 45 -214 110.5t-69 184.5zM291 637q0 -49 16.5 -82t46 -57.5t70.5 -43t90 -34.5l197 -68 q10 -4 29.5 -10t41 -14.5t40 -15.5t28.5 -9q29 23 59.5 63t30.5 95v31q0 45 -12.5 76.5t-40 56t-69.5 44t-103 40.5l-197 67q-10 2 -28.5 10.5t-39 16.5t-40 15t-27.5 11q-39 -29 -65.5 -70.5t-26.5 -90.5v-31z" />
<glyph horiz-adv-x="1228" />
<glyph horiz-adv-x="1228" d="M121 479v51q0 20 18 21h158v242h-158q-18 0 -18 20v51q0 20 18 21h158v61q0 233 106.5 345t307.5 112h356q18 0 18 -21v-51q0 -20 -18 -20h-354q-170 0 -242 -92.5t-72 -272.5v-61h506q18 0 19 -17q0 -4 -4.5 -22.5t-8.5 -34.5q-6 -18 -24 -18h-488v-242h445q18 0 18 -16 q0 -4 -4 -22.5t-8 -35.5q-6 -18 -25 -18h-426v-43q0 -158 83 -241t229 -83h356q18 0 18 -20v-52q0 -20 -18 -20h-354q-201 0 -308.5 101.5t-107.5 314.5v43h-158q-18 0 -18 20z" />
<glyph horiz-adv-x="716" d="M188 129v1141q0 197 81 292t268 95h30q20 0 21 -23v-45q0 -25 -21 -24h-41q-55 0 -99 -14.5t-73.5 -48.5t-46 -90t-16.5 -142v-1141q0 -86 16.5 -143.5t46 -91t73.5 -47t99 -13.5h41q20 0 21 -24v-46q0 -23 -21 -22h-30q-186 0 -267.5 95t-81.5 292z" />
<glyph horiz-adv-x="716" d="M143 -190q0 25 21 24h41q55 0 99 13.5t74 47t46 91t16 143.5v1141q0 86 -16 142t-46 90t-74 48.5t-99 14.5h-41q-20 0 -21 24v45q0 23 21 23h31q186 0 267 -95.5t81 -291.5v-1141q0 -197 -81 -292t-267 -95h-31q-20 0 -21 22v46z" />
<glyph horiz-adv-x="864" d="M178 676v51q0 20 19 21h499q18 0 19 -21v-51q0 -20 -19 -21h-499q-18 0 -19 21z" />
<glyph horiz-adv-x="686" d="M266 -111v1622q0 23 23 23h241q18 0 19 -21v-51q0 -20 -19 -20h-159v-1483h159q18 0 19 -20v-52q0 -20 -19 -20h-239q-25 0 -25 22z" />
<glyph horiz-adv-x="684" d="M172 -61q0 20 18 20h162v1483h-162q-18 0 -18 20v51q0 20 18 21h242q23 0 23 -23v-1622q0 -23 -25 -22h-240q-18 0 -18 20v52z" />
<glyph horiz-adv-x="800" d="M141 713l121 143q14 16 14 39v311q0 76 16.5 139.5t55.5 107.5t100.5 68.5t153.5 24.5h53q18 0 19 -24v-47q0 -23 -19 -23h-63q-104 0 -158.5 -58.5t-54.5 -187.5v-348q0 -20 -14 -39l-111 -129l108 -115q10 -10 13.5 -16t3.5 -22v-301q0 -147 51 -217t162 -70h63 q18 0 19 -19v-53q0 -23 -17 -22h-55q-88 0 -149.5 26.5t-100.5 75.5t-57.5 119.5t-18.5 156.5v279q0 25 -12 37l-121 137q-12 12 -2 27z" />
<glyph horiz-adv-x="821" d="M111 -70q0 18 18 19h64q111 0 162 69.5t51 217.5v301q0 16 3 22t13 16l108 115l-110 129q-14 18 -14 39v348q0 129 -54.5 187.5t-158.5 58.5h-64q-18 0 -18 23v47q0 25 18 24h53q92 0 153.5 -24.5t100.5 -68.5t55.5 -107.5t16.5 -139.5v-311q0 -23 14 -39l121 -143 q10 -14 -2 -27l-121 -137q-12 -12 -12 -37v-279q0 -174 -76 -276t-250 -102h-55q-16 0 -16 22v53z" />
<glyph horiz-adv-x="1236" d="M180 680v45q2 20 17 31l370 362q8 4 13 4q20 0 20 -24v-74q0 -16 -6 -24.5t-16 -16.5l-304 -281l304 -299q10 -10 16 -18t6 -27v-59q0 -10 -7 -16.5t-15 -6.5t-13 5l-368 366q-16 16 -17 33zM573 680v45q2 20 17 31l371 362q8 4 12 4q20 0 20 -24v-74q0 -16 -6 -24.5 t-16 -16.5l-303 -281l303 -299q10 -10 16 -18t6 -27v-59q0 -10 -7 -16.5t-15 -6.5t-13 5l-368 366q-16 16 -17 33z" />
<glyph horiz-adv-x="888" d="M164 672v55q0 25 24 25h490q18 0 22 -25v-55q0 -23 -22 -23h-490q-25 0 -24 23z" />
<glyph horiz-adv-x="1236" d="M219 301v74q0 16 6 24.5t17 16.5l303 280l-303 299q-10 10 -16.5 18.5t-6.5 26.5v60q0 10 7 16t16 6q8 0 12 -4l369 -366q16 -16 16 -33v-45q-2 -20 -16 -31l-371 -362q-8 -4 -12 -5q-20 0 -21 25zM612 301v74q0 16 6.5 24.5t16.5 16.5l303 280l-303 299 q-10 10 -16.5 18.5t-6.5 26.5v60q0 10 7.5 16t15.5 6t12 -4l369 -366q16 -16 16 -33v-45q-2 -20 -16 -31l-371 -362q-8 -4 -12 -5q-20 0 -21 25z" />
<glyph d="M-770 1917q2 10 16 10h80q10 0 16.5 -6t10.5 -16l149 -299q4 -8 2 -14.5t-16 -6.5h-47q-12 0 -17.5 1t-11.5 11l-178 308q-4 8 -4 12z" />
<glyph d="M-563 1591q-2 6 2 15l149 299q10 23 27 22h80q14 0 16 -10q0 -4 -4 -12l-178 -308q-6 -10 -11 -11t-18 -1h-47q-14 0 -16 6z" />
<glyph d="M-815 1594.5q-6 9.5 2 19.5l235 295q6 8 12.5 13t16.5 5h57q10 0 16.5 -5t12.5 -13l242 -295q8 -10 2 -19.5t-19 -9.5h-65q-20 0 -35 23l-178 233l-180 -233q-14 -23 -35 -23h-68q-10 0 -16 9.5z" />
<glyph d="M-885 1718v47q0 16 5.5 21.5l11.5 11.5q25 16 59.5 30.5t73.5 14.5q61 0 103 -13t77 -28.5t66.5 -28t74.5 -12.5q35 0 59.5 8.5t51.5 24.5q14 10 22 10q16 0 17 -18v-43q0 -23 -17 -35q-25 -18 -58.5 -31.5t-72.5 -13.5q-61 0 -104 12.5t-79 27.5t-68.5 28.5t-71.5 13.5 t-63.5 -11.5t-61.5 -29.5q-4 -2 -10 -2q-14 0 -15 16z" />
<glyph d="M-770 1683v117q0 25 27 25h118q20 0 21 -25v-117q0 -25 -23 -24h-118q-25 0 -25 24zM-330 1683v117q0 25 27 25h119q20 0 20 -25v-117q0 -25 -22 -24h-119q-25 0 -25 24z" />
<glyph d="M-725 1724q0 109 64.5 163.5t162.5 54.5t163 -54.5t65 -163.5q0 -102 -62.5 -157.5t-165.5 -55.5q-102 0 -164.5 55.5t-62.5 157.5zM-623 1726q0 -59 36 -90.5t89 -31.5t89 31.5t36 90.5q0 53 -33.5 86t-91.5 33q-57 0 -91 -32.5t-34 -86.5z" />
<glyph d="M-815 1917.5q6 9.5 16 9.5h68q20 0 35 -22l180 -234l178 234q14 23 35 22h65q12 0 18.5 -9t-1.5 -20l-242 -294q-6 -8 -12 -13.5t-17 -5.5h-57q-10 0 -16 5t-13 14l-235 294q-8 10 -2 19.5z" />
<glyph horiz-adv-x="2" d="M-471 -416q0 23 22 23h127q139 0 140 119q0 61 -31 88.5t-92 27.5h-129q-29 0 -29 29v23q0 16 7 25t18 18l121 88h127l-156 -105h51q94 0 147.5 -47t53.5 -133v-21q0 -88 -55.5 -138t-172.5 -50h-127q-23 0 -22 23v30z" />
<glyph horiz-adv-x="1226" d="M174 586v55q4 25 27 25h792q20 0 21 -21v-59q0 -23 -21 -23h-792q-27 0 -27 23z" />
<glyph horiz-adv-x="1722" d="M174 586v55q2 10 8 17.5t17 7.5h1290q20 0 20 -21v-59q0 -23 -20 -23h-1290q-10 0 -17.5 6t-7.5 17z" />
<glyph horiz-adv-x="841" d="M180 680v45q2 20 17 31l370 362q8 4 13 4q20 0 20 -24v-74q0 -16 -6 -24.5t-16 -16.5l-304 -281l304 -299q10 -10 16 -18t6 -27v-59q0 -10 -7 -16.5t-15 -6.5t-13 5l-368 366q-16 16 -17 33z" />
<glyph horiz-adv-x="843" d="M219 301v74q0 16 6 24.5t17 16.5l303 280l-303 299q-10 10 -16.5 18.5t-6.5 26.5v60q0 10 7 16t16 6q8 0 12 -4l369 -366q16 -16 16 -33v-45q-2 -20 -16 -31l-371 -362q-8 -4 -12 -5q-20 0 -21 25z" />
<glyph horiz-adv-x="1228" d="M299 684v45q0 23 25 23h690q25 0 24 -23v-45q0 -25 -24 -25h-690q-25 0 -25 25z" />
<glyph horiz-adv-x="921" d="M-836 1341q0 100 54.5 144.5t140.5 44.5t140.5 -44.5t54.5 -144.5q0 -92 -52.5 -138t-142.5 -46t-142.5 46t-52.5 138zM-752 1343q0 -59 29 -83.5t82 -24.5t82 24.5t29 83.5q0 104 -111 105q-111 0 -111 -105zM20 725v27q0 57 21.5 109t61.5 93t99.5 65.5t133.5 24.5h86 q182 0 265 -94t83 -272v-660q0 -18 -20 -18h-58q-20 0 -20 18v660q0 152 -65.5 216t-221.5 64q-80 0 -131 -16t-81 -44t-42 -65.5t-12 -80.5v-27q0 -18 -21 -18h-57q-20 0 -21 18z" />
<glyph />
<glyph horiz-adv-x="1185" d="M135 778v64q0 98 62.5 150t173.5 52h94q23 0 22 -22v-37q0 -27 -22 -27h-92q-59 0 -97 -25.5t-38 -96.5v-54q0 -156 139 -155q47 0 91 17.5t91 41.5l289 148v188q0 23 24 22h50q25 0 24 -22v-1004q0 -18 -20 -18h-58q-20 0 -20 18v715l-260 -139q-51 -29 -100.5 -44 t-116.5 -15q-125 0 -180.5 66.5t-55.5 176.5z" />
<glyph horiz-adv-x="1314" d="M160 473v455q0 113 25.5 204t81 153.5t140.5 96t203 33.5h97q236 0 343 -130t107 -357v-455q0 -227 -107.5 -356t-342.5 -129h-97q-119 0 -203.5 32.5t-140 96t-81 152.5t-25.5 204zM262 473q0 -180 83 -286.5t263 -106.5h101q180 0 263 106.5t83 286.5v455 q0 180 -83 287.5t-263 107.5h-101q-180 0 -263 -107.5t-83 -287.5v-455z" />
<glyph horiz-adv-x="774" d="M78 1331v51q0 20 18 21h342q25 0 25 -25v-1286h227q18 0 19 -20v-52q0 -20 -19 -20h-569q-18 0 -19 20v52q0 20 19 20h239v1219h-264q-18 0 -18 20z" />
<glyph horiz-adv-x="1196" d="M152 53v199q0 102 33.5 175t93 124t141.5 86t178 63q86 27 153.5 51.5t114.5 56.5t73 77t26 110v62q0 125 -77 188.5t-249 65.5h-410q-18 0 -18 20v51q0 20 18 21h408q92 0 171 -19.5t136 -60.5t90 -107.5t33 -158.5v-70q0 -82 -30.5 -138t-85 -96t-129 -70t-160.5 -58 q-104 -35 -181.5 -65t-127.5 -69.5t-74.5 -97t-24.5 -145.5v-156h784q18 0 19 -20v-52q0 -20 -19 -20h-837q-29 0 -39 16.5t-10 36.5z" />
<glyph horiz-adv-x="1116" d="M141 20v52q0 20 19 20h401q178 0 254 58.5t76 193.5v90q0 127 -90 181.5t-240 54.5h-211q-18 0 -18 20v51q0 20 18 21h211q61 0 114.5 14.5t94.5 42t64.5 70.5t23.5 102v74q0 49 -12 94t-42 79t-78 53.5t-122 19.5h-440q-18 0 -19 20v51q0 20 19 21h438q190 0 274.5 -91 t84.5 -247v-74q0 -96 -40 -163.5t-149 -106.5q96 -18 158.5 -85t62.5 -202v-84q0 -80 -22.5 -144.5t-72.5 -110.5t-133 -70.5t-204 -24.5h-401q-18 0 -19 20z" />
<glyph horiz-adv-x="1198" d="M106 358v74q0 10 3.5 15.5t7.5 15.5l489 921q8 18 31 19h72q20 0 10 -19l-510 -964q39 2 64.5 4t46 3l41 2t51.5 1h385v328q0 18 20 18h62q20 0 20 -18v-328h207q18 0 18 -20v-52q0 -20 -18 -20h-207v-320q0 -18 -20 -18h-62q-20 0 -20 18v320h-672q-18 0 -19 20z" />
<glyph horiz-adv-x="1234" d="M186 20v52q0 20 19 20h452q174 0 251 64.5t77 218.5v182q0 117 -62.5 178.5t-177.5 61.5h-127q-59 0 -96 -14.5t-86 -51.5l-123 -92q-25 -18 -49 -2l-28 16q-16 10 -18.5 15.5t-2.5 25.5v674q0 35 39 35h758q18 0 18 -21v-51q0 -20 -18 -20h-672q-23 0 -23 -21v-534 l119 84q41 29 80 39t109 10h141q154 0 237.5 -87t83.5 -245v-178q0 -92 -21.5 -164t-71.5 -119t-130 -71.5t-196 -24.5h-463q-18 0 -19 20z" />
<glyph horiz-adv-x="1232" d="M182 408v507q0 229 126 358.5t368 129.5h336q18 0 18 -21v-51q0 -20 -18 -20h-340q-186 0 -286.5 -102.5t-100.5 -293.5v-307l139 164q16 18 37.5 36.5t51.5 33t71 22.5t96 8h121q152 0 231.5 -79.5t79.5 -202.5v-240q0 -182 -105.5 -272t-295.5 -90h-121 q-199 0 -303.5 109.5t-104.5 310.5zM285 414q0 -168 72.5 -251t242.5 -83h107q139 0 221 62.5t82 207.5v225q0 92 -53.5 148.5t-159.5 56.5h-111q-47 0 -76.5 -5t-52 -16t-41 -28.5t-39.5 -42.5l-192 -223v-51z" />
<glyph horiz-adv-x="1040" d="M98 1331v51q0 20 19 21h860q18 0 18 -21v-67q0 -16 -6 -23l-219 -258q-82 -96 -138.5 -182t-92 -182.5t-51 -215t-15.5 -280.5v-156q0 -18 -20 -18h-62q-20 0 -20 18v154q0 141 16 262t53 229.5t95.5 208t142.5 195.5l213 244h-774q-18 0 -19 20z" />
<glyph horiz-adv-x="1191" d="M143 340v96q0 104 59.5 182t182.5 109q-113 35 -156 116t-43 171v92q0 139 100.5 223t293.5 84h82q193 0 293 -84t100 -223v-92q0 -90 -43 -171t-156 -116q123 -31 182.5 -108.5t59.5 -182.5v-96q0 -164 -105.5 -258t-304.5 -94h-135q-199 0 -304.5 94t-105.5 258z M246 346q0 -129 87 -199.5t228 -70.5h119q141 0 228 70.5t87 199.5v86q0 115 -94 181.5t-246 66.5h-69q-152 0 -246 -66.5t-94 -181.5v-86zM289 1016q2 -129 76.5 -187.5t228.5 -58.5h53q154 0 228.5 58.5t76.5 187.5v84q0 104 -66.5 165.5t-219.5 61.5h-91 q-154 0 -220 -61.5t-66 -165.5v-84z" />
<glyph horiz-adv-x="1204" d="M131 782v271q0 182 105.5 272t295.5 90h121q199 0 303.5 -109.5t104.5 -310.5v-508q0 -229 -126 -358t-368 -129h-336q-18 0 -18 20v52q0 20 18 20h340q186 0 286.5 102.5t100.5 292.5v277l-139 -164q-16 -18 -37.5 -36.5t-51.5 -33t-71 -22.5t-96 -8h-121 q-152 0 -231.5 79.5t-79.5 202.5zM233 797q0 -92 53.5 -148.5t159.5 -56.5h111q45 0 76 5t53.5 16.5t39.5 28.5t40 42l192 223v82q0 168 -72.5 251t-242.5 83h-106q-139 0 -221.5 -62.5t-82.5 -207.5v-256z" />
</font>
</defs>
</svg>
